M48
;DRILL file {KiCad (5.0.0-3-g5ebb6b6)} date 
;FORMAT={-:-/ absolute / metric / decimal}
FMAT,2
METRIC,TZ
T1C0.400
T2C0.762
T3C0.800
T4C0.900
T5C1.000
T6C2.200
T7C3.200
%
G90
G05
M71
T1
X124.46Y-103.505
X124.46Y-113.665
X125.73Y-71.12
X126.365Y-80.01
X127.635Y-68.58
X127.635Y-72.39
X127.635Y-90.17
X130.81Y-80.01
X130.81Y-82.55
X130.81Y-85.09
X130.81Y-90.17
X130.81Y-93.98
X130.81Y-100.33
X130.81Y-104.14
X130.81Y-112.395
X130.81Y-120.65
X130.81Y-123.19
X132.08Y-72.39
X132.08Y-76.2
X132.08Y-85.725
X132.08Y-106.68
X133.35Y-110.49
X134.62Y-77.47
X135.89Y-72.39
X135.89Y-90.17
X135.89Y-111.76
X135.89Y-116.84
X135.89Y-119.38
X135.89Y-121.92
X136.525Y-101.6
X138.43Y-78.105
X138.43Y-107.95
X138.43Y-110.49
X141.605Y-86.995
X142.494Y-119.126
X142.875Y-71.12
X142.875Y-117.475
X144.145Y-70.485
X144.145Y-126.365
X147.32Y-76.2
X147.32Y-106.68
X147.955Y-80.01
X148.336Y-115.57
X149.225Y-82.55
X149.225Y-114.3
X150.495Y-76.2
X150.495Y-103.505
X154.305Y-118.11
X154.305Y-120.65
X154.94Y-68.58
X154.94Y-80.01
X156.21Y-74.93
X157.48Y-77.47
X157.48Y-110.49
X157.48Y-114.3
X158.75Y-74.295
X160.02Y-77.47
X160.02Y-109.855
X160.02Y-114.3
X161.29Y-71.755
X162.56Y-85.725
X163.195Y-107.95
X163.195Y-112.395
X164.465Y-83.82
X187.325Y-106.68
X187.96Y-81.28
X187.96Y-86.36
X189.865Y-128.27
X191.77Y-80.01
X191.77Y-105.41
X192.405Y-104.14
X195.58Y-105.41
X195.58Y-110.49
X196.85Y-81.28
T2
X166.37Y-68.58
X166.37Y-71.12
X166.37Y-73.66
X166.37Y-76.2
X166.37Y-78.74
X166.37Y-81.28
X166.37Y-83.82
X166.37Y-86.36
X166.37Y-88.9
X166.37Y-91.44
X166.37Y-93.98
X166.37Y-96.52
X166.37Y-99.06
X166.37Y-101.6
X166.37Y-104.14
X166.37Y-106.68
X166.37Y-109.22
X184.15Y-68.58
X184.15Y-71.12
X184.15Y-73.66
X184.15Y-76.2
X184.15Y-78.74
X184.15Y-81.28
X184.15Y-83.82
X184.15Y-86.36
X184.15Y-88.9
X184.15Y-91.44
X184.15Y-93.98
X184.15Y-96.52
X184.15Y-99.06
X184.15Y-101.6
X184.15Y-104.14
X184.15Y-106.68
X184.15Y-109.22
T3
X121.92Y-86.36
X121.92Y-88.9
X121.92Y-91.44
X121.92Y-93.98
X129.54Y-86.36
X129.54Y-88.9
X129.54Y-91.44
X129.54Y-93.98
X121.92Y-96.52
X121.92Y-99.06
X121.92Y-101.6
X121.92Y-104.14
X129.54Y-96.52
X129.54Y-99.06
X129.54Y-101.6
X129.54Y-104.14
X121.92Y-66.04
X121.92Y-68.58
X121.92Y-71.12
X121.92Y-73.66
X129.54Y-66.04
X129.54Y-68.58
X129.54Y-71.12
X129.54Y-73.66
X121.92Y-106.68
X121.92Y-109.22
X121.92Y-111.76
X121.92Y-114.3
X129.54Y-106.68
X129.54Y-109.22
X129.54Y-111.76
X129.54Y-114.3
X121.92Y-116.84
X121.92Y-119.38
X121.92Y-121.92
X121.92Y-124.46
X129.54Y-116.84
X129.54Y-119.38
X129.54Y-121.92
X129.54Y-124.46
X179.07Y-120.65
X179.07Y-128.27
X181.61Y-120.65
X181.61Y-128.27
X184.15Y-120.65
X184.15Y-128.27
X186.69Y-120.65
X186.69Y-128.27
X121.92Y-76.2
X121.92Y-78.74
X121.92Y-81.28
X121.92Y-83.82
X129.54Y-76.2
X129.54Y-78.74
X129.54Y-81.28
X129.54Y-83.82
T4
X156.21Y-124.46
X158.75Y-124.46
X196.85Y-62.23
X199.39Y-62.23
X156.21Y-63.5
X158.75Y-63.5
T5
X199.39Y-116.88
X199.39Y-119.38
X152.4Y-68.58
X152.4Y-71.12
X152.4Y-73.66
X152.4Y-76.2
X152.4Y-78.74
X152.4Y-81.28
X152.4Y-83.82
X152.4Y-86.36
X152.4Y-88.9
X152.4Y-91.44
X189.27Y-67.31
X191.77Y-67.31
X199.39Y-105.49
X199.39Y-107.99
X199.39Y-110.49
X166.37Y-120.65
X168.87Y-120.65
X171.37Y-120.65
X199.39Y-80.13
X199.39Y-82.63
X199.39Y-85.13
X199.39Y-87.63
X139.185Y-67.31
X141.685Y-67.31
X144.185Y-67.31
X146.685Y-67.31
X152.4Y-99.06
X152.4Y-101.6
X152.4Y-104.14
X152.4Y-106.68
X152.4Y-109.22
X152.4Y-111.76
X152.4Y-114.3
X152.4Y-116.84
X152.4Y-119.38
X152.4Y-121.92
X139.065Y-120.65
X141.565Y-120.65
X144.065Y-120.65
X146.565Y-120.65
X199.39Y-94.06
X199.39Y-96.56
X199.39Y-99.06
X199.39Y-71.16
X199.39Y-73.66
T6
X118.11Y-99.06
X118.11Y-68.58
T7
X205.74Y-60.96
X205.74Y-127.
X116.84Y-127.
X116.84Y-60.96
T0
M30
