G04 #@! TF.GenerationSoftware,KiCad,Pcbnew,(5.0.0-3-g5ebb6b6)*
G04 #@! TF.CreationDate,2018-07-28T18:34:54+09:00*
G04 #@! TF.ProjectId,MD_Controller,4D445F436F6E74726F6C6C65722E6B69,rev?*
G04 #@! TF.SameCoordinates,Original*
G04 #@! TF.FileFunction,Soldermask,Top*
G04 #@! TF.FilePolarity,Negative*
%FSLAX46Y46*%
G04 Gerber Fmt 4.6, Leading zero omitted, Abs format (unit mm)*
G04 Created by KiCad (PCBNEW (5.0.0-3-g5ebb6b6)) date *
%MOMM*%
%LPD*%
G01*
G04 APERTURE LIST*
%ADD10C,3.600000*%
%ADD11C,2.600000*%
%ADD12R,1.600000X1.150000*%
%ADD13R,1.900000X1.650000*%
%ADD14R,2.200000X2.200000*%
%ADD15C,2.200000*%
%ADD16R,1.300000X1.600000*%
%ADD17R,2.000000X2.000000*%
%ADD18O,2.000000X2.000000*%
%ADD19R,2.100000X2.100000*%
%ADD20O,2.100000X2.100000*%
%ADD21C,1.924000*%
%ADD22R,1.600000X1.300000*%
%ADD23R,2.150000X2.150000*%
%ADD24C,2.150000*%
%ADD25R,1.600000X2.600000*%
%ADD26R,6.200000X6.800000*%
G04 APERTURE END LIST*
D10*
G04 #@! TO.C,*
X116840000Y-127000000D03*
G04 #@! TD*
G04 #@! TO.C,*
X205740000Y-127000000D03*
G04 #@! TD*
G04 #@! TO.C,*
X205740000Y-60960000D03*
G04 #@! TD*
G04 #@! TO.C,*
X116840000Y-60960000D03*
G04 #@! TD*
D11*
G04 #@! TO.C,*
X118110000Y-68580000D03*
G04 #@! TD*
G04 #@! TO.C,*
X118110000Y-99060000D03*
G04 #@! TD*
D12*
G04 #@! TO.C,C1*
X134300000Y-68580000D03*
X132400000Y-68580000D03*
G04 #@! TD*
G04 #@! TO.C,C2*
X134300000Y-78740000D03*
X132400000Y-78740000D03*
G04 #@! TD*
G04 #@! TO.C,C3*
X134300000Y-88900000D03*
X132400000Y-88900000D03*
G04 #@! TD*
G04 #@! TO.C,C4*
X134300000Y-99060000D03*
X132400000Y-99060000D03*
G04 #@! TD*
G04 #@! TO.C,C5*
X134300000Y-109220000D03*
X132400000Y-109220000D03*
G04 #@! TD*
G04 #@! TO.C,C6*
X134300000Y-119380000D03*
X132400000Y-119380000D03*
G04 #@! TD*
D13*
G04 #@! TO.C,C7*
X140950000Y-72390000D03*
X138450000Y-72390000D03*
G04 #@! TD*
G04 #@! TO.C,C8*
X140950000Y-102870000D03*
X138450000Y-102870000D03*
G04 #@! TD*
G04 #@! TO.C,C9*
X147300000Y-72390000D03*
X144800000Y-72390000D03*
G04 #@! TD*
G04 #@! TO.C,C10*
X147300000Y-102870000D03*
X144800000Y-102870000D03*
G04 #@! TD*
D14*
G04 #@! TO.C,D2*
X196850000Y-62230000D03*
D15*
X199390000Y-62230000D03*
G04 #@! TD*
D16*
G04 #@! TO.C,Enc_A*
X190500000Y-81110000D03*
X190500000Y-78910000D03*
G04 #@! TD*
G04 #@! TO.C,Enc_B*
X190500000Y-86530000D03*
X190500000Y-88730000D03*
G04 #@! TD*
G04 #@! TO.C,INA*
X156210000Y-78570000D03*
X156210000Y-76370000D03*
G04 #@! TD*
G04 #@! TO.C,PWM*
X161290000Y-78570000D03*
X161290000Y-76370000D03*
G04 #@! TD*
G04 #@! TO.C,INB*
X158750000Y-78570000D03*
X158750000Y-76370000D03*
G04 #@! TD*
G04 #@! TO.C,INA*
X161290000Y-114130000D03*
X161290000Y-111930000D03*
G04 #@! TD*
G04 #@! TO.C,PWM*
X156210000Y-111930000D03*
X156210000Y-114130000D03*
G04 #@! TD*
G04 #@! TO.C,INB*
X158750000Y-111930000D03*
X158750000Y-114130000D03*
G04 #@! TD*
D14*
G04 #@! TO.C,D11*
X156210000Y-63500000D03*
D15*
X158750000Y-63500000D03*
G04 #@! TD*
D14*
G04 #@! TO.C,D12*
X156210000Y-124460000D03*
D15*
X158750000Y-124460000D03*
G04 #@! TD*
D17*
G04 #@! TO.C,F1*
X121920000Y-66040000D03*
D18*
X129540000Y-73660000D03*
X121920000Y-68580000D03*
X129540000Y-71120000D03*
X121920000Y-71120000D03*
X129540000Y-68580000D03*
X121920000Y-73660000D03*
X129540000Y-66040000D03*
G04 #@! TD*
D17*
G04 #@! TO.C,F2*
X121920000Y-76200000D03*
D18*
X129540000Y-83820000D03*
X121920000Y-78740000D03*
X129540000Y-81280000D03*
X121920000Y-81280000D03*
X129540000Y-78740000D03*
X121920000Y-83820000D03*
X129540000Y-76200000D03*
G04 #@! TD*
D17*
G04 #@! TO.C,F3*
X121920000Y-86360000D03*
D18*
X129540000Y-93980000D03*
X121920000Y-88900000D03*
X129540000Y-91440000D03*
X121920000Y-91440000D03*
X129540000Y-88900000D03*
X121920000Y-93980000D03*
X129540000Y-86360000D03*
G04 #@! TD*
D17*
G04 #@! TO.C,F4*
X121920000Y-96520000D03*
D18*
X129540000Y-104140000D03*
X121920000Y-99060000D03*
X129540000Y-101600000D03*
X121920000Y-101600000D03*
X129540000Y-99060000D03*
X121920000Y-104140000D03*
X129540000Y-96520000D03*
G04 #@! TD*
D17*
G04 #@! TO.C,F5*
X121920000Y-106680000D03*
D18*
X129540000Y-114300000D03*
X121920000Y-109220000D03*
X129540000Y-111760000D03*
X121920000Y-111760000D03*
X129540000Y-109220000D03*
X121920000Y-114300000D03*
X129540000Y-106680000D03*
G04 #@! TD*
D17*
G04 #@! TO.C,F6*
X121920000Y-116840000D03*
D18*
X129540000Y-124460000D03*
X121920000Y-119380000D03*
X129540000Y-121920000D03*
X121920000Y-121920000D03*
X129540000Y-119380000D03*
X121920000Y-124460000D03*
X129540000Y-116840000D03*
G04 #@! TD*
D19*
G04 #@! TO.C,VNH5019*
X152400000Y-68580000D03*
D20*
X152400000Y-71120000D03*
X152400000Y-73660000D03*
X152400000Y-76200000D03*
X152400000Y-78740000D03*
X152400000Y-81280000D03*
X152400000Y-83820000D03*
X152400000Y-86360000D03*
X152400000Y-88900000D03*
X152400000Y-91440000D03*
G04 #@! TD*
D19*
G04 #@! TO.C,VNH5019*
X152400000Y-99060000D03*
D20*
X152400000Y-101600000D03*
X152400000Y-104140000D03*
X152400000Y-106680000D03*
X152400000Y-109220000D03*
X152400000Y-111760000D03*
X152400000Y-114300000D03*
X152400000Y-116840000D03*
X152400000Y-119380000D03*
X152400000Y-121920000D03*
G04 #@! TD*
D21*
G04 #@! TO.C,minibed*
X166370000Y-68580000D03*
X166370000Y-71120000D03*
X166370000Y-73660000D03*
X166370000Y-76200000D03*
X166370000Y-78740000D03*
X166370000Y-81280000D03*
X166370000Y-83820000D03*
X166370000Y-86360000D03*
X166370000Y-88900000D03*
X166370000Y-91440000D03*
X166370000Y-93980000D03*
X166370000Y-96520000D03*
X166370000Y-99060000D03*
X166370000Y-101600000D03*
X166370000Y-104140000D03*
X166370000Y-106680000D03*
X166370000Y-109220000D03*
X184150000Y-109220000D03*
X184150000Y-106680000D03*
X184150000Y-104140000D03*
X184150000Y-101600000D03*
X184150000Y-99060000D03*
X184150000Y-96520000D03*
X184150000Y-93980000D03*
X184150000Y-91440000D03*
X184150000Y-88900000D03*
X184150000Y-86360000D03*
X184150000Y-83820000D03*
X184150000Y-81280000D03*
X184150000Y-78740000D03*
X184150000Y-76200000D03*
X184150000Y-73660000D03*
X184150000Y-71120000D03*
X184150000Y-68580000D03*
G04 #@! TD*
D16*
G04 #@! TO.C,R1*
X193040000Y-119210000D03*
X193040000Y-117010000D03*
G04 #@! TD*
D22*
G04 #@! TO.C,R2*
X199220000Y-66040000D03*
X197020000Y-66040000D03*
G04 #@! TD*
D16*
G04 #@! TO.C,R3*
X193040000Y-106850000D03*
X193040000Y-109050000D03*
G04 #@! TD*
G04 #@! TO.C,R4*
X193040000Y-81110000D03*
X193040000Y-78910000D03*
G04 #@! TD*
G04 #@! TO.C,R5*
X193040000Y-86530000D03*
X193040000Y-88730000D03*
G04 #@! TD*
G04 #@! TO.C,R6*
X156210000Y-81450000D03*
X156210000Y-83650000D03*
G04 #@! TD*
G04 #@! TO.C,R7*
X161290000Y-81450000D03*
X161290000Y-83650000D03*
G04 #@! TD*
G04 #@! TO.C,R8*
X158750000Y-81450000D03*
X158750000Y-83650000D03*
G04 #@! TD*
G04 #@! TO.C,R9*
X161290000Y-109050000D03*
X161290000Y-106850000D03*
G04 #@! TD*
G04 #@! TO.C,R10*
X156210000Y-109050000D03*
X156210000Y-106850000D03*
G04 #@! TD*
G04 #@! TO.C,R11*
X158750000Y-109050000D03*
X158750000Y-106850000D03*
G04 #@! TD*
G04 #@! TO.C,R12*
X124460000Y-68750000D03*
X124460000Y-70950000D03*
G04 #@! TD*
G04 #@! TO.C,R13*
X124460000Y-78910000D03*
X124460000Y-81110000D03*
G04 #@! TD*
G04 #@! TO.C,R14*
X124460000Y-89070000D03*
X124460000Y-91270000D03*
G04 #@! TD*
G04 #@! TO.C,R15*
X124460000Y-99230000D03*
X124460000Y-101430000D03*
G04 #@! TD*
G04 #@! TO.C,R16*
X124460000Y-109390000D03*
X124460000Y-111590000D03*
G04 #@! TD*
G04 #@! TO.C,R17*
X124460000Y-119550000D03*
X124460000Y-121750000D03*
G04 #@! TD*
D22*
G04 #@! TO.C,R18*
X134450000Y-71120000D03*
X132250000Y-71120000D03*
G04 #@! TD*
G04 #@! TO.C,R19*
X134450000Y-81280000D03*
X132250000Y-81280000D03*
G04 #@! TD*
G04 #@! TO.C,R20*
X134450000Y-91440000D03*
X132250000Y-91440000D03*
G04 #@! TD*
G04 #@! TO.C,R21*
X134450000Y-101600000D03*
X132250000Y-101600000D03*
G04 #@! TD*
G04 #@! TO.C,R22*
X134450000Y-111760000D03*
X132250000Y-111760000D03*
G04 #@! TD*
G04 #@! TO.C,R23*
X134450000Y-121920000D03*
X132250000Y-121920000D03*
G04 #@! TD*
G04 #@! TO.C,R24*
X132250000Y-73660000D03*
X134450000Y-73660000D03*
G04 #@! TD*
G04 #@! TO.C,R25*
X132250000Y-83820000D03*
X134450000Y-83820000D03*
G04 #@! TD*
G04 #@! TO.C,R26*
X132250000Y-93980000D03*
X134450000Y-93980000D03*
G04 #@! TD*
G04 #@! TO.C,R27*
X132250000Y-104140000D03*
X134450000Y-104140000D03*
G04 #@! TD*
G04 #@! TO.C,R28*
X132250000Y-114300000D03*
X134450000Y-114300000D03*
G04 #@! TD*
G04 #@! TO.C,R29*
X132250000Y-124460000D03*
X134450000Y-124460000D03*
G04 #@! TD*
G04 #@! TO.C,R30*
X158580000Y-68580000D03*
X156380000Y-68580000D03*
G04 #@! TD*
G04 #@! TO.C,R31*
X158580000Y-119380000D03*
X156380000Y-119380000D03*
G04 #@! TD*
D23*
G04 #@! TO.C,+5V*
X199390000Y-73660000D03*
D24*
X199390000Y-71160000D03*
G04 #@! TD*
D23*
G04 #@! TO.C,CAN*
X199390000Y-119380000D03*
D24*
X199390000Y-116880000D03*
G04 #@! TD*
D23*
G04 #@! TO.C,Potentio*
X199390000Y-110490000D03*
D24*
X199390000Y-107990000D03*
X199390000Y-105490000D03*
G04 #@! TD*
D23*
G04 #@! TO.C,Encoder*
X199390000Y-87630000D03*
D24*
X199390000Y-85130000D03*
X199390000Y-82630000D03*
X199390000Y-80130000D03*
G04 #@! TD*
D25*
G04 #@! TO.C,U5*
X145155000Y-75810000D03*
X142875000Y-75810000D03*
X140595000Y-75810000D03*
D26*
X142875000Y-82110000D03*
G04 #@! TD*
D25*
G04 #@! TO.C,U6*
X145155000Y-106290000D03*
X142875000Y-106290000D03*
X140595000Y-106290000D03*
D26*
X142875000Y-112590000D03*
G04 #@! TD*
D17*
G04 #@! TO.C,DIP_SW*
X179070000Y-128270000D03*
D18*
X186690000Y-120650000D03*
X181610000Y-128270000D03*
X184150000Y-120650000D03*
X184150000Y-128270000D03*
X181610000Y-120650000D03*
X186690000Y-128270000D03*
X179070000Y-120650000D03*
G04 #@! TD*
D23*
G04 #@! TO.C,+5V*
X191770000Y-67310000D03*
D24*
X189270000Y-67310000D03*
G04 #@! TD*
D23*
G04 #@! TO.C,MD1_Input*
X146685000Y-67310000D03*
D24*
X144185000Y-67310000D03*
X141685000Y-67310000D03*
X139185000Y-67310000D03*
G04 #@! TD*
D23*
G04 #@! TO.C,MD2_Input*
X139065000Y-120650000D03*
D24*
X141565000Y-120650000D03*
X144065000Y-120650000D03*
X146565000Y-120650000D03*
G04 #@! TD*
D23*
G04 #@! TO.C,UART*
X199390000Y-99060000D03*
D24*
X199390000Y-96560000D03*
X199390000Y-94060000D03*
G04 #@! TD*
D16*
G04 #@! TO.C,D1*
X190500000Y-106850000D03*
X190500000Y-109050000D03*
G04 #@! TD*
D23*
G04 #@! TO.C,CS*
X166370000Y-120650000D03*
D24*
X168870000Y-120650000D03*
X171370000Y-120650000D03*
G04 #@! TD*
M02*
