G04 #@! TF.GenerationSoftware,KiCad,Pcbnew,(5.0.0-3-g5ebb6b6)*
G04 #@! TF.CreationDate,2018-07-28T18:34:54+09:00*
G04 #@! TF.ProjectId,MD_Controller,4D445F436F6E74726F6C6C65722E6B69,rev?*
G04 #@! TF.SameCoordinates,Original*
G04 #@! TF.FileFunction,Copper,L2,Bot,Signal*
G04 #@! TF.FilePolarity,Positive*
%FSLAX46Y46*%
G04 Gerber Fmt 4.6, Leading zero omitted, Abs format (unit mm)*
G04 Created by KiCad (PCBNEW (5.0.0-3-g5ebb6b6)) date *
%MOMM*%
%LPD*%
G01*
G04 APERTURE LIST*
G04 #@! TA.AperFunction,ComponentPad*
%ADD10R,1.800000X1.800000*%
G04 #@! TD*
G04 #@! TA.AperFunction,ComponentPad*
%ADD11C,1.800000*%
G04 #@! TD*
G04 #@! TA.AperFunction,ComponentPad*
%ADD12R,1.600000X1.600000*%
G04 #@! TD*
G04 #@! TA.AperFunction,ComponentPad*
%ADD13O,1.600000X1.600000*%
G04 #@! TD*
G04 #@! TA.AperFunction,ComponentPad*
%ADD14R,1.700000X1.700000*%
G04 #@! TD*
G04 #@! TA.AperFunction,ComponentPad*
%ADD15O,1.700000X1.700000*%
G04 #@! TD*
G04 #@! TA.AperFunction,ComponentPad*
%ADD16C,1.524000*%
G04 #@! TD*
G04 #@! TA.AperFunction,ComponentPad*
%ADD17R,1.750000X1.750000*%
G04 #@! TD*
G04 #@! TA.AperFunction,ComponentPad*
%ADD18C,1.750000*%
G04 #@! TD*
G04 #@! TA.AperFunction,ViaPad*
%ADD19C,0.600000*%
G04 #@! TD*
G04 #@! TA.AperFunction,Conductor*
%ADD20C,0.250000*%
G04 #@! TD*
G04 #@! TA.AperFunction,Conductor*
%ADD21C,0.254000*%
G04 #@! TD*
G04 APERTURE END LIST*
D10*
G04 #@! TO.P,D2,1*
G04 #@! TO.N,GNDA*
X196850000Y-62230000D03*
D11*
G04 #@! TO.P,D2,2*
G04 #@! TO.N,Net-(D2-Pad2)*
X199390000Y-62230000D03*
G04 #@! TD*
D10*
G04 #@! TO.P,D11,1*
G04 #@! TO.N,GND*
X156210000Y-63500000D03*
D11*
G04 #@! TO.P,D11,2*
G04 #@! TO.N,Net-(D11-Pad2)*
X158750000Y-63500000D03*
G04 #@! TD*
D10*
G04 #@! TO.P,D12,1*
G04 #@! TO.N,GND*
X156210000Y-124460000D03*
D11*
G04 #@! TO.P,D12,2*
G04 #@! TO.N,Net-(D12-Pad2)*
X158750000Y-124460000D03*
G04 #@! TD*
D12*
G04 #@! TO.P,F1,1*
G04 #@! TO.N,Net-(F1-Pad1)*
X121920000Y-66040000D03*
D13*
G04 #@! TO.P,F1,5*
G04 #@! TO.N,GND*
X129540000Y-73660000D03*
G04 #@! TO.P,F1,2*
G04 #@! TO.N,Net-(F1-Pad2)*
X121920000Y-68580000D03*
G04 #@! TO.P,F1,6*
G04 #@! TO.N,Net-(F1-Pad6)*
X129540000Y-71120000D03*
G04 #@! TO.P,F1,3*
G04 #@! TO.N,GNDA*
X121920000Y-71120000D03*
G04 #@! TO.P,F1,7*
G04 #@! TO.N,Net-(F1-Pad7)*
X129540000Y-68580000D03*
G04 #@! TO.P,F1,4*
G04 #@! TO.N,Net-(F1-Pad4)*
X121920000Y-73660000D03*
G04 #@! TO.P,F1,8*
G04 #@! TO.N,VOUT1*
X129540000Y-66040000D03*
G04 #@! TD*
D12*
G04 #@! TO.P,F2,1*
G04 #@! TO.N,Net-(F2-Pad1)*
X121920000Y-76200000D03*
D13*
G04 #@! TO.P,F2,5*
G04 #@! TO.N,GND*
X129540000Y-83820000D03*
G04 #@! TO.P,F2,2*
G04 #@! TO.N,Net-(F2-Pad2)*
X121920000Y-78740000D03*
G04 #@! TO.P,F2,6*
G04 #@! TO.N,Net-(F2-Pad6)*
X129540000Y-81280000D03*
G04 #@! TO.P,F2,3*
G04 #@! TO.N,GNDA*
X121920000Y-81280000D03*
G04 #@! TO.P,F2,7*
G04 #@! TO.N,Net-(F2-Pad7)*
X129540000Y-78740000D03*
G04 #@! TO.P,F2,4*
G04 #@! TO.N,Net-(F2-Pad4)*
X121920000Y-83820000D03*
G04 #@! TO.P,F2,8*
G04 #@! TO.N,VOUT1*
X129540000Y-76200000D03*
G04 #@! TD*
D12*
G04 #@! TO.P,F3,1*
G04 #@! TO.N,Net-(F3-Pad1)*
X121920000Y-86360000D03*
D13*
G04 #@! TO.P,F3,5*
G04 #@! TO.N,GND*
X129540000Y-93980000D03*
G04 #@! TO.P,F3,2*
G04 #@! TO.N,Net-(F3-Pad2)*
X121920000Y-88900000D03*
G04 #@! TO.P,F3,6*
G04 #@! TO.N,Net-(F3-Pad6)*
X129540000Y-91440000D03*
G04 #@! TO.P,F3,3*
G04 #@! TO.N,GNDA*
X121920000Y-91440000D03*
G04 #@! TO.P,F3,7*
G04 #@! TO.N,Net-(F3-Pad7)*
X129540000Y-88900000D03*
G04 #@! TO.P,F3,4*
G04 #@! TO.N,Net-(F3-Pad4)*
X121920000Y-93980000D03*
G04 #@! TO.P,F3,8*
G04 #@! TO.N,VOUT1*
X129540000Y-86360000D03*
G04 #@! TD*
D12*
G04 #@! TO.P,F4,1*
G04 #@! TO.N,Net-(F4-Pad1)*
X121920000Y-96520000D03*
D13*
G04 #@! TO.P,F4,5*
G04 #@! TO.N,GND*
X129540000Y-104140000D03*
G04 #@! TO.P,F4,2*
G04 #@! TO.N,Net-(F4-Pad2)*
X121920000Y-99060000D03*
G04 #@! TO.P,F4,6*
G04 #@! TO.N,Net-(F4-Pad6)*
X129540000Y-101600000D03*
G04 #@! TO.P,F4,3*
G04 #@! TO.N,GNDA*
X121920000Y-101600000D03*
G04 #@! TO.P,F4,7*
G04 #@! TO.N,Net-(F4-Pad7)*
X129540000Y-99060000D03*
G04 #@! TO.P,F4,4*
G04 #@! TO.N,Net-(F4-Pad4)*
X121920000Y-104140000D03*
G04 #@! TO.P,F4,8*
G04 #@! TO.N,VOUT2*
X129540000Y-96520000D03*
G04 #@! TD*
D12*
G04 #@! TO.P,F5,1*
G04 #@! TO.N,Net-(F5-Pad1)*
X121920000Y-106680000D03*
D13*
G04 #@! TO.P,F5,5*
G04 #@! TO.N,GND*
X129540000Y-114300000D03*
G04 #@! TO.P,F5,2*
G04 #@! TO.N,Net-(F5-Pad2)*
X121920000Y-109220000D03*
G04 #@! TO.P,F5,6*
G04 #@! TO.N,Net-(F5-Pad6)*
X129540000Y-111760000D03*
G04 #@! TO.P,F5,3*
G04 #@! TO.N,GNDA*
X121920000Y-111760000D03*
G04 #@! TO.P,F5,7*
G04 #@! TO.N,Net-(F5-Pad7)*
X129540000Y-109220000D03*
G04 #@! TO.P,F5,4*
G04 #@! TO.N,Net-(F5-Pad4)*
X121920000Y-114300000D03*
G04 #@! TO.P,F5,8*
G04 #@! TO.N,VOUT2*
X129540000Y-106680000D03*
G04 #@! TD*
D12*
G04 #@! TO.P,F6,1*
G04 #@! TO.N,Net-(F6-Pad1)*
X121920000Y-116840000D03*
D13*
G04 #@! TO.P,F6,5*
G04 #@! TO.N,GND*
X129540000Y-124460000D03*
G04 #@! TO.P,F6,2*
G04 #@! TO.N,Net-(F6-Pad2)*
X121920000Y-119380000D03*
G04 #@! TO.P,F6,6*
G04 #@! TO.N,Net-(F6-Pad6)*
X129540000Y-121920000D03*
G04 #@! TO.P,F6,3*
G04 #@! TO.N,GNDA*
X121920000Y-121920000D03*
G04 #@! TO.P,F6,7*
G04 #@! TO.N,Net-(F6-Pad7)*
X129540000Y-119380000D03*
G04 #@! TO.P,F6,4*
G04 #@! TO.N,Net-(F6-Pad4)*
X121920000Y-124460000D03*
G04 #@! TO.P,F6,8*
G04 #@! TO.N,VOUT2*
X129540000Y-116840000D03*
G04 #@! TD*
D14*
G04 #@! TO.P,VNH5019,1*
G04 #@! TO.N,INA1*
X152400000Y-68580000D03*
D15*
G04 #@! TO.P,VNH5019,2*
G04 #@! TO.N,Net-(MD1-Pad2)*
X152400000Y-71120000D03*
G04 #@! TO.P,VNH5019,3*
G04 #@! TO.N,PWM1*
X152400000Y-73660000D03*
G04 #@! TO.P,VNH5019,4*
G04 #@! TO.N,CS_1*
X152400000Y-76200000D03*
G04 #@! TO.P,VNH5019,5*
G04 #@! TO.N,Net-(MD1-Pad5)*
X152400000Y-78740000D03*
G04 #@! TO.P,VNH5019,6*
G04 #@! TO.N,INB1*
X152400000Y-81280000D03*
G04 #@! TO.P,VNH5019,7*
G04 #@! TO.N,Net-(C7-Pad2)*
X152400000Y-83820000D03*
G04 #@! TO.P,VNH5019,8*
G04 #@! TO.N,GND*
X152400000Y-86360000D03*
G04 #@! TO.P,VNH5019,9*
G04 #@! TO.N,VOUT1*
X152400000Y-88900000D03*
G04 #@! TO.P,VNH5019,10*
G04 #@! TO.N,GND*
X152400000Y-91440000D03*
G04 #@! TD*
D14*
G04 #@! TO.P,VNH5019,1*
G04 #@! TO.N,INA2*
X152400000Y-99060000D03*
D15*
G04 #@! TO.P,VNH5019,2*
G04 #@! TO.N,Net-(MD2-Pad2)*
X152400000Y-101600000D03*
G04 #@! TO.P,VNH5019,3*
G04 #@! TO.N,PWM2*
X152400000Y-104140000D03*
G04 #@! TO.P,VNH5019,4*
G04 #@! TO.N,CS_2*
X152400000Y-106680000D03*
G04 #@! TO.P,VNH5019,5*
G04 #@! TO.N,Net-(MD2-Pad5)*
X152400000Y-109220000D03*
G04 #@! TO.P,VNH5019,6*
G04 #@! TO.N,INB2*
X152400000Y-111760000D03*
G04 #@! TO.P,VNH5019,7*
G04 #@! TO.N,Net-(C8-Pad2)*
X152400000Y-114300000D03*
G04 #@! TO.P,VNH5019,8*
G04 #@! TO.N,GND*
X152400000Y-116840000D03*
G04 #@! TO.P,VNH5019,9*
G04 #@! TO.N,VOUT2*
X152400000Y-119380000D03*
G04 #@! TO.P,VNH5019,10*
G04 #@! TO.N,GND*
X152400000Y-121920000D03*
G04 #@! TD*
D16*
G04 #@! TO.P,minibed,1*
G04 #@! TO.N,Net-(minibed1-Pad1)*
X166370000Y-68580000D03*
G04 #@! TO.P,minibed,2*
G04 #@! TO.N,+3V3*
X166370000Y-71120000D03*
G04 #@! TO.P,minibed,3*
G04 #@! TO.N,GNDA*
X166370000Y-73660000D03*
G04 #@! TO.P,minibed,4*
G04 #@! TO.N,Net-(minibed1-Pad4)*
X166370000Y-76200000D03*
G04 #@! TO.P,minibed,5*
G04 #@! TO.N,Net-(minibed1-Pad5)*
X166370000Y-78740000D03*
G04 #@! TO.P,minibed,6*
G04 #@! TO.N,Net-(minibed1-Pad6)*
X166370000Y-81280000D03*
G04 #@! TO.P,minibed,7*
G04 #@! TO.N,p24*
X166370000Y-83820000D03*
G04 #@! TO.P,minibed,8*
G04 #@! TO.N,p25*
X166370000Y-86360000D03*
G04 #@! TO.P,minibed,9*
G04 #@! TO.N,p0*
X166370000Y-88900000D03*
G04 #@! TO.P,minibed,10*
G04 #@! TO.N,p1*
X166370000Y-91440000D03*
G04 #@! TO.P,minibed,11*
G04 #@! TO.N,p2*
X166370000Y-93980000D03*
G04 #@! TO.P,minibed,12*
G04 #@! TO.N,p3*
X166370000Y-96520000D03*
G04 #@! TO.P,minibed,13*
G04 #@! TO.N,p5*
X166370000Y-99060000D03*
G04 #@! TO.P,minibed,14*
G04 #@! TO.N,p6*
X166370000Y-101600000D03*
G04 #@! TO.P,minibed,15*
G04 #@! TO.N,p7*
X166370000Y-104140000D03*
G04 #@! TO.P,minibed,16*
G04 #@! TO.N,p8*
X166370000Y-106680000D03*
G04 #@! TO.P,minibed,17*
G04 #@! TO.N,p9*
X166370000Y-109220000D03*
G04 #@! TO.P,minibed,18*
G04 #@! TO.N,C_H*
X184150000Y-109220000D03*
G04 #@! TO.P,minibed,19*
G04 #@! TO.N,C_L*
X184150000Y-106680000D03*
G04 #@! TO.P,minibed,20*
G04 #@! TO.N,Net-(minibed1-Pad20)*
X184150000Y-104140000D03*
G04 #@! TO.P,minibed,21*
G04 #@! TO.N,p10*
X184150000Y-101600000D03*
G04 #@! TO.P,minibed,22*
G04 #@! TO.N,p11*
X184150000Y-99060000D03*
G04 #@! TO.P,minibed,23*
G04 #@! TO.N,Net-(minibed1-Pad23)*
X184150000Y-96520000D03*
G04 #@! TO.P,minibed,24*
G04 #@! TO.N,Net-(minibed1-Pad24)*
X184150000Y-93980000D03*
G04 #@! TO.P,minibed,25*
G04 #@! TO.N,Net-(minibed1-Pad25)*
X184150000Y-91440000D03*
G04 #@! TO.P,minibed,26*
G04 #@! TO.N,p15*
X184150000Y-88900000D03*
G04 #@! TO.P,minibed,27*
G04 #@! TO.N,p17*
X184150000Y-86360000D03*
G04 #@! TO.P,minibed,28*
G04 #@! TO.N,p19*
X184150000Y-83820000D03*
G04 #@! TO.P,minibed,29*
G04 #@! TO.N,p20*
X184150000Y-81280000D03*
G04 #@! TO.P,minibed,30*
G04 #@! TO.N,Net-(minibed1-Pad30)*
X184150000Y-78740000D03*
G04 #@! TO.P,minibed,31*
G04 #@! TO.N,Net-(minibed1-Pad31)*
X184150000Y-76200000D03*
G04 #@! TO.P,minibed,32*
G04 #@! TO.N,Net-(minibed1-Pad32)*
X184150000Y-73660000D03*
G04 #@! TO.P,minibed,33*
G04 #@! TO.N,+5V*
X184150000Y-71120000D03*
G04 #@! TO.P,minibed,34*
G04 #@! TO.N,GNDA*
X184150000Y-68580000D03*
G04 #@! TD*
D17*
G04 #@! TO.P,+5V,1*
G04 #@! TO.N,+5V*
X199390000Y-73660000D03*
D18*
G04 #@! TO.P,+5V,2*
G04 #@! TO.N,GNDA*
X199390000Y-71160000D03*
G04 #@! TD*
D17*
G04 #@! TO.P,CAN,1*
G04 #@! TO.N,C_H*
X199390000Y-119380000D03*
D18*
G04 #@! TO.P,CAN,2*
G04 #@! TO.N,C_L*
X199390000Y-116880000D03*
G04 #@! TD*
D17*
G04 #@! TO.P,Potentio,1*
G04 #@! TO.N,+3V3*
X199390000Y-110490000D03*
D18*
G04 #@! TO.P,Potentio,2*
G04 #@! TO.N,p5*
X199390000Y-107990000D03*
G04 #@! TO.P,Potentio,3*
G04 #@! TO.N,GNDA*
X199390000Y-105490000D03*
G04 #@! TD*
D17*
G04 #@! TO.P,Encoder,1*
G04 #@! TO.N,+5V*
X199390000Y-87630000D03*
D18*
G04 #@! TO.P,Encoder,2*
G04 #@! TO.N,p19*
X199390000Y-85130000D03*
G04 #@! TO.P,Encoder,3*
G04 #@! TO.N,p20*
X199390000Y-82630000D03*
G04 #@! TO.P,Encoder,4*
G04 #@! TO.N,GNDA*
X199390000Y-80130000D03*
G04 #@! TD*
D12*
G04 #@! TO.P,DIP_SW,1*
G04 #@! TO.N,GNDA*
X179070000Y-128270000D03*
D13*
G04 #@! TO.P,DIP_SW,5*
G04 #@! TO.N,p1*
X186690000Y-120650000D03*
G04 #@! TO.P,DIP_SW,2*
G04 #@! TO.N,GNDA*
X181610000Y-128270000D03*
G04 #@! TO.P,DIP_SW,6*
G04 #@! TO.N,p2*
X184150000Y-120650000D03*
G04 #@! TO.P,DIP_SW,3*
G04 #@! TO.N,GNDA*
X184150000Y-128270000D03*
G04 #@! TO.P,DIP_SW,7*
G04 #@! TO.N,p3*
X181610000Y-120650000D03*
G04 #@! TO.P,DIP_SW,4*
G04 #@! TO.N,GNDA*
X186690000Y-128270000D03*
G04 #@! TO.P,DIP_SW,8*
G04 #@! TO.N,p6*
X179070000Y-120650000D03*
G04 #@! TD*
D17*
G04 #@! TO.P,+5V,1*
G04 #@! TO.N,+5V*
X191770000Y-67310000D03*
D18*
G04 #@! TO.P,+5V,2*
G04 #@! TO.N,GNDA*
X189270000Y-67310000D03*
G04 #@! TD*
D17*
G04 #@! TO.P,MD1_Input,1*
G04 #@! TO.N,p25*
X146685000Y-67310000D03*
D18*
G04 #@! TO.P,MD1_Input,2*
G04 #@! TO.N,p24*
X144185000Y-67310000D03*
G04 #@! TO.P,MD1_Input,3*
G04 #@! TO.N,p0*
X141685000Y-67310000D03*
G04 #@! TO.P,MD1_Input,4*
G04 #@! TO.N,GND*
X139185000Y-67310000D03*
G04 #@! TD*
D17*
G04 #@! TO.P,MD2_Input,1*
G04 #@! TO.N,p8*
X139065000Y-120650000D03*
D18*
G04 #@! TO.P,MD2_Input,2*
G04 #@! TO.N,p7*
X141565000Y-120650000D03*
G04 #@! TO.P,MD2_Input,3*
G04 #@! TO.N,p9*
X144065000Y-120650000D03*
G04 #@! TO.P,MD2_Input,4*
G04 #@! TO.N,GNDA*
X146565000Y-120650000D03*
G04 #@! TD*
D17*
G04 #@! TO.P,UART,1*
G04 #@! TO.N,p15*
X199390000Y-99060000D03*
D18*
G04 #@! TO.P,UART,2*
G04 #@! TO.N,p17*
X199390000Y-96560000D03*
G04 #@! TO.P,UART,3*
G04 #@! TO.N,GNDA*
X199390000Y-94060000D03*
G04 #@! TD*
D17*
G04 #@! TO.P,CS,1*
G04 #@! TO.N,CS_2*
X166370000Y-120650000D03*
D18*
G04 #@! TO.P,CS,2*
G04 #@! TO.N,CS_1*
X168870000Y-120650000D03*
G04 #@! TO.P,CS,3*
G04 #@! TO.N,GND*
X171370000Y-120650000D03*
G04 #@! TD*
D19*
G04 #@! TO.N,GND*
X154305000Y-120650000D03*
X154305000Y-118110000D03*
X147955000Y-80010000D03*
X154940000Y-80010000D03*
X154940000Y-68580000D03*
X130810000Y-120650000D03*
X130810000Y-123190000D03*
X135890000Y-72390000D03*
X132080000Y-72390000D03*
X133350000Y-110490000D03*
X130810000Y-90170000D03*
X130810000Y-93980000D03*
X130810000Y-100330000D03*
X130810000Y-104140000D03*
X135890000Y-116840000D03*
X135890000Y-119380000D03*
X130810000Y-85090000D03*
X130810000Y-112395000D03*
X130810000Y-80010000D03*
X130810000Y-82550000D03*
G04 #@! TO.N,VOUT1*
X132080000Y-76200000D03*
X147320000Y-76200000D03*
X132080000Y-85725000D03*
G04 #@! TO.N,VOUT2*
X132080000Y-106680000D03*
X147320000Y-106680000D03*
G04 #@! TO.N,Net-(C7-Pad2)*
X141605000Y-86995000D03*
G04 #@! TO.N,Net-(C8-Pad2)*
X138430000Y-107950000D03*
X138430000Y-110490000D03*
X142875000Y-117475000D03*
G04 #@! TO.N,GNDA*
X187325000Y-106680000D03*
X189865000Y-128270000D03*
X192405000Y-104140000D03*
X162560000Y-85725000D03*
X164465000Y-83820000D03*
X191770000Y-80010000D03*
X187960000Y-86360000D03*
X187960000Y-81280000D03*
G04 #@! TO.N,CS_2*
X160020000Y-109855000D03*
G04 #@! TO.N,INA1*
X135890000Y-90170000D03*
X149225000Y-82550000D03*
G04 #@! TO.N,PWM1*
X150495000Y-76200000D03*
X138430000Y-78105000D03*
G04 #@! TO.N,INB1*
X134620000Y-77470000D03*
G04 #@! TO.N,INA2*
X135890000Y-121920000D03*
X149225000Y-114300000D03*
G04 #@! TO.N,PWM2*
X135890000Y-111760000D03*
G04 #@! TO.N,INB2*
X136525000Y-101600000D03*
X150495000Y-103505000D03*
G04 #@! TO.N,+3V3*
X195580000Y-110490000D03*
X195580000Y-105410000D03*
G04 #@! TO.N,p24*
X160020000Y-77470000D03*
X144145000Y-70485000D03*
X158750000Y-74295000D03*
X125730000Y-71120000D03*
G04 #@! TO.N,p25*
X161290000Y-71755000D03*
X126365000Y-80010000D03*
G04 #@! TO.N,p0*
X157480000Y-77470000D03*
X156210000Y-74930000D03*
X142875000Y-71120000D03*
X127635000Y-68580000D03*
X127635000Y-72390000D03*
X127635000Y-90170000D03*
G04 #@! TO.N,p5*
X191770000Y-105410000D03*
G04 #@! TO.N,p7*
X160020000Y-114300000D03*
X157480000Y-110490000D03*
X124460000Y-103505000D03*
G04 #@! TO.N,p8*
X148336000Y-115570000D03*
X142494000Y-119126000D03*
X163195000Y-107950000D03*
X157480000Y-114300000D03*
X124460000Y-113665000D03*
G04 #@! TO.N,p9*
X163195000Y-112395000D03*
X144145000Y-126365000D03*
G04 #@! TO.N,+5V*
X196850000Y-81280000D03*
G04 #@! TD*
D20*
G04 #@! TO.N,GND*
X154305000Y-118110000D02*
X154305000Y-120650000D01*
X147955000Y-80010000D02*
X154940000Y-80010000D01*
X154940000Y-68580000D02*
X154940000Y-65405000D01*
X154940000Y-65405000D02*
X154940000Y-64770000D01*
X154940000Y-64770000D02*
X156210000Y-63500000D01*
X130810000Y-120650000D02*
X130810000Y-123190000D01*
X135890000Y-72390000D02*
X132080000Y-72390000D01*
X130810000Y-110490000D02*
X133350000Y-110490000D01*
X135890000Y-116840000D02*
X135890000Y-119380000D01*
X130810000Y-85090000D02*
X130810000Y-90170000D01*
X130810000Y-90170000D02*
X130810000Y-93980000D01*
X130810000Y-93980000D02*
X130810000Y-100330000D01*
X130810000Y-100330000D02*
X130810000Y-104140000D01*
X130810000Y-104140000D02*
X130810000Y-110490000D01*
X130810000Y-110490000D02*
X130810000Y-112395000D01*
X130810000Y-80010000D02*
X130810000Y-82550000D01*
G04 #@! TO.N,VOUT1*
X132080000Y-76200000D02*
X147320000Y-76200000D01*
X132080000Y-76200000D02*
X132080000Y-85090000D01*
X132080000Y-85090000D02*
X132080000Y-85725000D01*
G04 #@! TO.N,VOUT2*
X132080000Y-106680000D02*
X147320000Y-106680000D01*
G04 #@! TO.N,Net-(C7-Pad2)*
X141605000Y-86995000D02*
X147320000Y-86995000D01*
X147320000Y-86995000D02*
X150495000Y-83820000D01*
X150495000Y-83820000D02*
X152400000Y-83820000D01*
G04 #@! TO.N,Net-(C8-Pad2)*
X138430000Y-107950000D02*
X138430000Y-110490000D01*
X142875000Y-117475000D02*
X146050000Y-117475000D01*
X146050000Y-117475000D02*
X147320000Y-116205000D01*
X147320000Y-116205000D02*
X147320000Y-114300000D01*
X147320000Y-114300000D02*
X148590000Y-113030000D01*
X148590000Y-113030000D02*
X151130000Y-113030000D01*
X151130000Y-113030000D02*
X152400000Y-114300000D01*
G04 #@! TO.N,GNDA*
X187325000Y-106680000D02*
X187325000Y-116205000D01*
X189865000Y-118745000D02*
X189865000Y-128270000D01*
X187325000Y-116205000D02*
X189865000Y-118745000D01*
X199390000Y-105490000D02*
X198040000Y-104140000D01*
X198120000Y-104140000D02*
X198040000Y-104140000D01*
X192405000Y-104140000D02*
X198120000Y-104140000D01*
X164465000Y-83820000D02*
X162560000Y-85725000D01*
X191890000Y-80130000D02*
X199390000Y-80130000D01*
X191770000Y-80010000D02*
X191890000Y-80130000D01*
X187960000Y-81280000D02*
X187960000Y-86360000D01*
G04 #@! TO.N,CS_1*
X154940000Y-76200000D02*
X155575000Y-76835000D01*
X156210000Y-94615000D02*
X164465000Y-102870000D01*
X164465000Y-102870000D02*
X167640000Y-102870000D01*
X167640000Y-102870000D02*
X168870000Y-104100000D01*
X168870000Y-120650000D02*
X168870000Y-104100000D01*
X154940000Y-76200000D02*
X152400000Y-76200000D01*
X155575000Y-93980000D02*
X156210000Y-94615000D01*
X155575000Y-76835000D02*
X155575000Y-93980000D01*
G04 #@! TO.N,CS_2*
X152400000Y-106680000D02*
X156845000Y-106680000D01*
X156845000Y-106680000D02*
X160020000Y-109855000D01*
G04 #@! TO.N,INA1*
X135890000Y-90170000D02*
X143510000Y-82550000D01*
X143510000Y-82550000D02*
X149225000Y-82550000D01*
G04 #@! TO.N,PWM1*
X147320000Y-78105000D02*
X149860000Y-78105000D01*
X149860000Y-78105000D02*
X150495000Y-77470000D01*
X150495000Y-77470000D02*
X150495000Y-76200000D01*
X138430000Y-78105000D02*
X147320000Y-78105000D01*
G04 #@! TO.N,INB1*
X134620000Y-77470000D02*
X138430000Y-81280000D01*
X138430000Y-81280000D02*
X152400000Y-81280000D01*
G04 #@! TO.N,INA2*
X135890000Y-121920000D02*
X136525000Y-122555000D01*
X136525000Y-122555000D02*
X147320000Y-122555000D01*
X147320000Y-122555000D02*
X149225000Y-120650000D01*
X149225000Y-120650000D02*
X149225000Y-114300000D01*
G04 #@! TO.N,PWM2*
X135890000Y-111760000D02*
X143510000Y-111760000D01*
X143510000Y-111760000D02*
X151130000Y-104140000D01*
X151130000Y-104140000D02*
X152400000Y-104140000D01*
G04 #@! TO.N,INB2*
X136525000Y-101600000D02*
X147320000Y-101600000D01*
X147320000Y-101600000D02*
X148590000Y-101600000D01*
X148590000Y-101600000D02*
X150495000Y-103505000D01*
G04 #@! TO.N,+3V3*
X195580000Y-110490000D02*
X195580000Y-105410000D01*
G04 #@! TO.N,p24*
X166370000Y-83820000D02*
X160020000Y-77470000D01*
X144145000Y-70485000D02*
X146050000Y-72390000D01*
X146050000Y-72390000D02*
X156845000Y-72390000D01*
X156845000Y-72390000D02*
X158750000Y-74295000D01*
X127000000Y-64770000D02*
X125730000Y-66040000D01*
X125730000Y-66040000D02*
X125730000Y-71120000D01*
X127000000Y-64770000D02*
X128270000Y-63500000D01*
X128270000Y-63500000D02*
X141605000Y-63500000D01*
X141605000Y-63500000D02*
X144185000Y-66080000D01*
X144185000Y-66080000D02*
X144185000Y-67310000D01*
G04 #@! TO.N,p25*
X146685000Y-69850000D02*
X146050000Y-69215000D01*
X146050000Y-69215000D02*
X139065000Y-69215000D01*
X139065000Y-69215000D02*
X138430000Y-69850000D01*
X138430000Y-69850000D02*
X128270000Y-69850000D01*
X146685000Y-69850000D02*
X159385000Y-69850000D01*
X159385000Y-69850000D02*
X161290000Y-71755000D01*
X127000000Y-71120000D02*
X126365000Y-71755000D01*
X126365000Y-71755000D02*
X126365000Y-80010000D01*
X127000000Y-71120000D02*
X128270000Y-69850000D01*
X146685000Y-69850000D02*
X146685000Y-67310000D01*
G04 #@! TO.N,p0*
X157480000Y-77470000D02*
X157480000Y-84455000D01*
X157480000Y-84455000D02*
X161925000Y-88900000D01*
X161925000Y-88900000D02*
X166370000Y-88900000D01*
X148590000Y-74930000D02*
X156210000Y-74930000D01*
X142875000Y-71120000D02*
X146685000Y-74930000D01*
X146685000Y-74930000D02*
X148590000Y-74930000D01*
X141685000Y-67310000D02*
X141685000Y-66120000D01*
X141685000Y-66120000D02*
X140335000Y-64770000D01*
X140335000Y-64770000D02*
X128270000Y-64770000D01*
X128270000Y-64770000D02*
X127635000Y-65405000D01*
X127635000Y-65405000D02*
X127635000Y-68580000D01*
X127635000Y-72390000D02*
X127635000Y-90170000D01*
G04 #@! TO.N,p5*
X167640000Y-100330000D02*
X166370000Y-99060000D01*
X186690000Y-100330000D02*
X167640000Y-100330000D01*
X191770000Y-105410000D02*
X186690000Y-100330000D01*
G04 #@! TO.N,p7*
X163830000Y-110490000D02*
X164465000Y-109855000D01*
X160020000Y-114300000D02*
X163830000Y-110490000D01*
X164465000Y-106045000D02*
X166370000Y-104140000D01*
X164465000Y-109855000D02*
X164465000Y-106045000D01*
X138430000Y-113030000D02*
X146685000Y-113030000D01*
X149225000Y-110490000D02*
X157480000Y-110490000D01*
X146685000Y-113030000D02*
X149225000Y-110490000D01*
X141565000Y-120650000D02*
X141565000Y-116165000D01*
X141565000Y-116165000D02*
X138430000Y-113030000D01*
X138430000Y-113030000D02*
X127000000Y-113030000D01*
X127000000Y-113030000D02*
X124460000Y-110490000D01*
X124460000Y-110490000D02*
X124460000Y-103505000D01*
G04 #@! TO.N,p8*
X148336000Y-115570000D02*
X148336000Y-116332000D01*
X148336000Y-116332000D02*
X146304000Y-118364000D01*
X146304000Y-118364000D02*
X143256000Y-118364000D01*
X143256000Y-118364000D02*
X142494000Y-119126000D01*
X163195000Y-107950000D02*
X157480000Y-113665000D01*
X157480000Y-113665000D02*
X157480000Y-114300000D01*
X139065000Y-120650000D02*
X139065000Y-118745000D01*
X139065000Y-118745000D02*
X135890000Y-115570000D01*
X135890000Y-115570000D02*
X126365000Y-115570000D01*
X126365000Y-115570000D02*
X124460000Y-113665000D01*
G04 #@! TO.N,p9*
X163195000Y-112395000D02*
X166370000Y-109220000D01*
X163195000Y-123825000D02*
X163195000Y-112395000D01*
X144145000Y-126365000D02*
X160655000Y-126365000D01*
X160655000Y-126365000D02*
X163195000Y-123825000D01*
G04 #@! TO.N,+5V*
X197485000Y-87630000D02*
X199390000Y-87630000D01*
X196850000Y-86995000D02*
X197485000Y-87630000D01*
X196850000Y-81280000D02*
X196850000Y-86995000D01*
G04 #@! TD*
D21*
G04 #@! TO.N,GND*
G36*
X154178000Y-69090000D02*
X153897440Y-69090000D01*
X153897440Y-67730000D01*
X153848157Y-67482235D01*
X153707809Y-67272191D01*
X153497765Y-67131843D01*
X153250000Y-67082560D01*
X151550000Y-67082560D01*
X151302235Y-67131843D01*
X151092191Y-67272191D01*
X150951843Y-67482235D01*
X150902560Y-67730000D01*
X150902560Y-69090000D01*
X147445000Y-69090000D01*
X147445000Y-68832440D01*
X147560000Y-68832440D01*
X147807765Y-68783157D01*
X148017809Y-68642809D01*
X148158157Y-68432765D01*
X148207440Y-68185000D01*
X148207440Y-66435000D01*
X148158157Y-66187235D01*
X148017809Y-65977191D01*
X147807765Y-65836843D01*
X147560000Y-65787560D01*
X145810000Y-65787560D01*
X145562235Y-65836843D01*
X145352191Y-65977191D01*
X145211843Y-66187235D01*
X145209496Y-66199034D01*
X145040346Y-66029884D01*
X144941801Y-65989065D01*
X144900904Y-65783463D01*
X144732929Y-65532071D01*
X144669473Y-65489671D01*
X142195331Y-63015530D01*
X142152929Y-62952071D01*
X141901537Y-62784096D01*
X141679852Y-62740000D01*
X141679847Y-62740000D01*
X141605000Y-62725112D01*
X141530153Y-62740000D01*
X128344846Y-62740000D01*
X128269999Y-62725112D01*
X128195152Y-62740000D01*
X128195148Y-62740000D01*
X127973463Y-62784096D01*
X127722071Y-62952071D01*
X127679671Y-63015527D01*
X126515530Y-64179669D01*
X126515527Y-64179671D01*
X125245530Y-65449669D01*
X125182071Y-65492071D01*
X125014096Y-65743464D01*
X124970000Y-65965149D01*
X124970000Y-65965153D01*
X124955112Y-66040000D01*
X124970000Y-66114847D01*
X124970001Y-70557709D01*
X124937345Y-70590365D01*
X124795000Y-70934017D01*
X124795000Y-71305983D01*
X124937345Y-71649635D01*
X125200365Y-71912655D01*
X125544017Y-72055000D01*
X125605000Y-72055000D01*
X125605001Y-79447709D01*
X125572345Y-79480365D01*
X125430000Y-79824017D01*
X125430000Y-80195983D01*
X125572345Y-80539635D01*
X125835365Y-80802655D01*
X126179017Y-80945000D01*
X126550983Y-80945000D01*
X126875000Y-80810788D01*
X126875001Y-89607709D01*
X126842345Y-89640365D01*
X126700000Y-89984017D01*
X126700000Y-90355983D01*
X126842345Y-90699635D01*
X127105365Y-90962655D01*
X127449017Y-91105000D01*
X127820983Y-91105000D01*
X128164635Y-90962655D01*
X128173625Y-90953665D01*
X128076887Y-91440000D01*
X128188260Y-91999909D01*
X128505423Y-92474577D01*
X128889108Y-92730947D01*
X128684866Y-92827611D01*
X128308959Y-93242577D01*
X128148096Y-93630961D01*
X128270085Y-93853000D01*
X129413000Y-93853000D01*
X129413000Y-93833000D01*
X129667000Y-93833000D01*
X129667000Y-93853000D01*
X130809915Y-93853000D01*
X130931904Y-93630961D01*
X130771041Y-93242577D01*
X130395134Y-92827611D01*
X130190892Y-92730947D01*
X130574577Y-92474577D01*
X130891740Y-91999909D01*
X130932123Y-91796890D01*
X150958524Y-91796890D01*
X151128355Y-92206924D01*
X151518642Y-92635183D01*
X152043108Y-92881486D01*
X152273000Y-92760819D01*
X152273000Y-91567000D01*
X152527000Y-91567000D01*
X152527000Y-92760819D01*
X152756892Y-92881486D01*
X153281358Y-92635183D01*
X153671645Y-92206924D01*
X153841476Y-91796890D01*
X153720155Y-91567000D01*
X152527000Y-91567000D01*
X152273000Y-91567000D01*
X151079845Y-91567000D01*
X150958524Y-91796890D01*
X130932123Y-91796890D01*
X131003113Y-91440000D01*
X130891740Y-90880091D01*
X130574577Y-90405423D01*
X130222242Y-90170000D01*
X130574577Y-89934577D01*
X130891740Y-89459909D01*
X131003113Y-88900000D01*
X130891740Y-88340091D01*
X130574577Y-87865423D01*
X130222242Y-87630000D01*
X130574577Y-87394577D01*
X130891740Y-86919909D01*
X131003113Y-86360000D01*
X130891740Y-85800091D01*
X130574577Y-85325423D01*
X130190892Y-85069053D01*
X130395134Y-84972389D01*
X130771041Y-84557423D01*
X130931904Y-84169039D01*
X130809915Y-83947000D01*
X129667000Y-83947000D01*
X129667000Y-83967000D01*
X129413000Y-83967000D01*
X129413000Y-83947000D01*
X129393000Y-83947000D01*
X129393000Y-83693000D01*
X129413000Y-83693000D01*
X129413000Y-83673000D01*
X129667000Y-83673000D01*
X129667000Y-83693000D01*
X130809915Y-83693000D01*
X130931904Y-83470961D01*
X130771041Y-83082577D01*
X130395134Y-82667611D01*
X130190892Y-82570947D01*
X130574577Y-82314577D01*
X130891740Y-81839909D01*
X131003113Y-81280000D01*
X130891740Y-80720091D01*
X130574577Y-80245423D01*
X130222242Y-80010000D01*
X130574577Y-79774577D01*
X130891740Y-79299909D01*
X131003113Y-78740000D01*
X130891740Y-78180091D01*
X130574577Y-77705423D01*
X130222242Y-77470000D01*
X130574577Y-77234577D01*
X130891740Y-76759909D01*
X131003113Y-76200000D01*
X130891740Y-75640091D01*
X130574577Y-75165423D01*
X130190892Y-74909053D01*
X130395134Y-74812389D01*
X130771041Y-74397423D01*
X130931904Y-74009039D01*
X130809915Y-73787000D01*
X129667000Y-73787000D01*
X129667000Y-73807000D01*
X129413000Y-73807000D01*
X129413000Y-73787000D01*
X129393000Y-73787000D01*
X129393000Y-73533000D01*
X129413000Y-73533000D01*
X129413000Y-73513000D01*
X129667000Y-73513000D01*
X129667000Y-73533000D01*
X130809915Y-73533000D01*
X130931904Y-73310961D01*
X130771041Y-72922577D01*
X130395134Y-72507611D01*
X130190892Y-72410947D01*
X130574577Y-72154577D01*
X130891740Y-71679909D01*
X131003113Y-71120000D01*
X130901668Y-70610000D01*
X138355153Y-70610000D01*
X138430000Y-70624888D01*
X138504847Y-70610000D01*
X138504852Y-70610000D01*
X138726537Y-70565904D01*
X138977929Y-70397929D01*
X139020331Y-70334470D01*
X139379802Y-69975000D01*
X143344212Y-69975000D01*
X143228488Y-70254383D01*
X143060983Y-70185000D01*
X142689017Y-70185000D01*
X142345365Y-70327345D01*
X142082345Y-70590365D01*
X141940000Y-70934017D01*
X141940000Y-71305983D01*
X142082345Y-71649635D01*
X142345365Y-71912655D01*
X142689017Y-72055000D01*
X142735199Y-72055000D01*
X146094671Y-75414473D01*
X146111728Y-75440000D01*
X132642290Y-75440000D01*
X132609635Y-75407345D01*
X132265983Y-75265000D01*
X131894017Y-75265000D01*
X131550365Y-75407345D01*
X131287345Y-75670365D01*
X131145000Y-76014017D01*
X131145000Y-76385983D01*
X131287345Y-76729635D01*
X131320000Y-76762290D01*
X131320001Y-85015144D01*
X131320000Y-85015149D01*
X131320000Y-85162710D01*
X131287345Y-85195365D01*
X131145000Y-85539017D01*
X131145000Y-85910983D01*
X131287345Y-86254635D01*
X131550365Y-86517655D01*
X131894017Y-86660000D01*
X132265983Y-86660000D01*
X132609635Y-86517655D01*
X132872655Y-86254635D01*
X133015000Y-85910983D01*
X133015000Y-85539017D01*
X132872655Y-85195365D01*
X132840000Y-85162710D01*
X132840000Y-76960000D01*
X133819212Y-76960000D01*
X133685000Y-77284017D01*
X133685000Y-77655983D01*
X133827345Y-77999635D01*
X134090365Y-78262655D01*
X134434017Y-78405000D01*
X134480199Y-78405000D01*
X137839671Y-81764473D01*
X137882071Y-81827929D01*
X137945527Y-81870329D01*
X138133462Y-81995904D01*
X138181605Y-82005480D01*
X138355148Y-82040000D01*
X138355152Y-82040000D01*
X138430000Y-82054888D01*
X138504848Y-82040000D01*
X142936728Y-82040000D01*
X142919673Y-82065524D01*
X135750199Y-89235000D01*
X135704017Y-89235000D01*
X135360365Y-89377345D01*
X135097345Y-89640365D01*
X134955000Y-89984017D01*
X134955000Y-90355983D01*
X135097345Y-90699635D01*
X135360365Y-90962655D01*
X135704017Y-91105000D01*
X136075983Y-91105000D01*
X136419635Y-90962655D01*
X136682655Y-90699635D01*
X136825000Y-90355983D01*
X136825000Y-90309801D01*
X138234801Y-88900000D01*
X150885908Y-88900000D01*
X151001161Y-89479418D01*
X151329375Y-89970625D01*
X151648478Y-90183843D01*
X151518642Y-90244817D01*
X151128355Y-90673076D01*
X150958524Y-91083110D01*
X151079845Y-91313000D01*
X152273000Y-91313000D01*
X152273000Y-91293000D01*
X152527000Y-91293000D01*
X152527000Y-91313000D01*
X153720155Y-91313000D01*
X153841476Y-91083110D01*
X153671645Y-90673076D01*
X153281358Y-90244817D01*
X153151522Y-90183843D01*
X153470625Y-89970625D01*
X153798839Y-89479418D01*
X153914092Y-88900000D01*
X153798839Y-88320582D01*
X153470625Y-87829375D01*
X153151522Y-87616157D01*
X153281358Y-87555183D01*
X153671645Y-87126924D01*
X153841476Y-86716890D01*
X153720155Y-86487000D01*
X152527000Y-86487000D01*
X152527000Y-86507000D01*
X152273000Y-86507000D01*
X152273000Y-86487000D01*
X151079845Y-86487000D01*
X150958524Y-86716890D01*
X151128355Y-87126924D01*
X151518642Y-87555183D01*
X151648478Y-87616157D01*
X151329375Y-87829375D01*
X151001161Y-88320582D01*
X150885908Y-88900000D01*
X138234801Y-88900000D01*
X143824803Y-83310000D01*
X148662710Y-83310000D01*
X148695365Y-83342655D01*
X149039017Y-83485000D01*
X149410983Y-83485000D01*
X149754635Y-83342655D01*
X150017655Y-83079635D01*
X150160000Y-82735983D01*
X150160000Y-82364017D01*
X150025788Y-82040000D01*
X151121822Y-82040000D01*
X151329375Y-82350625D01*
X151627761Y-82550000D01*
X151329375Y-82749375D01*
X151121822Y-83060000D01*
X150569846Y-83060000D01*
X150494999Y-83045112D01*
X150420152Y-83060000D01*
X150420148Y-83060000D01*
X150198463Y-83104096D01*
X149947071Y-83272071D01*
X149904671Y-83335527D01*
X147005199Y-86235000D01*
X142167290Y-86235000D01*
X142134635Y-86202345D01*
X141790983Y-86060000D01*
X141419017Y-86060000D01*
X141075365Y-86202345D01*
X140812345Y-86465365D01*
X140670000Y-86809017D01*
X140670000Y-87180983D01*
X140812345Y-87524635D01*
X141075365Y-87787655D01*
X141419017Y-87930000D01*
X141790983Y-87930000D01*
X142134635Y-87787655D01*
X142167290Y-87755000D01*
X147245153Y-87755000D01*
X147320000Y-87769888D01*
X147394847Y-87755000D01*
X147394852Y-87755000D01*
X147616537Y-87710904D01*
X147867929Y-87542929D01*
X147910331Y-87479470D01*
X150809802Y-84580000D01*
X151121822Y-84580000D01*
X151329375Y-84890625D01*
X151648478Y-85103843D01*
X151518642Y-85164817D01*
X151128355Y-85593076D01*
X150958524Y-86003110D01*
X151079845Y-86233000D01*
X152273000Y-86233000D01*
X152273000Y-86213000D01*
X152527000Y-86213000D01*
X152527000Y-86233000D01*
X153720155Y-86233000D01*
X153841476Y-86003110D01*
X153671645Y-85593076D01*
X153281358Y-85164817D01*
X153151522Y-85103843D01*
X153470625Y-84890625D01*
X153798839Y-84399418D01*
X153914092Y-83820000D01*
X153798839Y-83240582D01*
X153470625Y-82749375D01*
X153172239Y-82550000D01*
X153470625Y-82350625D01*
X153798839Y-81859418D01*
X153914092Y-81280000D01*
X153798839Y-80700582D01*
X153470625Y-80209375D01*
X153172239Y-80010000D01*
X153470625Y-79810625D01*
X153798839Y-79319418D01*
X153914092Y-78740000D01*
X153798839Y-78160582D01*
X153470625Y-77669375D01*
X153172239Y-77470000D01*
X153470625Y-77270625D01*
X153678178Y-76960000D01*
X154178000Y-76960000D01*
X154178000Y-105920000D01*
X153678178Y-105920000D01*
X153470625Y-105609375D01*
X153172239Y-105410000D01*
X153470625Y-105210625D01*
X153798839Y-104719418D01*
X153914092Y-104140000D01*
X153798839Y-103560582D01*
X153470625Y-103069375D01*
X153172239Y-102870000D01*
X153470625Y-102670625D01*
X153798839Y-102179418D01*
X153914092Y-101600000D01*
X153798839Y-101020582D01*
X153470625Y-100529375D01*
X153452381Y-100517184D01*
X153497765Y-100508157D01*
X153707809Y-100367809D01*
X153848157Y-100157765D01*
X153897440Y-99910000D01*
X153897440Y-98210000D01*
X153848157Y-97962235D01*
X153707809Y-97752191D01*
X153497765Y-97611843D01*
X153250000Y-97562560D01*
X151550000Y-97562560D01*
X151302235Y-97611843D01*
X151092191Y-97752191D01*
X150951843Y-97962235D01*
X150902560Y-98210000D01*
X150902560Y-99910000D01*
X150951843Y-100157765D01*
X151092191Y-100367809D01*
X151302235Y-100508157D01*
X151347619Y-100517184D01*
X151329375Y-100529375D01*
X151001161Y-101020582D01*
X150885908Y-101600000D01*
X151001161Y-102179418D01*
X151329375Y-102670625D01*
X151627761Y-102870000D01*
X151329375Y-103069375D01*
X151327659Y-103071943D01*
X151287655Y-102975365D01*
X151024635Y-102712345D01*
X150680983Y-102570000D01*
X150634802Y-102570000D01*
X149180331Y-101115530D01*
X149137929Y-101052071D01*
X148886537Y-100884096D01*
X148664852Y-100840000D01*
X148664847Y-100840000D01*
X148590000Y-100825112D01*
X148515153Y-100840000D01*
X137087290Y-100840000D01*
X137054635Y-100807345D01*
X136710983Y-100665000D01*
X136339017Y-100665000D01*
X135995365Y-100807345D01*
X135732345Y-101070365D01*
X135590000Y-101414017D01*
X135590000Y-101785983D01*
X135732345Y-102129635D01*
X135995365Y-102392655D01*
X136339017Y-102535000D01*
X136710983Y-102535000D01*
X137054635Y-102392655D01*
X137087290Y-102360000D01*
X148275199Y-102360000D01*
X149560000Y-103644802D01*
X149560000Y-103690983D01*
X149702345Y-104034635D01*
X149931454Y-104263744D01*
X148078744Y-106116454D01*
X147849635Y-105887345D01*
X147505983Y-105745000D01*
X147134017Y-105745000D01*
X146790365Y-105887345D01*
X146757710Y-105920000D01*
X132642290Y-105920000D01*
X132609635Y-105887345D01*
X132265983Y-105745000D01*
X131894017Y-105745000D01*
X131550365Y-105887345D01*
X131287345Y-106150365D01*
X131145000Y-106494017D01*
X131145000Y-106865983D01*
X131287345Y-107209635D01*
X131550365Y-107472655D01*
X131894017Y-107615000D01*
X132265983Y-107615000D01*
X132609635Y-107472655D01*
X132642290Y-107440000D01*
X137629212Y-107440000D01*
X137495000Y-107764017D01*
X137495000Y-108135983D01*
X137637345Y-108479635D01*
X137670000Y-108512290D01*
X137670001Y-109927709D01*
X137637345Y-109960365D01*
X137495000Y-110304017D01*
X137495000Y-110675983D01*
X137629212Y-111000000D01*
X136452290Y-111000000D01*
X136419635Y-110967345D01*
X136075983Y-110825000D01*
X135704017Y-110825000D01*
X135360365Y-110967345D01*
X135097345Y-111230365D01*
X134955000Y-111574017D01*
X134955000Y-111945983D01*
X135089212Y-112270000D01*
X130901668Y-112270000D01*
X131003113Y-111760000D01*
X130891740Y-111200091D01*
X130574577Y-110725423D01*
X130222242Y-110490000D01*
X130574577Y-110254577D01*
X130891740Y-109779909D01*
X131003113Y-109220000D01*
X130891740Y-108660091D01*
X130574577Y-108185423D01*
X130222242Y-107950000D01*
X130574577Y-107714577D01*
X130891740Y-107239909D01*
X131003113Y-106680000D01*
X130891740Y-106120091D01*
X130574577Y-105645423D01*
X130190892Y-105389053D01*
X130395134Y-105292389D01*
X130771041Y-104877423D01*
X130931904Y-104489039D01*
X130809915Y-104267000D01*
X129667000Y-104267000D01*
X129667000Y-104287000D01*
X129413000Y-104287000D01*
X129413000Y-104267000D01*
X128270085Y-104267000D01*
X128148096Y-104489039D01*
X128308959Y-104877423D01*
X128684866Y-105292389D01*
X128889108Y-105389053D01*
X128505423Y-105645423D01*
X128188260Y-106120091D01*
X128076887Y-106680000D01*
X128188260Y-107239909D01*
X128505423Y-107714577D01*
X128857758Y-107950000D01*
X128505423Y-108185423D01*
X128188260Y-108660091D01*
X128076887Y-109220000D01*
X128188260Y-109779909D01*
X128505423Y-110254577D01*
X128857758Y-110490000D01*
X128505423Y-110725423D01*
X128188260Y-111200091D01*
X128076887Y-111760000D01*
X128178332Y-112270000D01*
X127314803Y-112270000D01*
X125220000Y-110175199D01*
X125220000Y-104067290D01*
X125252655Y-104034635D01*
X125395000Y-103690983D01*
X125395000Y-103319017D01*
X125252655Y-102975365D01*
X124989635Y-102712345D01*
X124645983Y-102570000D01*
X124274017Y-102570000D01*
X123930365Y-102712345D01*
X123667345Y-102975365D01*
X123525000Y-103319017D01*
X123525000Y-103690983D01*
X123667345Y-104034635D01*
X123700001Y-104067291D01*
X123700000Y-110415153D01*
X123685112Y-110490000D01*
X123700000Y-110564847D01*
X123700000Y-110564851D01*
X123744096Y-110786536D01*
X123912071Y-111037929D01*
X123975530Y-111080331D01*
X126409673Y-113514476D01*
X126452071Y-113577929D01*
X126515524Y-113620327D01*
X126515526Y-113620329D01*
X126640902Y-113704102D01*
X126703463Y-113745904D01*
X126925148Y-113790000D01*
X126925152Y-113790000D01*
X126999999Y-113804888D01*
X127074846Y-113790000D01*
X128214764Y-113790000D01*
X128148096Y-113950961D01*
X128270085Y-114173000D01*
X129413000Y-114173000D01*
X129413000Y-114153000D01*
X129667000Y-114153000D01*
X129667000Y-114173000D01*
X130809915Y-114173000D01*
X130931904Y-113950961D01*
X130865236Y-113790000D01*
X138115199Y-113790000D01*
X140805001Y-116479803D01*
X140805000Y-119330390D01*
X140709654Y-119369884D01*
X140540504Y-119539034D01*
X140538157Y-119527235D01*
X140397809Y-119317191D01*
X140187765Y-119176843D01*
X139940000Y-119127560D01*
X139825000Y-119127560D01*
X139825000Y-118819846D01*
X139839888Y-118744999D01*
X139825000Y-118670152D01*
X139825000Y-118670148D01*
X139780904Y-118448463D01*
X139612929Y-118197071D01*
X139549473Y-118154671D01*
X136480331Y-115085530D01*
X136437929Y-115022071D01*
X136186537Y-114854096D01*
X135964852Y-114810000D01*
X135964847Y-114810000D01*
X135890000Y-114795112D01*
X135815153Y-114810000D01*
X130865236Y-114810000D01*
X130931904Y-114649039D01*
X130809915Y-114427000D01*
X129667000Y-114427000D01*
X129667000Y-114447000D01*
X129413000Y-114447000D01*
X129413000Y-114427000D01*
X128270085Y-114427000D01*
X128148096Y-114649039D01*
X128214764Y-114810000D01*
X126679802Y-114810000D01*
X125395000Y-113525199D01*
X125395000Y-113479017D01*
X125252655Y-113135365D01*
X124989635Y-112872345D01*
X124645983Y-112730000D01*
X124274017Y-112730000D01*
X123930365Y-112872345D01*
X123667345Y-113135365D01*
X123525000Y-113479017D01*
X123525000Y-113850983D01*
X123667345Y-114194635D01*
X123930365Y-114457655D01*
X124274017Y-114600000D01*
X124320199Y-114600000D01*
X125774670Y-116054472D01*
X125817071Y-116117929D01*
X125880527Y-116160329D01*
X126068462Y-116285904D01*
X126116605Y-116295480D01*
X126290148Y-116330000D01*
X126290152Y-116330000D01*
X126365000Y-116344888D01*
X126439848Y-116330000D01*
X128178332Y-116330000D01*
X128076887Y-116840000D01*
X128188260Y-117399909D01*
X128505423Y-117874577D01*
X128857758Y-118110000D01*
X128505423Y-118345423D01*
X128188260Y-118820091D01*
X128076887Y-119380000D01*
X128188260Y-119939909D01*
X128505423Y-120414577D01*
X128857758Y-120650000D01*
X128505423Y-120885423D01*
X128188260Y-121360091D01*
X128076887Y-121920000D01*
X128188260Y-122479909D01*
X128505423Y-122954577D01*
X128889108Y-123210947D01*
X128684866Y-123307611D01*
X128308959Y-123722577D01*
X128148096Y-124110961D01*
X128270085Y-124333000D01*
X129413000Y-124333000D01*
X129413000Y-124313000D01*
X129667000Y-124313000D01*
X129667000Y-124333000D01*
X130809915Y-124333000D01*
X130931904Y-124110961D01*
X130771041Y-123722577D01*
X130395134Y-123307611D01*
X130190892Y-123210947D01*
X130574577Y-122954577D01*
X130891740Y-122479909D01*
X131003113Y-121920000D01*
X130891740Y-121360091D01*
X130574577Y-120885423D01*
X130222242Y-120650000D01*
X130574577Y-120414577D01*
X130891740Y-119939909D01*
X131003113Y-119380000D01*
X130891740Y-118820091D01*
X130574577Y-118345423D01*
X130222242Y-118110000D01*
X130574577Y-117874577D01*
X130891740Y-117399909D01*
X131003113Y-116840000D01*
X130901668Y-116330000D01*
X135575199Y-116330000D01*
X138305001Y-119059803D01*
X138305001Y-119127560D01*
X138190000Y-119127560D01*
X137942235Y-119176843D01*
X137732191Y-119317191D01*
X137591843Y-119527235D01*
X137542560Y-119775000D01*
X137542560Y-121525000D01*
X137591843Y-121772765D01*
X137606700Y-121795000D01*
X136839802Y-121795000D01*
X136825000Y-121780198D01*
X136825000Y-121734017D01*
X136682655Y-121390365D01*
X136419635Y-121127345D01*
X136075983Y-120985000D01*
X135704017Y-120985000D01*
X135360365Y-121127345D01*
X135097345Y-121390365D01*
X134955000Y-121734017D01*
X134955000Y-122105983D01*
X135097345Y-122449635D01*
X135360365Y-122712655D01*
X135704017Y-122855000D01*
X135750198Y-122855000D01*
X135934671Y-123039473D01*
X135977071Y-123102929D01*
X136228463Y-123270904D01*
X136450148Y-123315000D01*
X136450152Y-123315000D01*
X136525000Y-123329888D01*
X136599848Y-123315000D01*
X147245153Y-123315000D01*
X147320000Y-123329888D01*
X147394847Y-123315000D01*
X147394852Y-123315000D01*
X147616537Y-123270904D01*
X147867929Y-123102929D01*
X147910331Y-123039470D01*
X148672911Y-122276890D01*
X150958524Y-122276890D01*
X151128355Y-122686924D01*
X151518642Y-123115183D01*
X152043108Y-123361486D01*
X152273000Y-123240819D01*
X152273000Y-122047000D01*
X152527000Y-122047000D01*
X152527000Y-123240819D01*
X152756892Y-123361486D01*
X153281358Y-123115183D01*
X153671645Y-122686924D01*
X153841476Y-122276890D01*
X153720155Y-122047000D01*
X152527000Y-122047000D01*
X152273000Y-122047000D01*
X151079845Y-122047000D01*
X150958524Y-122276890D01*
X148672911Y-122276890D01*
X149709473Y-121240329D01*
X149772929Y-121197929D01*
X149915204Y-120985000D01*
X149940904Y-120946538D01*
X149974261Y-120778839D01*
X149985000Y-120724852D01*
X149985000Y-120724848D01*
X149999888Y-120650000D01*
X149985000Y-120575152D01*
X149985000Y-119380000D01*
X150885908Y-119380000D01*
X151001161Y-119959418D01*
X151329375Y-120450625D01*
X151648478Y-120663843D01*
X151518642Y-120724817D01*
X151128355Y-121153076D01*
X150958524Y-121563110D01*
X151079845Y-121793000D01*
X152273000Y-121793000D01*
X152273000Y-121773000D01*
X152527000Y-121773000D01*
X152527000Y-121793000D01*
X153720155Y-121793000D01*
X153841476Y-121563110D01*
X153671645Y-121153076D01*
X153281358Y-120724817D01*
X153151522Y-120663843D01*
X153470625Y-120450625D01*
X153798839Y-119959418D01*
X153914092Y-119380000D01*
X153798839Y-118800582D01*
X153470625Y-118309375D01*
X153151522Y-118096157D01*
X153281358Y-118035183D01*
X153671645Y-117606924D01*
X153841476Y-117196890D01*
X153720155Y-116967000D01*
X152527000Y-116967000D01*
X152527000Y-116987000D01*
X152273000Y-116987000D01*
X152273000Y-116967000D01*
X151079845Y-116967000D01*
X150958524Y-117196890D01*
X151128355Y-117606924D01*
X151518642Y-118035183D01*
X151648478Y-118096157D01*
X151329375Y-118309375D01*
X151001161Y-118800582D01*
X150885908Y-119380000D01*
X149985000Y-119380000D01*
X149985000Y-114862290D01*
X150017655Y-114829635D01*
X150160000Y-114485983D01*
X150160000Y-114114017D01*
X150025788Y-113790000D01*
X150815199Y-113790000D01*
X150958791Y-113933592D01*
X150885908Y-114300000D01*
X151001161Y-114879418D01*
X151329375Y-115370625D01*
X151648478Y-115583843D01*
X151518642Y-115644817D01*
X151128355Y-116073076D01*
X150958524Y-116483110D01*
X151079845Y-116713000D01*
X152273000Y-116713000D01*
X152273000Y-116693000D01*
X152527000Y-116693000D01*
X152527000Y-116713000D01*
X153720155Y-116713000D01*
X153841476Y-116483110D01*
X153671645Y-116073076D01*
X153281358Y-115644817D01*
X153151522Y-115583843D01*
X153470625Y-115370625D01*
X153798839Y-114879418D01*
X153914092Y-114300000D01*
X153798839Y-113720582D01*
X153470625Y-113229375D01*
X153172239Y-113030000D01*
X153470625Y-112830625D01*
X153798839Y-112339418D01*
X153914092Y-111760000D01*
X153812647Y-111250000D01*
X154178000Y-111250000D01*
X154178000Y-125605000D01*
X144707290Y-125605000D01*
X144674635Y-125572345D01*
X144330983Y-125430000D01*
X143959017Y-125430000D01*
X143615365Y-125572345D01*
X143352345Y-125835365D01*
X143210000Y-126179017D01*
X143210000Y-126550983D01*
X143352345Y-126894635D01*
X143615365Y-127157655D01*
X143959017Y-127300000D01*
X144330983Y-127300000D01*
X144674635Y-127157655D01*
X144707290Y-127125000D01*
X154178000Y-127125000D01*
X154178000Y-130048000D01*
X113792000Y-130048000D01*
X113792000Y-126555431D01*
X114605000Y-126555431D01*
X114605000Y-127444569D01*
X114945259Y-128266026D01*
X115573974Y-128894741D01*
X116395431Y-129235000D01*
X117284569Y-129235000D01*
X118106026Y-128894741D01*
X118734741Y-128266026D01*
X119075000Y-127444569D01*
X119075000Y-126555431D01*
X118734741Y-125733974D01*
X118106026Y-125105259D01*
X117284569Y-124765000D01*
X116395431Y-124765000D01*
X115573974Y-125105259D01*
X114945259Y-125733974D01*
X114605000Y-126555431D01*
X113792000Y-126555431D01*
X113792000Y-98714887D01*
X116375000Y-98714887D01*
X116375000Y-99405113D01*
X116639138Y-100042799D01*
X117127201Y-100530862D01*
X117764887Y-100795000D01*
X118455113Y-100795000D01*
X119092799Y-100530862D01*
X119580862Y-100042799D01*
X119845000Y-99405113D01*
X119845000Y-98714887D01*
X119580862Y-98077201D01*
X119092799Y-97589138D01*
X118455113Y-97325000D01*
X117764887Y-97325000D01*
X117127201Y-97589138D01*
X116639138Y-98077201D01*
X116375000Y-98714887D01*
X113792000Y-98714887D01*
X113792000Y-68234887D01*
X116375000Y-68234887D01*
X116375000Y-68925113D01*
X116639138Y-69562799D01*
X117127201Y-70050862D01*
X117764887Y-70315000D01*
X118455113Y-70315000D01*
X119092799Y-70050862D01*
X119580862Y-69562799D01*
X119845000Y-68925113D01*
X119845000Y-68580000D01*
X120456887Y-68580000D01*
X120568260Y-69139909D01*
X120885423Y-69614577D01*
X121237758Y-69850000D01*
X120885423Y-70085423D01*
X120568260Y-70560091D01*
X120456887Y-71120000D01*
X120568260Y-71679909D01*
X120885423Y-72154577D01*
X121237758Y-72390000D01*
X120885423Y-72625423D01*
X120568260Y-73100091D01*
X120456887Y-73660000D01*
X120568260Y-74219909D01*
X120885423Y-74694577D01*
X121006106Y-74775215D01*
X120872235Y-74801843D01*
X120662191Y-74942191D01*
X120521843Y-75152235D01*
X120472560Y-75400000D01*
X120472560Y-77000000D01*
X120521843Y-77247765D01*
X120662191Y-77457809D01*
X120872235Y-77598157D01*
X121006106Y-77624785D01*
X120885423Y-77705423D01*
X120568260Y-78180091D01*
X120456887Y-78740000D01*
X120568260Y-79299909D01*
X120885423Y-79774577D01*
X121237758Y-80010000D01*
X120885423Y-80245423D01*
X120568260Y-80720091D01*
X120456887Y-81280000D01*
X120568260Y-81839909D01*
X120885423Y-82314577D01*
X121237758Y-82550000D01*
X120885423Y-82785423D01*
X120568260Y-83260091D01*
X120456887Y-83820000D01*
X120568260Y-84379909D01*
X120885423Y-84854577D01*
X121006106Y-84935215D01*
X120872235Y-84961843D01*
X120662191Y-85102191D01*
X120521843Y-85312235D01*
X120472560Y-85560000D01*
X120472560Y-87160000D01*
X120521843Y-87407765D01*
X120662191Y-87617809D01*
X120872235Y-87758157D01*
X121006106Y-87784785D01*
X120885423Y-87865423D01*
X120568260Y-88340091D01*
X120456887Y-88900000D01*
X120568260Y-89459909D01*
X120885423Y-89934577D01*
X121237758Y-90170000D01*
X120885423Y-90405423D01*
X120568260Y-90880091D01*
X120456887Y-91440000D01*
X120568260Y-91999909D01*
X120885423Y-92474577D01*
X121237758Y-92710000D01*
X120885423Y-92945423D01*
X120568260Y-93420091D01*
X120456887Y-93980000D01*
X120568260Y-94539909D01*
X120885423Y-95014577D01*
X121006106Y-95095215D01*
X120872235Y-95121843D01*
X120662191Y-95262191D01*
X120521843Y-95472235D01*
X120472560Y-95720000D01*
X120472560Y-97320000D01*
X120521843Y-97567765D01*
X120662191Y-97777809D01*
X120872235Y-97918157D01*
X121006106Y-97944785D01*
X120885423Y-98025423D01*
X120568260Y-98500091D01*
X120456887Y-99060000D01*
X120568260Y-99619909D01*
X120885423Y-100094577D01*
X121237758Y-100330000D01*
X120885423Y-100565423D01*
X120568260Y-101040091D01*
X120456887Y-101600000D01*
X120568260Y-102159909D01*
X120885423Y-102634577D01*
X121237758Y-102870000D01*
X120885423Y-103105423D01*
X120568260Y-103580091D01*
X120456887Y-104140000D01*
X120568260Y-104699909D01*
X120885423Y-105174577D01*
X121006106Y-105255215D01*
X120872235Y-105281843D01*
X120662191Y-105422191D01*
X120521843Y-105632235D01*
X120472560Y-105880000D01*
X120472560Y-107480000D01*
X120521843Y-107727765D01*
X120662191Y-107937809D01*
X120872235Y-108078157D01*
X121006106Y-108104785D01*
X120885423Y-108185423D01*
X120568260Y-108660091D01*
X120456887Y-109220000D01*
X120568260Y-109779909D01*
X120885423Y-110254577D01*
X121237758Y-110490000D01*
X120885423Y-110725423D01*
X120568260Y-111200091D01*
X120456887Y-111760000D01*
X120568260Y-112319909D01*
X120885423Y-112794577D01*
X121237758Y-113030000D01*
X120885423Y-113265423D01*
X120568260Y-113740091D01*
X120456887Y-114300000D01*
X120568260Y-114859909D01*
X120885423Y-115334577D01*
X121006106Y-115415215D01*
X120872235Y-115441843D01*
X120662191Y-115582191D01*
X120521843Y-115792235D01*
X120472560Y-116040000D01*
X120472560Y-117640000D01*
X120521843Y-117887765D01*
X120662191Y-118097809D01*
X120872235Y-118238157D01*
X121006106Y-118264785D01*
X120885423Y-118345423D01*
X120568260Y-118820091D01*
X120456887Y-119380000D01*
X120568260Y-119939909D01*
X120885423Y-120414577D01*
X121237758Y-120650000D01*
X120885423Y-120885423D01*
X120568260Y-121360091D01*
X120456887Y-121920000D01*
X120568260Y-122479909D01*
X120885423Y-122954577D01*
X121237758Y-123190000D01*
X120885423Y-123425423D01*
X120568260Y-123900091D01*
X120456887Y-124460000D01*
X120568260Y-125019909D01*
X120885423Y-125494577D01*
X121360091Y-125811740D01*
X121778667Y-125895000D01*
X122061333Y-125895000D01*
X122479909Y-125811740D01*
X122954577Y-125494577D01*
X123271740Y-125019909D01*
X123313684Y-124809039D01*
X128148096Y-124809039D01*
X128308959Y-125197423D01*
X128684866Y-125612389D01*
X129190959Y-125851914D01*
X129413000Y-125730629D01*
X129413000Y-124587000D01*
X129667000Y-124587000D01*
X129667000Y-125730629D01*
X129889041Y-125851914D01*
X130395134Y-125612389D01*
X130771041Y-125197423D01*
X130931904Y-124809039D01*
X130809915Y-124587000D01*
X129667000Y-124587000D01*
X129413000Y-124587000D01*
X128270085Y-124587000D01*
X128148096Y-124809039D01*
X123313684Y-124809039D01*
X123383113Y-124460000D01*
X123271740Y-123900091D01*
X122954577Y-123425423D01*
X122602242Y-123190000D01*
X122954577Y-122954577D01*
X123271740Y-122479909D01*
X123383113Y-121920000D01*
X123271740Y-121360091D01*
X122954577Y-120885423D01*
X122602242Y-120650000D01*
X122954577Y-120414577D01*
X123271740Y-119939909D01*
X123383113Y-119380000D01*
X123271740Y-118820091D01*
X122954577Y-118345423D01*
X122833894Y-118264785D01*
X122967765Y-118238157D01*
X123177809Y-118097809D01*
X123318157Y-117887765D01*
X123367440Y-117640000D01*
X123367440Y-116040000D01*
X123318157Y-115792235D01*
X123177809Y-115582191D01*
X122967765Y-115441843D01*
X122833894Y-115415215D01*
X122954577Y-115334577D01*
X123271740Y-114859909D01*
X123383113Y-114300000D01*
X123271740Y-113740091D01*
X122954577Y-113265423D01*
X122602242Y-113030000D01*
X122954577Y-112794577D01*
X123271740Y-112319909D01*
X123383113Y-111760000D01*
X123271740Y-111200091D01*
X122954577Y-110725423D01*
X122602242Y-110490000D01*
X122954577Y-110254577D01*
X123271740Y-109779909D01*
X123383113Y-109220000D01*
X123271740Y-108660091D01*
X122954577Y-108185423D01*
X122833894Y-108104785D01*
X122967765Y-108078157D01*
X123177809Y-107937809D01*
X123318157Y-107727765D01*
X123367440Y-107480000D01*
X123367440Y-105880000D01*
X123318157Y-105632235D01*
X123177809Y-105422191D01*
X122967765Y-105281843D01*
X122833894Y-105255215D01*
X122954577Y-105174577D01*
X123271740Y-104699909D01*
X123383113Y-104140000D01*
X123271740Y-103580091D01*
X122954577Y-103105423D01*
X122602242Y-102870000D01*
X122954577Y-102634577D01*
X123271740Y-102159909D01*
X123383113Y-101600000D01*
X123271740Y-101040091D01*
X122954577Y-100565423D01*
X122602242Y-100330000D01*
X122954577Y-100094577D01*
X123271740Y-99619909D01*
X123383113Y-99060000D01*
X123271740Y-98500091D01*
X122954577Y-98025423D01*
X122833894Y-97944785D01*
X122967765Y-97918157D01*
X123177809Y-97777809D01*
X123318157Y-97567765D01*
X123367440Y-97320000D01*
X123367440Y-96520000D01*
X128076887Y-96520000D01*
X128188260Y-97079909D01*
X128505423Y-97554577D01*
X128857758Y-97790000D01*
X128505423Y-98025423D01*
X128188260Y-98500091D01*
X128076887Y-99060000D01*
X128188260Y-99619909D01*
X128505423Y-100094577D01*
X128857758Y-100330000D01*
X128505423Y-100565423D01*
X128188260Y-101040091D01*
X128076887Y-101600000D01*
X128188260Y-102159909D01*
X128505423Y-102634577D01*
X128889108Y-102890947D01*
X128684866Y-102987611D01*
X128308959Y-103402577D01*
X128148096Y-103790961D01*
X128270085Y-104013000D01*
X129413000Y-104013000D01*
X129413000Y-103993000D01*
X129667000Y-103993000D01*
X129667000Y-104013000D01*
X130809915Y-104013000D01*
X130931904Y-103790961D01*
X130771041Y-103402577D01*
X130395134Y-102987611D01*
X130190892Y-102890947D01*
X130574577Y-102634577D01*
X130891740Y-102159909D01*
X131003113Y-101600000D01*
X130891740Y-101040091D01*
X130574577Y-100565423D01*
X130222242Y-100330000D01*
X130574577Y-100094577D01*
X130891740Y-99619909D01*
X131003113Y-99060000D01*
X130891740Y-98500091D01*
X130574577Y-98025423D01*
X130222242Y-97790000D01*
X130574577Y-97554577D01*
X130891740Y-97079909D01*
X131003113Y-96520000D01*
X130891740Y-95960091D01*
X130574577Y-95485423D01*
X130190892Y-95229053D01*
X130395134Y-95132389D01*
X130771041Y-94717423D01*
X130931904Y-94329039D01*
X130809915Y-94107000D01*
X129667000Y-94107000D01*
X129667000Y-94127000D01*
X129413000Y-94127000D01*
X129413000Y-94107000D01*
X128270085Y-94107000D01*
X128148096Y-94329039D01*
X128308959Y-94717423D01*
X128684866Y-95132389D01*
X128889108Y-95229053D01*
X128505423Y-95485423D01*
X128188260Y-95960091D01*
X128076887Y-96520000D01*
X123367440Y-96520000D01*
X123367440Y-95720000D01*
X123318157Y-95472235D01*
X123177809Y-95262191D01*
X122967765Y-95121843D01*
X122833894Y-95095215D01*
X122954577Y-95014577D01*
X123271740Y-94539909D01*
X123383113Y-93980000D01*
X123271740Y-93420091D01*
X122954577Y-92945423D01*
X122602242Y-92710000D01*
X122954577Y-92474577D01*
X123271740Y-91999909D01*
X123383113Y-91440000D01*
X123271740Y-90880091D01*
X122954577Y-90405423D01*
X122602242Y-90170000D01*
X122954577Y-89934577D01*
X123271740Y-89459909D01*
X123383113Y-88900000D01*
X123271740Y-88340091D01*
X122954577Y-87865423D01*
X122833894Y-87784785D01*
X122967765Y-87758157D01*
X123177809Y-87617809D01*
X123318157Y-87407765D01*
X123367440Y-87160000D01*
X123367440Y-85560000D01*
X123318157Y-85312235D01*
X123177809Y-85102191D01*
X122967765Y-84961843D01*
X122833894Y-84935215D01*
X122954577Y-84854577D01*
X123271740Y-84379909D01*
X123383113Y-83820000D01*
X123271740Y-83260091D01*
X122954577Y-82785423D01*
X122602242Y-82550000D01*
X122954577Y-82314577D01*
X123271740Y-81839909D01*
X123383113Y-81280000D01*
X123271740Y-80720091D01*
X122954577Y-80245423D01*
X122602242Y-80010000D01*
X122954577Y-79774577D01*
X123271740Y-79299909D01*
X123383113Y-78740000D01*
X123271740Y-78180091D01*
X122954577Y-77705423D01*
X122833894Y-77624785D01*
X122967765Y-77598157D01*
X123177809Y-77457809D01*
X123318157Y-77247765D01*
X123367440Y-77000000D01*
X123367440Y-75400000D01*
X123318157Y-75152235D01*
X123177809Y-74942191D01*
X122967765Y-74801843D01*
X122833894Y-74775215D01*
X122954577Y-74694577D01*
X123271740Y-74219909D01*
X123383113Y-73660000D01*
X123271740Y-73100091D01*
X122954577Y-72625423D01*
X122602242Y-72390000D01*
X122954577Y-72154577D01*
X123271740Y-71679909D01*
X123383113Y-71120000D01*
X123271740Y-70560091D01*
X122954577Y-70085423D01*
X122602242Y-69850000D01*
X122954577Y-69614577D01*
X123271740Y-69139909D01*
X123383113Y-68580000D01*
X123271740Y-68020091D01*
X122954577Y-67545423D01*
X122833894Y-67464785D01*
X122967765Y-67438157D01*
X123177809Y-67297809D01*
X123318157Y-67087765D01*
X123367440Y-66840000D01*
X123367440Y-65240000D01*
X123318157Y-64992235D01*
X123177809Y-64782191D01*
X122967765Y-64641843D01*
X122720000Y-64592560D01*
X121120000Y-64592560D01*
X120872235Y-64641843D01*
X120662191Y-64782191D01*
X120521843Y-64992235D01*
X120472560Y-65240000D01*
X120472560Y-66840000D01*
X120521843Y-67087765D01*
X120662191Y-67297809D01*
X120872235Y-67438157D01*
X121006106Y-67464785D01*
X120885423Y-67545423D01*
X120568260Y-68020091D01*
X120456887Y-68580000D01*
X119845000Y-68580000D01*
X119845000Y-68234887D01*
X119580862Y-67597201D01*
X119092799Y-67109138D01*
X118455113Y-66845000D01*
X117764887Y-66845000D01*
X117127201Y-67109138D01*
X116639138Y-67597201D01*
X116375000Y-68234887D01*
X113792000Y-68234887D01*
X113792000Y-60515431D01*
X114605000Y-60515431D01*
X114605000Y-61404569D01*
X114945259Y-62226026D01*
X115573974Y-62854741D01*
X116395431Y-63195000D01*
X117284569Y-63195000D01*
X118106026Y-62854741D01*
X118734741Y-62226026D01*
X119075000Y-61404569D01*
X119075000Y-60515431D01*
X118734741Y-59693974D01*
X118106026Y-59065259D01*
X117284569Y-58725000D01*
X116395431Y-58725000D01*
X115573974Y-59065259D01*
X114945259Y-59693974D01*
X114605000Y-60515431D01*
X113792000Y-60515431D01*
X113792000Y-57912000D01*
X154178000Y-57912000D01*
X154178000Y-69090000D01*
X154178000Y-69090000D01*
G37*
X154178000Y-69090000D02*
X153897440Y-69090000D01*
X153897440Y-67730000D01*
X153848157Y-67482235D01*
X153707809Y-67272191D01*
X153497765Y-67131843D01*
X153250000Y-67082560D01*
X151550000Y-67082560D01*
X151302235Y-67131843D01*
X151092191Y-67272191D01*
X150951843Y-67482235D01*
X150902560Y-67730000D01*
X150902560Y-69090000D01*
X147445000Y-69090000D01*
X147445000Y-68832440D01*
X147560000Y-68832440D01*
X147807765Y-68783157D01*
X148017809Y-68642809D01*
X148158157Y-68432765D01*
X148207440Y-68185000D01*
X148207440Y-66435000D01*
X148158157Y-66187235D01*
X148017809Y-65977191D01*
X147807765Y-65836843D01*
X147560000Y-65787560D01*
X145810000Y-65787560D01*
X145562235Y-65836843D01*
X145352191Y-65977191D01*
X145211843Y-66187235D01*
X145209496Y-66199034D01*
X145040346Y-66029884D01*
X144941801Y-65989065D01*
X144900904Y-65783463D01*
X144732929Y-65532071D01*
X144669473Y-65489671D01*
X142195331Y-63015530D01*
X142152929Y-62952071D01*
X141901537Y-62784096D01*
X141679852Y-62740000D01*
X141679847Y-62740000D01*
X141605000Y-62725112D01*
X141530153Y-62740000D01*
X128344846Y-62740000D01*
X128269999Y-62725112D01*
X128195152Y-62740000D01*
X128195148Y-62740000D01*
X127973463Y-62784096D01*
X127722071Y-62952071D01*
X127679671Y-63015527D01*
X126515530Y-64179669D01*
X126515527Y-64179671D01*
X125245530Y-65449669D01*
X125182071Y-65492071D01*
X125014096Y-65743464D01*
X124970000Y-65965149D01*
X124970000Y-65965153D01*
X124955112Y-66040000D01*
X124970000Y-66114847D01*
X124970001Y-70557709D01*
X124937345Y-70590365D01*
X124795000Y-70934017D01*
X124795000Y-71305983D01*
X124937345Y-71649635D01*
X125200365Y-71912655D01*
X125544017Y-72055000D01*
X125605000Y-72055000D01*
X125605001Y-79447709D01*
X125572345Y-79480365D01*
X125430000Y-79824017D01*
X125430000Y-80195983D01*
X125572345Y-80539635D01*
X125835365Y-80802655D01*
X126179017Y-80945000D01*
X126550983Y-80945000D01*
X126875000Y-80810788D01*
X126875001Y-89607709D01*
X126842345Y-89640365D01*
X126700000Y-89984017D01*
X126700000Y-90355983D01*
X126842345Y-90699635D01*
X127105365Y-90962655D01*
X127449017Y-91105000D01*
X127820983Y-91105000D01*
X128164635Y-90962655D01*
X128173625Y-90953665D01*
X128076887Y-91440000D01*
X128188260Y-91999909D01*
X128505423Y-92474577D01*
X128889108Y-92730947D01*
X128684866Y-92827611D01*
X128308959Y-93242577D01*
X128148096Y-93630961D01*
X128270085Y-93853000D01*
X129413000Y-93853000D01*
X129413000Y-93833000D01*
X129667000Y-93833000D01*
X129667000Y-93853000D01*
X130809915Y-93853000D01*
X130931904Y-93630961D01*
X130771041Y-93242577D01*
X130395134Y-92827611D01*
X130190892Y-92730947D01*
X130574577Y-92474577D01*
X130891740Y-91999909D01*
X130932123Y-91796890D01*
X150958524Y-91796890D01*
X151128355Y-92206924D01*
X151518642Y-92635183D01*
X152043108Y-92881486D01*
X152273000Y-92760819D01*
X152273000Y-91567000D01*
X152527000Y-91567000D01*
X152527000Y-92760819D01*
X152756892Y-92881486D01*
X153281358Y-92635183D01*
X153671645Y-92206924D01*
X153841476Y-91796890D01*
X153720155Y-91567000D01*
X152527000Y-91567000D01*
X152273000Y-91567000D01*
X151079845Y-91567000D01*
X150958524Y-91796890D01*
X130932123Y-91796890D01*
X131003113Y-91440000D01*
X130891740Y-90880091D01*
X130574577Y-90405423D01*
X130222242Y-90170000D01*
X130574577Y-89934577D01*
X130891740Y-89459909D01*
X131003113Y-88900000D01*
X130891740Y-88340091D01*
X130574577Y-87865423D01*
X130222242Y-87630000D01*
X130574577Y-87394577D01*
X130891740Y-86919909D01*
X131003113Y-86360000D01*
X130891740Y-85800091D01*
X130574577Y-85325423D01*
X130190892Y-85069053D01*
X130395134Y-84972389D01*
X130771041Y-84557423D01*
X130931904Y-84169039D01*
X130809915Y-83947000D01*
X129667000Y-83947000D01*
X129667000Y-83967000D01*
X129413000Y-83967000D01*
X129413000Y-83947000D01*
X129393000Y-83947000D01*
X129393000Y-83693000D01*
X129413000Y-83693000D01*
X129413000Y-83673000D01*
X129667000Y-83673000D01*
X129667000Y-83693000D01*
X130809915Y-83693000D01*
X130931904Y-83470961D01*
X130771041Y-83082577D01*
X130395134Y-82667611D01*
X130190892Y-82570947D01*
X130574577Y-82314577D01*
X130891740Y-81839909D01*
X131003113Y-81280000D01*
X130891740Y-80720091D01*
X130574577Y-80245423D01*
X130222242Y-80010000D01*
X130574577Y-79774577D01*
X130891740Y-79299909D01*
X131003113Y-78740000D01*
X130891740Y-78180091D01*
X130574577Y-77705423D01*
X130222242Y-77470000D01*
X130574577Y-77234577D01*
X130891740Y-76759909D01*
X131003113Y-76200000D01*
X130891740Y-75640091D01*
X130574577Y-75165423D01*
X130190892Y-74909053D01*
X130395134Y-74812389D01*
X130771041Y-74397423D01*
X130931904Y-74009039D01*
X130809915Y-73787000D01*
X129667000Y-73787000D01*
X129667000Y-73807000D01*
X129413000Y-73807000D01*
X129413000Y-73787000D01*
X129393000Y-73787000D01*
X129393000Y-73533000D01*
X129413000Y-73533000D01*
X129413000Y-73513000D01*
X129667000Y-73513000D01*
X129667000Y-73533000D01*
X130809915Y-73533000D01*
X130931904Y-73310961D01*
X130771041Y-72922577D01*
X130395134Y-72507611D01*
X130190892Y-72410947D01*
X130574577Y-72154577D01*
X130891740Y-71679909D01*
X131003113Y-71120000D01*
X130901668Y-70610000D01*
X138355153Y-70610000D01*
X138430000Y-70624888D01*
X138504847Y-70610000D01*
X138504852Y-70610000D01*
X138726537Y-70565904D01*
X138977929Y-70397929D01*
X139020331Y-70334470D01*
X139379802Y-69975000D01*
X143344212Y-69975000D01*
X143228488Y-70254383D01*
X143060983Y-70185000D01*
X142689017Y-70185000D01*
X142345365Y-70327345D01*
X142082345Y-70590365D01*
X141940000Y-70934017D01*
X141940000Y-71305983D01*
X142082345Y-71649635D01*
X142345365Y-71912655D01*
X142689017Y-72055000D01*
X142735199Y-72055000D01*
X146094671Y-75414473D01*
X146111728Y-75440000D01*
X132642290Y-75440000D01*
X132609635Y-75407345D01*
X132265983Y-75265000D01*
X131894017Y-75265000D01*
X131550365Y-75407345D01*
X131287345Y-75670365D01*
X131145000Y-76014017D01*
X131145000Y-76385983D01*
X131287345Y-76729635D01*
X131320000Y-76762290D01*
X131320001Y-85015144D01*
X131320000Y-85015149D01*
X131320000Y-85162710D01*
X131287345Y-85195365D01*
X131145000Y-85539017D01*
X131145000Y-85910983D01*
X131287345Y-86254635D01*
X131550365Y-86517655D01*
X131894017Y-86660000D01*
X132265983Y-86660000D01*
X132609635Y-86517655D01*
X132872655Y-86254635D01*
X133015000Y-85910983D01*
X133015000Y-85539017D01*
X132872655Y-85195365D01*
X132840000Y-85162710D01*
X132840000Y-76960000D01*
X133819212Y-76960000D01*
X133685000Y-77284017D01*
X133685000Y-77655983D01*
X133827345Y-77999635D01*
X134090365Y-78262655D01*
X134434017Y-78405000D01*
X134480199Y-78405000D01*
X137839671Y-81764473D01*
X137882071Y-81827929D01*
X137945527Y-81870329D01*
X138133462Y-81995904D01*
X138181605Y-82005480D01*
X138355148Y-82040000D01*
X138355152Y-82040000D01*
X138430000Y-82054888D01*
X138504848Y-82040000D01*
X142936728Y-82040000D01*
X142919673Y-82065524D01*
X135750199Y-89235000D01*
X135704017Y-89235000D01*
X135360365Y-89377345D01*
X135097345Y-89640365D01*
X134955000Y-89984017D01*
X134955000Y-90355983D01*
X135097345Y-90699635D01*
X135360365Y-90962655D01*
X135704017Y-91105000D01*
X136075983Y-91105000D01*
X136419635Y-90962655D01*
X136682655Y-90699635D01*
X136825000Y-90355983D01*
X136825000Y-90309801D01*
X138234801Y-88900000D01*
X150885908Y-88900000D01*
X151001161Y-89479418D01*
X151329375Y-89970625D01*
X151648478Y-90183843D01*
X151518642Y-90244817D01*
X151128355Y-90673076D01*
X150958524Y-91083110D01*
X151079845Y-91313000D01*
X152273000Y-91313000D01*
X152273000Y-91293000D01*
X152527000Y-91293000D01*
X152527000Y-91313000D01*
X153720155Y-91313000D01*
X153841476Y-91083110D01*
X153671645Y-90673076D01*
X153281358Y-90244817D01*
X153151522Y-90183843D01*
X153470625Y-89970625D01*
X153798839Y-89479418D01*
X153914092Y-88900000D01*
X153798839Y-88320582D01*
X153470625Y-87829375D01*
X153151522Y-87616157D01*
X153281358Y-87555183D01*
X153671645Y-87126924D01*
X153841476Y-86716890D01*
X153720155Y-86487000D01*
X152527000Y-86487000D01*
X152527000Y-86507000D01*
X152273000Y-86507000D01*
X152273000Y-86487000D01*
X151079845Y-86487000D01*
X150958524Y-86716890D01*
X151128355Y-87126924D01*
X151518642Y-87555183D01*
X151648478Y-87616157D01*
X151329375Y-87829375D01*
X151001161Y-88320582D01*
X150885908Y-88900000D01*
X138234801Y-88900000D01*
X143824803Y-83310000D01*
X148662710Y-83310000D01*
X148695365Y-83342655D01*
X149039017Y-83485000D01*
X149410983Y-83485000D01*
X149754635Y-83342655D01*
X150017655Y-83079635D01*
X150160000Y-82735983D01*
X150160000Y-82364017D01*
X150025788Y-82040000D01*
X151121822Y-82040000D01*
X151329375Y-82350625D01*
X151627761Y-82550000D01*
X151329375Y-82749375D01*
X151121822Y-83060000D01*
X150569846Y-83060000D01*
X150494999Y-83045112D01*
X150420152Y-83060000D01*
X150420148Y-83060000D01*
X150198463Y-83104096D01*
X149947071Y-83272071D01*
X149904671Y-83335527D01*
X147005199Y-86235000D01*
X142167290Y-86235000D01*
X142134635Y-86202345D01*
X141790983Y-86060000D01*
X141419017Y-86060000D01*
X141075365Y-86202345D01*
X140812345Y-86465365D01*
X140670000Y-86809017D01*
X140670000Y-87180983D01*
X140812345Y-87524635D01*
X141075365Y-87787655D01*
X141419017Y-87930000D01*
X141790983Y-87930000D01*
X142134635Y-87787655D01*
X142167290Y-87755000D01*
X147245153Y-87755000D01*
X147320000Y-87769888D01*
X147394847Y-87755000D01*
X147394852Y-87755000D01*
X147616537Y-87710904D01*
X147867929Y-87542929D01*
X147910331Y-87479470D01*
X150809802Y-84580000D01*
X151121822Y-84580000D01*
X151329375Y-84890625D01*
X151648478Y-85103843D01*
X151518642Y-85164817D01*
X151128355Y-85593076D01*
X150958524Y-86003110D01*
X151079845Y-86233000D01*
X152273000Y-86233000D01*
X152273000Y-86213000D01*
X152527000Y-86213000D01*
X152527000Y-86233000D01*
X153720155Y-86233000D01*
X153841476Y-86003110D01*
X153671645Y-85593076D01*
X153281358Y-85164817D01*
X153151522Y-85103843D01*
X153470625Y-84890625D01*
X153798839Y-84399418D01*
X153914092Y-83820000D01*
X153798839Y-83240582D01*
X153470625Y-82749375D01*
X153172239Y-82550000D01*
X153470625Y-82350625D01*
X153798839Y-81859418D01*
X153914092Y-81280000D01*
X153798839Y-80700582D01*
X153470625Y-80209375D01*
X153172239Y-80010000D01*
X153470625Y-79810625D01*
X153798839Y-79319418D01*
X153914092Y-78740000D01*
X153798839Y-78160582D01*
X153470625Y-77669375D01*
X153172239Y-77470000D01*
X153470625Y-77270625D01*
X153678178Y-76960000D01*
X154178000Y-76960000D01*
X154178000Y-105920000D01*
X153678178Y-105920000D01*
X153470625Y-105609375D01*
X153172239Y-105410000D01*
X153470625Y-105210625D01*
X153798839Y-104719418D01*
X153914092Y-104140000D01*
X153798839Y-103560582D01*
X153470625Y-103069375D01*
X153172239Y-102870000D01*
X153470625Y-102670625D01*
X153798839Y-102179418D01*
X153914092Y-101600000D01*
X153798839Y-101020582D01*
X153470625Y-100529375D01*
X153452381Y-100517184D01*
X153497765Y-100508157D01*
X153707809Y-100367809D01*
X153848157Y-100157765D01*
X153897440Y-99910000D01*
X153897440Y-98210000D01*
X153848157Y-97962235D01*
X153707809Y-97752191D01*
X153497765Y-97611843D01*
X153250000Y-97562560D01*
X151550000Y-97562560D01*
X151302235Y-97611843D01*
X151092191Y-97752191D01*
X150951843Y-97962235D01*
X150902560Y-98210000D01*
X150902560Y-99910000D01*
X150951843Y-100157765D01*
X151092191Y-100367809D01*
X151302235Y-100508157D01*
X151347619Y-100517184D01*
X151329375Y-100529375D01*
X151001161Y-101020582D01*
X150885908Y-101600000D01*
X151001161Y-102179418D01*
X151329375Y-102670625D01*
X151627761Y-102870000D01*
X151329375Y-103069375D01*
X151327659Y-103071943D01*
X151287655Y-102975365D01*
X151024635Y-102712345D01*
X150680983Y-102570000D01*
X150634802Y-102570000D01*
X149180331Y-101115530D01*
X149137929Y-101052071D01*
X148886537Y-100884096D01*
X148664852Y-100840000D01*
X148664847Y-100840000D01*
X148590000Y-100825112D01*
X148515153Y-100840000D01*
X137087290Y-100840000D01*
X137054635Y-100807345D01*
X136710983Y-100665000D01*
X136339017Y-100665000D01*
X135995365Y-100807345D01*
X135732345Y-101070365D01*
X135590000Y-101414017D01*
X135590000Y-101785983D01*
X135732345Y-102129635D01*
X135995365Y-102392655D01*
X136339017Y-102535000D01*
X136710983Y-102535000D01*
X137054635Y-102392655D01*
X137087290Y-102360000D01*
X148275199Y-102360000D01*
X149560000Y-103644802D01*
X149560000Y-103690983D01*
X149702345Y-104034635D01*
X149931454Y-104263744D01*
X148078744Y-106116454D01*
X147849635Y-105887345D01*
X147505983Y-105745000D01*
X147134017Y-105745000D01*
X146790365Y-105887345D01*
X146757710Y-105920000D01*
X132642290Y-105920000D01*
X132609635Y-105887345D01*
X132265983Y-105745000D01*
X131894017Y-105745000D01*
X131550365Y-105887345D01*
X131287345Y-106150365D01*
X131145000Y-106494017D01*
X131145000Y-106865983D01*
X131287345Y-107209635D01*
X131550365Y-107472655D01*
X131894017Y-107615000D01*
X132265983Y-107615000D01*
X132609635Y-107472655D01*
X132642290Y-107440000D01*
X137629212Y-107440000D01*
X137495000Y-107764017D01*
X137495000Y-108135983D01*
X137637345Y-108479635D01*
X137670000Y-108512290D01*
X137670001Y-109927709D01*
X137637345Y-109960365D01*
X137495000Y-110304017D01*
X137495000Y-110675983D01*
X137629212Y-111000000D01*
X136452290Y-111000000D01*
X136419635Y-110967345D01*
X136075983Y-110825000D01*
X135704017Y-110825000D01*
X135360365Y-110967345D01*
X135097345Y-111230365D01*
X134955000Y-111574017D01*
X134955000Y-111945983D01*
X135089212Y-112270000D01*
X130901668Y-112270000D01*
X131003113Y-111760000D01*
X130891740Y-111200091D01*
X130574577Y-110725423D01*
X130222242Y-110490000D01*
X130574577Y-110254577D01*
X130891740Y-109779909D01*
X131003113Y-109220000D01*
X130891740Y-108660091D01*
X130574577Y-108185423D01*
X130222242Y-107950000D01*
X130574577Y-107714577D01*
X130891740Y-107239909D01*
X131003113Y-106680000D01*
X130891740Y-106120091D01*
X130574577Y-105645423D01*
X130190892Y-105389053D01*
X130395134Y-105292389D01*
X130771041Y-104877423D01*
X130931904Y-104489039D01*
X130809915Y-104267000D01*
X129667000Y-104267000D01*
X129667000Y-104287000D01*
X129413000Y-104287000D01*
X129413000Y-104267000D01*
X128270085Y-104267000D01*
X128148096Y-104489039D01*
X128308959Y-104877423D01*
X128684866Y-105292389D01*
X128889108Y-105389053D01*
X128505423Y-105645423D01*
X128188260Y-106120091D01*
X128076887Y-106680000D01*
X128188260Y-107239909D01*
X128505423Y-107714577D01*
X128857758Y-107950000D01*
X128505423Y-108185423D01*
X128188260Y-108660091D01*
X128076887Y-109220000D01*
X128188260Y-109779909D01*
X128505423Y-110254577D01*
X128857758Y-110490000D01*
X128505423Y-110725423D01*
X128188260Y-111200091D01*
X128076887Y-111760000D01*
X128178332Y-112270000D01*
X127314803Y-112270000D01*
X125220000Y-110175199D01*
X125220000Y-104067290D01*
X125252655Y-104034635D01*
X125395000Y-103690983D01*
X125395000Y-103319017D01*
X125252655Y-102975365D01*
X124989635Y-102712345D01*
X124645983Y-102570000D01*
X124274017Y-102570000D01*
X123930365Y-102712345D01*
X123667345Y-102975365D01*
X123525000Y-103319017D01*
X123525000Y-103690983D01*
X123667345Y-104034635D01*
X123700001Y-104067291D01*
X123700000Y-110415153D01*
X123685112Y-110490000D01*
X123700000Y-110564847D01*
X123700000Y-110564851D01*
X123744096Y-110786536D01*
X123912071Y-111037929D01*
X123975530Y-111080331D01*
X126409673Y-113514476D01*
X126452071Y-113577929D01*
X126515524Y-113620327D01*
X126515526Y-113620329D01*
X126640902Y-113704102D01*
X126703463Y-113745904D01*
X126925148Y-113790000D01*
X126925152Y-113790000D01*
X126999999Y-113804888D01*
X127074846Y-113790000D01*
X128214764Y-113790000D01*
X128148096Y-113950961D01*
X128270085Y-114173000D01*
X129413000Y-114173000D01*
X129413000Y-114153000D01*
X129667000Y-114153000D01*
X129667000Y-114173000D01*
X130809915Y-114173000D01*
X130931904Y-113950961D01*
X130865236Y-113790000D01*
X138115199Y-113790000D01*
X140805001Y-116479803D01*
X140805000Y-119330390D01*
X140709654Y-119369884D01*
X140540504Y-119539034D01*
X140538157Y-119527235D01*
X140397809Y-119317191D01*
X140187765Y-119176843D01*
X139940000Y-119127560D01*
X139825000Y-119127560D01*
X139825000Y-118819846D01*
X139839888Y-118744999D01*
X139825000Y-118670152D01*
X139825000Y-118670148D01*
X139780904Y-118448463D01*
X139612929Y-118197071D01*
X139549473Y-118154671D01*
X136480331Y-115085530D01*
X136437929Y-115022071D01*
X136186537Y-114854096D01*
X135964852Y-114810000D01*
X135964847Y-114810000D01*
X135890000Y-114795112D01*
X135815153Y-114810000D01*
X130865236Y-114810000D01*
X130931904Y-114649039D01*
X130809915Y-114427000D01*
X129667000Y-114427000D01*
X129667000Y-114447000D01*
X129413000Y-114447000D01*
X129413000Y-114427000D01*
X128270085Y-114427000D01*
X128148096Y-114649039D01*
X128214764Y-114810000D01*
X126679802Y-114810000D01*
X125395000Y-113525199D01*
X125395000Y-113479017D01*
X125252655Y-113135365D01*
X124989635Y-112872345D01*
X124645983Y-112730000D01*
X124274017Y-112730000D01*
X123930365Y-112872345D01*
X123667345Y-113135365D01*
X123525000Y-113479017D01*
X123525000Y-113850983D01*
X123667345Y-114194635D01*
X123930365Y-114457655D01*
X124274017Y-114600000D01*
X124320199Y-114600000D01*
X125774670Y-116054472D01*
X125817071Y-116117929D01*
X125880527Y-116160329D01*
X126068462Y-116285904D01*
X126116605Y-116295480D01*
X126290148Y-116330000D01*
X126290152Y-116330000D01*
X126365000Y-116344888D01*
X126439848Y-116330000D01*
X128178332Y-116330000D01*
X128076887Y-116840000D01*
X128188260Y-117399909D01*
X128505423Y-117874577D01*
X128857758Y-118110000D01*
X128505423Y-118345423D01*
X128188260Y-118820091D01*
X128076887Y-119380000D01*
X128188260Y-119939909D01*
X128505423Y-120414577D01*
X128857758Y-120650000D01*
X128505423Y-120885423D01*
X128188260Y-121360091D01*
X128076887Y-121920000D01*
X128188260Y-122479909D01*
X128505423Y-122954577D01*
X128889108Y-123210947D01*
X128684866Y-123307611D01*
X128308959Y-123722577D01*
X128148096Y-124110961D01*
X128270085Y-124333000D01*
X129413000Y-124333000D01*
X129413000Y-124313000D01*
X129667000Y-124313000D01*
X129667000Y-124333000D01*
X130809915Y-124333000D01*
X130931904Y-124110961D01*
X130771041Y-123722577D01*
X130395134Y-123307611D01*
X130190892Y-123210947D01*
X130574577Y-122954577D01*
X130891740Y-122479909D01*
X131003113Y-121920000D01*
X130891740Y-121360091D01*
X130574577Y-120885423D01*
X130222242Y-120650000D01*
X130574577Y-120414577D01*
X130891740Y-119939909D01*
X131003113Y-119380000D01*
X130891740Y-118820091D01*
X130574577Y-118345423D01*
X130222242Y-118110000D01*
X130574577Y-117874577D01*
X130891740Y-117399909D01*
X131003113Y-116840000D01*
X130901668Y-116330000D01*
X135575199Y-116330000D01*
X138305001Y-119059803D01*
X138305001Y-119127560D01*
X138190000Y-119127560D01*
X137942235Y-119176843D01*
X137732191Y-119317191D01*
X137591843Y-119527235D01*
X137542560Y-119775000D01*
X137542560Y-121525000D01*
X137591843Y-121772765D01*
X137606700Y-121795000D01*
X136839802Y-121795000D01*
X136825000Y-121780198D01*
X136825000Y-121734017D01*
X136682655Y-121390365D01*
X136419635Y-121127345D01*
X136075983Y-120985000D01*
X135704017Y-120985000D01*
X135360365Y-121127345D01*
X135097345Y-121390365D01*
X134955000Y-121734017D01*
X134955000Y-122105983D01*
X135097345Y-122449635D01*
X135360365Y-122712655D01*
X135704017Y-122855000D01*
X135750198Y-122855000D01*
X135934671Y-123039473D01*
X135977071Y-123102929D01*
X136228463Y-123270904D01*
X136450148Y-123315000D01*
X136450152Y-123315000D01*
X136525000Y-123329888D01*
X136599848Y-123315000D01*
X147245153Y-123315000D01*
X147320000Y-123329888D01*
X147394847Y-123315000D01*
X147394852Y-123315000D01*
X147616537Y-123270904D01*
X147867929Y-123102929D01*
X147910331Y-123039470D01*
X148672911Y-122276890D01*
X150958524Y-122276890D01*
X151128355Y-122686924D01*
X151518642Y-123115183D01*
X152043108Y-123361486D01*
X152273000Y-123240819D01*
X152273000Y-122047000D01*
X152527000Y-122047000D01*
X152527000Y-123240819D01*
X152756892Y-123361486D01*
X153281358Y-123115183D01*
X153671645Y-122686924D01*
X153841476Y-122276890D01*
X153720155Y-122047000D01*
X152527000Y-122047000D01*
X152273000Y-122047000D01*
X151079845Y-122047000D01*
X150958524Y-122276890D01*
X148672911Y-122276890D01*
X149709473Y-121240329D01*
X149772929Y-121197929D01*
X149915204Y-120985000D01*
X149940904Y-120946538D01*
X149974261Y-120778839D01*
X149985000Y-120724852D01*
X149985000Y-120724848D01*
X149999888Y-120650000D01*
X149985000Y-120575152D01*
X149985000Y-119380000D01*
X150885908Y-119380000D01*
X151001161Y-119959418D01*
X151329375Y-120450625D01*
X151648478Y-120663843D01*
X151518642Y-120724817D01*
X151128355Y-121153076D01*
X150958524Y-121563110D01*
X151079845Y-121793000D01*
X152273000Y-121793000D01*
X152273000Y-121773000D01*
X152527000Y-121773000D01*
X152527000Y-121793000D01*
X153720155Y-121793000D01*
X153841476Y-121563110D01*
X153671645Y-121153076D01*
X153281358Y-120724817D01*
X153151522Y-120663843D01*
X153470625Y-120450625D01*
X153798839Y-119959418D01*
X153914092Y-119380000D01*
X153798839Y-118800582D01*
X153470625Y-118309375D01*
X153151522Y-118096157D01*
X153281358Y-118035183D01*
X153671645Y-117606924D01*
X153841476Y-117196890D01*
X153720155Y-116967000D01*
X152527000Y-116967000D01*
X152527000Y-116987000D01*
X152273000Y-116987000D01*
X152273000Y-116967000D01*
X151079845Y-116967000D01*
X150958524Y-117196890D01*
X151128355Y-117606924D01*
X151518642Y-118035183D01*
X151648478Y-118096157D01*
X151329375Y-118309375D01*
X151001161Y-118800582D01*
X150885908Y-119380000D01*
X149985000Y-119380000D01*
X149985000Y-114862290D01*
X150017655Y-114829635D01*
X150160000Y-114485983D01*
X150160000Y-114114017D01*
X150025788Y-113790000D01*
X150815199Y-113790000D01*
X150958791Y-113933592D01*
X150885908Y-114300000D01*
X151001161Y-114879418D01*
X151329375Y-115370625D01*
X151648478Y-115583843D01*
X151518642Y-115644817D01*
X151128355Y-116073076D01*
X150958524Y-116483110D01*
X151079845Y-116713000D01*
X152273000Y-116713000D01*
X152273000Y-116693000D01*
X152527000Y-116693000D01*
X152527000Y-116713000D01*
X153720155Y-116713000D01*
X153841476Y-116483110D01*
X153671645Y-116073076D01*
X153281358Y-115644817D01*
X153151522Y-115583843D01*
X153470625Y-115370625D01*
X153798839Y-114879418D01*
X153914092Y-114300000D01*
X153798839Y-113720582D01*
X153470625Y-113229375D01*
X153172239Y-113030000D01*
X153470625Y-112830625D01*
X153798839Y-112339418D01*
X153914092Y-111760000D01*
X153812647Y-111250000D01*
X154178000Y-111250000D01*
X154178000Y-125605000D01*
X144707290Y-125605000D01*
X144674635Y-125572345D01*
X144330983Y-125430000D01*
X143959017Y-125430000D01*
X143615365Y-125572345D01*
X143352345Y-125835365D01*
X143210000Y-126179017D01*
X143210000Y-126550983D01*
X143352345Y-126894635D01*
X143615365Y-127157655D01*
X143959017Y-127300000D01*
X144330983Y-127300000D01*
X144674635Y-127157655D01*
X144707290Y-127125000D01*
X154178000Y-127125000D01*
X154178000Y-130048000D01*
X113792000Y-130048000D01*
X113792000Y-126555431D01*
X114605000Y-126555431D01*
X114605000Y-127444569D01*
X114945259Y-128266026D01*
X115573974Y-128894741D01*
X116395431Y-129235000D01*
X117284569Y-129235000D01*
X118106026Y-128894741D01*
X118734741Y-128266026D01*
X119075000Y-127444569D01*
X119075000Y-126555431D01*
X118734741Y-125733974D01*
X118106026Y-125105259D01*
X117284569Y-124765000D01*
X116395431Y-124765000D01*
X115573974Y-125105259D01*
X114945259Y-125733974D01*
X114605000Y-126555431D01*
X113792000Y-126555431D01*
X113792000Y-98714887D01*
X116375000Y-98714887D01*
X116375000Y-99405113D01*
X116639138Y-100042799D01*
X117127201Y-100530862D01*
X117764887Y-100795000D01*
X118455113Y-100795000D01*
X119092799Y-100530862D01*
X119580862Y-100042799D01*
X119845000Y-99405113D01*
X119845000Y-98714887D01*
X119580862Y-98077201D01*
X119092799Y-97589138D01*
X118455113Y-97325000D01*
X117764887Y-97325000D01*
X117127201Y-97589138D01*
X116639138Y-98077201D01*
X116375000Y-98714887D01*
X113792000Y-98714887D01*
X113792000Y-68234887D01*
X116375000Y-68234887D01*
X116375000Y-68925113D01*
X116639138Y-69562799D01*
X117127201Y-70050862D01*
X117764887Y-70315000D01*
X118455113Y-70315000D01*
X119092799Y-70050862D01*
X119580862Y-69562799D01*
X119845000Y-68925113D01*
X119845000Y-68580000D01*
X120456887Y-68580000D01*
X120568260Y-69139909D01*
X120885423Y-69614577D01*
X121237758Y-69850000D01*
X120885423Y-70085423D01*
X120568260Y-70560091D01*
X120456887Y-71120000D01*
X120568260Y-71679909D01*
X120885423Y-72154577D01*
X121237758Y-72390000D01*
X120885423Y-72625423D01*
X120568260Y-73100091D01*
X120456887Y-73660000D01*
X120568260Y-74219909D01*
X120885423Y-74694577D01*
X121006106Y-74775215D01*
X120872235Y-74801843D01*
X120662191Y-74942191D01*
X120521843Y-75152235D01*
X120472560Y-75400000D01*
X120472560Y-77000000D01*
X120521843Y-77247765D01*
X120662191Y-77457809D01*
X120872235Y-77598157D01*
X121006106Y-77624785D01*
X120885423Y-77705423D01*
X120568260Y-78180091D01*
X120456887Y-78740000D01*
X120568260Y-79299909D01*
X120885423Y-79774577D01*
X121237758Y-80010000D01*
X120885423Y-80245423D01*
X120568260Y-80720091D01*
X120456887Y-81280000D01*
X120568260Y-81839909D01*
X120885423Y-82314577D01*
X121237758Y-82550000D01*
X120885423Y-82785423D01*
X120568260Y-83260091D01*
X120456887Y-83820000D01*
X120568260Y-84379909D01*
X120885423Y-84854577D01*
X121006106Y-84935215D01*
X120872235Y-84961843D01*
X120662191Y-85102191D01*
X120521843Y-85312235D01*
X120472560Y-85560000D01*
X120472560Y-87160000D01*
X120521843Y-87407765D01*
X120662191Y-87617809D01*
X120872235Y-87758157D01*
X121006106Y-87784785D01*
X120885423Y-87865423D01*
X120568260Y-88340091D01*
X120456887Y-88900000D01*
X120568260Y-89459909D01*
X120885423Y-89934577D01*
X121237758Y-90170000D01*
X120885423Y-90405423D01*
X120568260Y-90880091D01*
X120456887Y-91440000D01*
X120568260Y-91999909D01*
X120885423Y-92474577D01*
X121237758Y-92710000D01*
X120885423Y-92945423D01*
X120568260Y-93420091D01*
X120456887Y-93980000D01*
X120568260Y-94539909D01*
X120885423Y-95014577D01*
X121006106Y-95095215D01*
X120872235Y-95121843D01*
X120662191Y-95262191D01*
X120521843Y-95472235D01*
X120472560Y-95720000D01*
X120472560Y-97320000D01*
X120521843Y-97567765D01*
X120662191Y-97777809D01*
X120872235Y-97918157D01*
X121006106Y-97944785D01*
X120885423Y-98025423D01*
X120568260Y-98500091D01*
X120456887Y-99060000D01*
X120568260Y-99619909D01*
X120885423Y-100094577D01*
X121237758Y-100330000D01*
X120885423Y-100565423D01*
X120568260Y-101040091D01*
X120456887Y-101600000D01*
X120568260Y-102159909D01*
X120885423Y-102634577D01*
X121237758Y-102870000D01*
X120885423Y-103105423D01*
X120568260Y-103580091D01*
X120456887Y-104140000D01*
X120568260Y-104699909D01*
X120885423Y-105174577D01*
X121006106Y-105255215D01*
X120872235Y-105281843D01*
X120662191Y-105422191D01*
X120521843Y-105632235D01*
X120472560Y-105880000D01*
X120472560Y-107480000D01*
X120521843Y-107727765D01*
X120662191Y-107937809D01*
X120872235Y-108078157D01*
X121006106Y-108104785D01*
X120885423Y-108185423D01*
X120568260Y-108660091D01*
X120456887Y-109220000D01*
X120568260Y-109779909D01*
X120885423Y-110254577D01*
X121237758Y-110490000D01*
X120885423Y-110725423D01*
X120568260Y-111200091D01*
X120456887Y-111760000D01*
X120568260Y-112319909D01*
X120885423Y-112794577D01*
X121237758Y-113030000D01*
X120885423Y-113265423D01*
X120568260Y-113740091D01*
X120456887Y-114300000D01*
X120568260Y-114859909D01*
X120885423Y-115334577D01*
X121006106Y-115415215D01*
X120872235Y-115441843D01*
X120662191Y-115582191D01*
X120521843Y-115792235D01*
X120472560Y-116040000D01*
X120472560Y-117640000D01*
X120521843Y-117887765D01*
X120662191Y-118097809D01*
X120872235Y-118238157D01*
X121006106Y-118264785D01*
X120885423Y-118345423D01*
X120568260Y-118820091D01*
X120456887Y-119380000D01*
X120568260Y-119939909D01*
X120885423Y-120414577D01*
X121237758Y-120650000D01*
X120885423Y-120885423D01*
X120568260Y-121360091D01*
X120456887Y-121920000D01*
X120568260Y-122479909D01*
X120885423Y-122954577D01*
X121237758Y-123190000D01*
X120885423Y-123425423D01*
X120568260Y-123900091D01*
X120456887Y-124460000D01*
X120568260Y-125019909D01*
X120885423Y-125494577D01*
X121360091Y-125811740D01*
X121778667Y-125895000D01*
X122061333Y-125895000D01*
X122479909Y-125811740D01*
X122954577Y-125494577D01*
X123271740Y-125019909D01*
X123313684Y-124809039D01*
X128148096Y-124809039D01*
X128308959Y-125197423D01*
X128684866Y-125612389D01*
X129190959Y-125851914D01*
X129413000Y-125730629D01*
X129413000Y-124587000D01*
X129667000Y-124587000D01*
X129667000Y-125730629D01*
X129889041Y-125851914D01*
X130395134Y-125612389D01*
X130771041Y-125197423D01*
X130931904Y-124809039D01*
X130809915Y-124587000D01*
X129667000Y-124587000D01*
X129413000Y-124587000D01*
X128270085Y-124587000D01*
X128148096Y-124809039D01*
X123313684Y-124809039D01*
X123383113Y-124460000D01*
X123271740Y-123900091D01*
X122954577Y-123425423D01*
X122602242Y-123190000D01*
X122954577Y-122954577D01*
X123271740Y-122479909D01*
X123383113Y-121920000D01*
X123271740Y-121360091D01*
X122954577Y-120885423D01*
X122602242Y-120650000D01*
X122954577Y-120414577D01*
X123271740Y-119939909D01*
X123383113Y-119380000D01*
X123271740Y-118820091D01*
X122954577Y-118345423D01*
X122833894Y-118264785D01*
X122967765Y-118238157D01*
X123177809Y-118097809D01*
X123318157Y-117887765D01*
X123367440Y-117640000D01*
X123367440Y-116040000D01*
X123318157Y-115792235D01*
X123177809Y-115582191D01*
X122967765Y-115441843D01*
X122833894Y-115415215D01*
X122954577Y-115334577D01*
X123271740Y-114859909D01*
X123383113Y-114300000D01*
X123271740Y-113740091D01*
X122954577Y-113265423D01*
X122602242Y-113030000D01*
X122954577Y-112794577D01*
X123271740Y-112319909D01*
X123383113Y-111760000D01*
X123271740Y-111200091D01*
X122954577Y-110725423D01*
X122602242Y-110490000D01*
X122954577Y-110254577D01*
X123271740Y-109779909D01*
X123383113Y-109220000D01*
X123271740Y-108660091D01*
X122954577Y-108185423D01*
X122833894Y-108104785D01*
X122967765Y-108078157D01*
X123177809Y-107937809D01*
X123318157Y-107727765D01*
X123367440Y-107480000D01*
X123367440Y-105880000D01*
X123318157Y-105632235D01*
X123177809Y-105422191D01*
X122967765Y-105281843D01*
X122833894Y-105255215D01*
X122954577Y-105174577D01*
X123271740Y-104699909D01*
X123383113Y-104140000D01*
X123271740Y-103580091D01*
X122954577Y-103105423D01*
X122602242Y-102870000D01*
X122954577Y-102634577D01*
X123271740Y-102159909D01*
X123383113Y-101600000D01*
X123271740Y-101040091D01*
X122954577Y-100565423D01*
X122602242Y-100330000D01*
X122954577Y-100094577D01*
X123271740Y-99619909D01*
X123383113Y-99060000D01*
X123271740Y-98500091D01*
X122954577Y-98025423D01*
X122833894Y-97944785D01*
X122967765Y-97918157D01*
X123177809Y-97777809D01*
X123318157Y-97567765D01*
X123367440Y-97320000D01*
X123367440Y-96520000D01*
X128076887Y-96520000D01*
X128188260Y-97079909D01*
X128505423Y-97554577D01*
X128857758Y-97790000D01*
X128505423Y-98025423D01*
X128188260Y-98500091D01*
X128076887Y-99060000D01*
X128188260Y-99619909D01*
X128505423Y-100094577D01*
X128857758Y-100330000D01*
X128505423Y-100565423D01*
X128188260Y-101040091D01*
X128076887Y-101600000D01*
X128188260Y-102159909D01*
X128505423Y-102634577D01*
X128889108Y-102890947D01*
X128684866Y-102987611D01*
X128308959Y-103402577D01*
X128148096Y-103790961D01*
X128270085Y-104013000D01*
X129413000Y-104013000D01*
X129413000Y-103993000D01*
X129667000Y-103993000D01*
X129667000Y-104013000D01*
X130809915Y-104013000D01*
X130931904Y-103790961D01*
X130771041Y-103402577D01*
X130395134Y-102987611D01*
X130190892Y-102890947D01*
X130574577Y-102634577D01*
X130891740Y-102159909D01*
X131003113Y-101600000D01*
X130891740Y-101040091D01*
X130574577Y-100565423D01*
X130222242Y-100330000D01*
X130574577Y-100094577D01*
X130891740Y-99619909D01*
X131003113Y-99060000D01*
X130891740Y-98500091D01*
X130574577Y-98025423D01*
X130222242Y-97790000D01*
X130574577Y-97554577D01*
X130891740Y-97079909D01*
X131003113Y-96520000D01*
X130891740Y-95960091D01*
X130574577Y-95485423D01*
X130190892Y-95229053D01*
X130395134Y-95132389D01*
X130771041Y-94717423D01*
X130931904Y-94329039D01*
X130809915Y-94107000D01*
X129667000Y-94107000D01*
X129667000Y-94127000D01*
X129413000Y-94127000D01*
X129413000Y-94107000D01*
X128270085Y-94107000D01*
X128148096Y-94329039D01*
X128308959Y-94717423D01*
X128684866Y-95132389D01*
X128889108Y-95229053D01*
X128505423Y-95485423D01*
X128188260Y-95960091D01*
X128076887Y-96520000D01*
X123367440Y-96520000D01*
X123367440Y-95720000D01*
X123318157Y-95472235D01*
X123177809Y-95262191D01*
X122967765Y-95121843D01*
X122833894Y-95095215D01*
X122954577Y-95014577D01*
X123271740Y-94539909D01*
X123383113Y-93980000D01*
X123271740Y-93420091D01*
X122954577Y-92945423D01*
X122602242Y-92710000D01*
X122954577Y-92474577D01*
X123271740Y-91999909D01*
X123383113Y-91440000D01*
X123271740Y-90880091D01*
X122954577Y-90405423D01*
X122602242Y-90170000D01*
X122954577Y-89934577D01*
X123271740Y-89459909D01*
X123383113Y-88900000D01*
X123271740Y-88340091D01*
X122954577Y-87865423D01*
X122833894Y-87784785D01*
X122967765Y-87758157D01*
X123177809Y-87617809D01*
X123318157Y-87407765D01*
X123367440Y-87160000D01*
X123367440Y-85560000D01*
X123318157Y-85312235D01*
X123177809Y-85102191D01*
X122967765Y-84961843D01*
X122833894Y-84935215D01*
X122954577Y-84854577D01*
X123271740Y-84379909D01*
X123383113Y-83820000D01*
X123271740Y-83260091D01*
X122954577Y-82785423D01*
X122602242Y-82550000D01*
X122954577Y-82314577D01*
X123271740Y-81839909D01*
X123383113Y-81280000D01*
X123271740Y-80720091D01*
X122954577Y-80245423D01*
X122602242Y-80010000D01*
X122954577Y-79774577D01*
X123271740Y-79299909D01*
X123383113Y-78740000D01*
X123271740Y-78180091D01*
X122954577Y-77705423D01*
X122833894Y-77624785D01*
X122967765Y-77598157D01*
X123177809Y-77457809D01*
X123318157Y-77247765D01*
X123367440Y-77000000D01*
X123367440Y-75400000D01*
X123318157Y-75152235D01*
X123177809Y-74942191D01*
X122967765Y-74801843D01*
X122833894Y-74775215D01*
X122954577Y-74694577D01*
X123271740Y-74219909D01*
X123383113Y-73660000D01*
X123271740Y-73100091D01*
X122954577Y-72625423D01*
X122602242Y-72390000D01*
X122954577Y-72154577D01*
X123271740Y-71679909D01*
X123383113Y-71120000D01*
X123271740Y-70560091D01*
X122954577Y-70085423D01*
X122602242Y-69850000D01*
X122954577Y-69614577D01*
X123271740Y-69139909D01*
X123383113Y-68580000D01*
X123271740Y-68020091D01*
X122954577Y-67545423D01*
X122833894Y-67464785D01*
X122967765Y-67438157D01*
X123177809Y-67297809D01*
X123318157Y-67087765D01*
X123367440Y-66840000D01*
X123367440Y-65240000D01*
X123318157Y-64992235D01*
X123177809Y-64782191D01*
X122967765Y-64641843D01*
X122720000Y-64592560D01*
X121120000Y-64592560D01*
X120872235Y-64641843D01*
X120662191Y-64782191D01*
X120521843Y-64992235D01*
X120472560Y-65240000D01*
X120472560Y-66840000D01*
X120521843Y-67087765D01*
X120662191Y-67297809D01*
X120872235Y-67438157D01*
X121006106Y-67464785D01*
X120885423Y-67545423D01*
X120568260Y-68020091D01*
X120456887Y-68580000D01*
X119845000Y-68580000D01*
X119845000Y-68234887D01*
X119580862Y-67597201D01*
X119092799Y-67109138D01*
X118455113Y-66845000D01*
X117764887Y-66845000D01*
X117127201Y-67109138D01*
X116639138Y-67597201D01*
X116375000Y-68234887D01*
X113792000Y-68234887D01*
X113792000Y-60515431D01*
X114605000Y-60515431D01*
X114605000Y-61404569D01*
X114945259Y-62226026D01*
X115573974Y-62854741D01*
X116395431Y-63195000D01*
X117284569Y-63195000D01*
X118106026Y-62854741D01*
X118734741Y-62226026D01*
X119075000Y-61404569D01*
X119075000Y-60515431D01*
X118734741Y-59693974D01*
X118106026Y-59065259D01*
X117284569Y-58725000D01*
X116395431Y-58725000D01*
X115573974Y-59065259D01*
X114945259Y-59693974D01*
X114605000Y-60515431D01*
X113792000Y-60515431D01*
X113792000Y-57912000D01*
X154178000Y-57912000D01*
X154178000Y-69090000D01*
G36*
X149560000Y-76014017D02*
X149560000Y-76385983D01*
X149702345Y-76729635D01*
X149735001Y-76762291D01*
X149735000Y-77155198D01*
X149545199Y-77345000D01*
X138992290Y-77345000D01*
X138959635Y-77312345D01*
X138615983Y-77170000D01*
X138244017Y-77170000D01*
X137900365Y-77312345D01*
X137637345Y-77575365D01*
X137495000Y-77919017D01*
X137495000Y-78290983D01*
X137637345Y-78634635D01*
X137900365Y-78897655D01*
X138244017Y-79040000D01*
X138615983Y-79040000D01*
X138959635Y-78897655D01*
X138992290Y-78865000D01*
X149785153Y-78865000D01*
X149860000Y-78879888D01*
X149934847Y-78865000D01*
X149934852Y-78865000D01*
X150156537Y-78820904D01*
X150407929Y-78652929D01*
X150450331Y-78589470D01*
X150979473Y-78060329D01*
X151042929Y-78017929D01*
X151210904Y-77766537D01*
X151255000Y-77544852D01*
X151255000Y-77544848D01*
X151269888Y-77470000D01*
X151255000Y-77395152D01*
X151255000Y-77159315D01*
X151329375Y-77270625D01*
X151627761Y-77470000D01*
X151329375Y-77669375D01*
X151001161Y-78160582D01*
X150885908Y-78740000D01*
X151001161Y-79319418D01*
X151329375Y-79810625D01*
X151627761Y-80010000D01*
X151329375Y-80209375D01*
X151121822Y-80520000D01*
X138744802Y-80520000D01*
X135555000Y-77330199D01*
X135555000Y-77284017D01*
X135420788Y-76960000D01*
X146757710Y-76960000D01*
X146790365Y-76992655D01*
X147134017Y-77135000D01*
X147505983Y-77135000D01*
X147849635Y-76992655D01*
X148112655Y-76729635D01*
X148255000Y-76385983D01*
X148255000Y-76014017D01*
X148120788Y-75690000D01*
X149694212Y-75690000D01*
X149560000Y-76014017D01*
X149560000Y-76014017D01*
G37*
X149560000Y-76014017D02*
X149560000Y-76385983D01*
X149702345Y-76729635D01*
X149735001Y-76762291D01*
X149735000Y-77155198D01*
X149545199Y-77345000D01*
X138992290Y-77345000D01*
X138959635Y-77312345D01*
X138615983Y-77170000D01*
X138244017Y-77170000D01*
X137900365Y-77312345D01*
X137637345Y-77575365D01*
X137495000Y-77919017D01*
X137495000Y-78290983D01*
X137637345Y-78634635D01*
X137900365Y-78897655D01*
X138244017Y-79040000D01*
X138615983Y-79040000D01*
X138959635Y-78897655D01*
X138992290Y-78865000D01*
X149785153Y-78865000D01*
X149860000Y-78879888D01*
X149934847Y-78865000D01*
X149934852Y-78865000D01*
X150156537Y-78820904D01*
X150407929Y-78652929D01*
X150450331Y-78589470D01*
X150979473Y-78060329D01*
X151042929Y-78017929D01*
X151210904Y-77766537D01*
X151255000Y-77544852D01*
X151255000Y-77544848D01*
X151269888Y-77470000D01*
X151255000Y-77395152D01*
X151255000Y-77159315D01*
X151329375Y-77270625D01*
X151627761Y-77470000D01*
X151329375Y-77669375D01*
X151001161Y-78160582D01*
X150885908Y-78740000D01*
X151001161Y-79319418D01*
X151329375Y-79810625D01*
X151627761Y-80010000D01*
X151329375Y-80209375D01*
X151121822Y-80520000D01*
X138744802Y-80520000D01*
X135555000Y-77330199D01*
X135555000Y-77284017D01*
X135420788Y-76960000D01*
X146757710Y-76960000D01*
X146790365Y-76992655D01*
X147134017Y-77135000D01*
X147505983Y-77135000D01*
X147849635Y-76992655D01*
X148112655Y-76729635D01*
X148255000Y-76385983D01*
X148255000Y-76014017D01*
X148120788Y-75690000D01*
X149694212Y-75690000D01*
X149560000Y-76014017D01*
G36*
X140674868Y-66184670D02*
X140404884Y-66454654D01*
X140395879Y-66476394D01*
X140247060Y-66427545D01*
X139364605Y-67310000D01*
X140247060Y-68192455D01*
X140395879Y-68143606D01*
X140404884Y-68165346D01*
X140694538Y-68455000D01*
X140040230Y-68455000D01*
X140067455Y-68372060D01*
X139185000Y-67489605D01*
X138302545Y-68372060D01*
X138385884Y-68625953D01*
X138513483Y-68672441D01*
X138474671Y-68730527D01*
X138115199Y-69090000D01*
X130901668Y-69090000D01*
X131003113Y-68580000D01*
X130891740Y-68020091D01*
X130574577Y-67545423D01*
X130222242Y-67310000D01*
X130573485Y-67075306D01*
X137663410Y-67075306D01*
X137689421Y-67675458D01*
X137869047Y-68109116D01*
X138122940Y-68192455D01*
X139005395Y-67310000D01*
X138122940Y-66427545D01*
X137869047Y-66510884D01*
X137663410Y-67075306D01*
X130573485Y-67075306D01*
X130574577Y-67074577D01*
X130891740Y-66599909D01*
X130961751Y-66247940D01*
X138302545Y-66247940D01*
X139185000Y-67130395D01*
X140067455Y-66247940D01*
X139984116Y-65994047D01*
X139419694Y-65788410D01*
X138819542Y-65814421D01*
X138385884Y-65994047D01*
X138302545Y-66247940D01*
X130961751Y-66247940D01*
X131003113Y-66040000D01*
X130901668Y-65530000D01*
X140020199Y-65530000D01*
X140674868Y-66184670D01*
X140674868Y-66184670D01*
G37*
X140674868Y-66184670D02*
X140404884Y-66454654D01*
X140395879Y-66476394D01*
X140247060Y-66427545D01*
X139364605Y-67310000D01*
X140247060Y-68192455D01*
X140395879Y-68143606D01*
X140404884Y-68165346D01*
X140694538Y-68455000D01*
X140040230Y-68455000D01*
X140067455Y-68372060D01*
X139185000Y-67489605D01*
X138302545Y-68372060D01*
X138385884Y-68625953D01*
X138513483Y-68672441D01*
X138474671Y-68730527D01*
X138115199Y-69090000D01*
X130901668Y-69090000D01*
X131003113Y-68580000D01*
X130891740Y-68020091D01*
X130574577Y-67545423D01*
X130222242Y-67310000D01*
X130573485Y-67075306D01*
X137663410Y-67075306D01*
X137689421Y-67675458D01*
X137869047Y-68109116D01*
X138122940Y-68192455D01*
X139005395Y-67310000D01*
X138122940Y-66427545D01*
X137869047Y-66510884D01*
X137663410Y-67075306D01*
X130573485Y-67075306D01*
X130574577Y-67074577D01*
X130891740Y-66599909D01*
X130961751Y-66247940D01*
X138302545Y-66247940D01*
X139185000Y-67130395D01*
X140067455Y-66247940D01*
X139984116Y-65994047D01*
X139419694Y-65788410D01*
X138819542Y-65814421D01*
X138385884Y-65994047D01*
X138302545Y-66247940D01*
X130961751Y-66247940D01*
X131003113Y-66040000D01*
X130901668Y-65530000D01*
X140020199Y-65530000D01*
X140674868Y-66184670D01*
G04 #@! TO.N,GNDA*
G36*
X208788000Y-130048000D02*
X155067000Y-130048000D01*
X155067000Y-128555750D01*
X177635000Y-128555750D01*
X177635000Y-129196309D01*
X177731673Y-129429698D01*
X177910301Y-129608327D01*
X178143690Y-129705000D01*
X178784250Y-129705000D01*
X178943000Y-129546250D01*
X178943000Y-128397000D01*
X179197000Y-128397000D01*
X179197000Y-129546250D01*
X179355750Y-129705000D01*
X179996310Y-129705000D01*
X180229699Y-129608327D01*
X180408327Y-129429698D01*
X180505000Y-129196309D01*
X180505000Y-129168062D01*
X180872577Y-129501041D01*
X181260961Y-129661904D01*
X181483000Y-129539915D01*
X181483000Y-128397000D01*
X181737000Y-128397000D01*
X181737000Y-129539915D01*
X181959039Y-129661904D01*
X182347423Y-129501041D01*
X182762389Y-129125134D01*
X182880000Y-128876633D01*
X182997611Y-129125134D01*
X183412577Y-129501041D01*
X183800961Y-129661904D01*
X184023000Y-129539915D01*
X184023000Y-128397000D01*
X184277000Y-128397000D01*
X184277000Y-129539915D01*
X184499039Y-129661904D01*
X184887423Y-129501041D01*
X185302389Y-129125134D01*
X185420000Y-128876633D01*
X185537611Y-129125134D01*
X185952577Y-129501041D01*
X186340961Y-129661904D01*
X186563000Y-129539915D01*
X186563000Y-128397000D01*
X186817000Y-128397000D01*
X186817000Y-129539915D01*
X187039039Y-129661904D01*
X187427423Y-129501041D01*
X187842389Y-129125134D01*
X188081914Y-128619041D01*
X187960629Y-128397000D01*
X186817000Y-128397000D01*
X186563000Y-128397000D01*
X184277000Y-128397000D01*
X184023000Y-128397000D01*
X181737000Y-128397000D01*
X181483000Y-128397000D01*
X179197000Y-128397000D01*
X178943000Y-128397000D01*
X177793750Y-128397000D01*
X177635000Y-128555750D01*
X155067000Y-128555750D01*
X155067000Y-127343691D01*
X177635000Y-127343691D01*
X177635000Y-127984250D01*
X177793750Y-128143000D01*
X178943000Y-128143000D01*
X178943000Y-126993750D01*
X179197000Y-126993750D01*
X179197000Y-128143000D01*
X181483000Y-128143000D01*
X181483000Y-127000085D01*
X181737000Y-127000085D01*
X181737000Y-128143000D01*
X184023000Y-128143000D01*
X184023000Y-127000085D01*
X184277000Y-127000085D01*
X184277000Y-128143000D01*
X186563000Y-128143000D01*
X186563000Y-127000085D01*
X186817000Y-127000085D01*
X186817000Y-128143000D01*
X187960629Y-128143000D01*
X188081914Y-127920959D01*
X187842389Y-127414866D01*
X187427423Y-127038959D01*
X187039039Y-126878096D01*
X186817000Y-127000085D01*
X186563000Y-127000085D01*
X186340961Y-126878096D01*
X185952577Y-127038959D01*
X185537611Y-127414866D01*
X185420000Y-127663367D01*
X185302389Y-127414866D01*
X184887423Y-127038959D01*
X184499039Y-126878096D01*
X184277000Y-127000085D01*
X184023000Y-127000085D01*
X183800961Y-126878096D01*
X183412577Y-127038959D01*
X182997611Y-127414866D01*
X182880000Y-127663367D01*
X182762389Y-127414866D01*
X182347423Y-127038959D01*
X181959039Y-126878096D01*
X181737000Y-127000085D01*
X181483000Y-127000085D01*
X181260961Y-126878096D01*
X180872577Y-127038959D01*
X180505000Y-127371938D01*
X180505000Y-127343691D01*
X180408327Y-127110302D01*
X180229699Y-126931673D01*
X179996310Y-126835000D01*
X179355750Y-126835000D01*
X179197000Y-126993750D01*
X178943000Y-126993750D01*
X178784250Y-126835000D01*
X178143690Y-126835000D01*
X177910301Y-126931673D01*
X177731673Y-127110302D01*
X177635000Y-127343691D01*
X155067000Y-127343691D01*
X155067000Y-127125000D01*
X160580153Y-127125000D01*
X160655000Y-127139888D01*
X160729847Y-127125000D01*
X160729852Y-127125000D01*
X160951537Y-127080904D01*
X161202929Y-126912929D01*
X161245331Y-126849470D01*
X161539370Y-126555431D01*
X203505000Y-126555431D01*
X203505000Y-127444569D01*
X203845259Y-128266026D01*
X204473974Y-128894741D01*
X205295431Y-129235000D01*
X206184569Y-129235000D01*
X207006026Y-128894741D01*
X207634741Y-128266026D01*
X207975000Y-127444569D01*
X207975000Y-126555431D01*
X207634741Y-125733974D01*
X207006026Y-125105259D01*
X206184569Y-124765000D01*
X205295431Y-124765000D01*
X204473974Y-125105259D01*
X203845259Y-125733974D01*
X203505000Y-126555431D01*
X161539370Y-126555431D01*
X163679476Y-124415327D01*
X163742929Y-124372929D01*
X163785327Y-124309476D01*
X163785329Y-124309474D01*
X163910903Y-124121538D01*
X163910904Y-124121537D01*
X163955000Y-123899852D01*
X163955000Y-123899848D01*
X163969888Y-123825001D01*
X163955000Y-123750154D01*
X163955000Y-112957290D01*
X163987655Y-112924635D01*
X164130000Y-112580983D01*
X164130000Y-112534801D01*
X166060782Y-110604020D01*
X166092119Y-110617000D01*
X166647881Y-110617000D01*
X167161337Y-110404320D01*
X167554320Y-110011337D01*
X167767000Y-109497881D01*
X167767000Y-108942119D01*
X167554320Y-108428663D01*
X167161337Y-108035680D01*
X166954487Y-107950000D01*
X167161337Y-107864320D01*
X167554320Y-107471337D01*
X167767000Y-106957881D01*
X167767000Y-106402119D01*
X167554320Y-105888663D01*
X167161337Y-105495680D01*
X166954487Y-105410000D01*
X167161337Y-105324320D01*
X167554320Y-104931337D01*
X167767000Y-104417881D01*
X167767000Y-104071802D01*
X168110001Y-104414803D01*
X168110000Y-119330390D01*
X168014654Y-119369884D01*
X167845504Y-119539034D01*
X167843157Y-119527235D01*
X167702809Y-119317191D01*
X167492765Y-119176843D01*
X167245000Y-119127560D01*
X165495000Y-119127560D01*
X165247235Y-119176843D01*
X165037191Y-119317191D01*
X164896843Y-119527235D01*
X164847560Y-119775000D01*
X164847560Y-121525000D01*
X164896843Y-121772765D01*
X165037191Y-121982809D01*
X165247235Y-122123157D01*
X165495000Y-122172440D01*
X167245000Y-122172440D01*
X167492765Y-122123157D01*
X167702809Y-121982809D01*
X167843157Y-121772765D01*
X167845504Y-121760966D01*
X168014654Y-121930116D01*
X168569642Y-122160000D01*
X169170358Y-122160000D01*
X169725346Y-121930116D01*
X170120000Y-121535462D01*
X170514654Y-121930116D01*
X171069642Y-122160000D01*
X171670358Y-122160000D01*
X172225346Y-121930116D01*
X172650116Y-121505346D01*
X172880000Y-120950358D01*
X172880000Y-120650000D01*
X177606887Y-120650000D01*
X177718260Y-121209909D01*
X178035423Y-121684577D01*
X178510091Y-122001740D01*
X178928667Y-122085000D01*
X179211333Y-122085000D01*
X179629909Y-122001740D01*
X180104577Y-121684577D01*
X180340000Y-121332242D01*
X180575423Y-121684577D01*
X181050091Y-122001740D01*
X181468667Y-122085000D01*
X181751333Y-122085000D01*
X182169909Y-122001740D01*
X182644577Y-121684577D01*
X182880000Y-121332242D01*
X183115423Y-121684577D01*
X183590091Y-122001740D01*
X184008667Y-122085000D01*
X184291333Y-122085000D01*
X184709909Y-122001740D01*
X185184577Y-121684577D01*
X185420000Y-121332242D01*
X185655423Y-121684577D01*
X186130091Y-122001740D01*
X186548667Y-122085000D01*
X186831333Y-122085000D01*
X187249909Y-122001740D01*
X187724577Y-121684577D01*
X188041740Y-121209909D01*
X188153113Y-120650000D01*
X188041740Y-120090091D01*
X187724577Y-119615423D01*
X187249909Y-119298260D01*
X186831333Y-119215000D01*
X186548667Y-119215000D01*
X186130091Y-119298260D01*
X185655423Y-119615423D01*
X185420000Y-119967758D01*
X185184577Y-119615423D01*
X184709909Y-119298260D01*
X184291333Y-119215000D01*
X184008667Y-119215000D01*
X183590091Y-119298260D01*
X183115423Y-119615423D01*
X182880000Y-119967758D01*
X182644577Y-119615423D01*
X182169909Y-119298260D01*
X181751333Y-119215000D01*
X181468667Y-119215000D01*
X181050091Y-119298260D01*
X180575423Y-119615423D01*
X180340000Y-119967758D01*
X180104577Y-119615423D01*
X179629909Y-119298260D01*
X179211333Y-119215000D01*
X178928667Y-119215000D01*
X178510091Y-119298260D01*
X178035423Y-119615423D01*
X177718260Y-120090091D01*
X177606887Y-120650000D01*
X172880000Y-120650000D01*
X172880000Y-120349642D01*
X172650116Y-119794654D01*
X172225346Y-119369884D01*
X171670358Y-119140000D01*
X171069642Y-119140000D01*
X170514654Y-119369884D01*
X170120000Y-119764538D01*
X169725346Y-119369884D01*
X169630000Y-119330390D01*
X169630000Y-118505000D01*
X197867560Y-118505000D01*
X197867560Y-120255000D01*
X197916843Y-120502765D01*
X198057191Y-120712809D01*
X198267235Y-120853157D01*
X198515000Y-120902440D01*
X200265000Y-120902440D01*
X200512765Y-120853157D01*
X200722809Y-120712809D01*
X200863157Y-120502765D01*
X200912440Y-120255000D01*
X200912440Y-118505000D01*
X200863157Y-118257235D01*
X200722809Y-118047191D01*
X200512765Y-117906843D01*
X200500966Y-117904496D01*
X200670116Y-117735346D01*
X200900000Y-117180358D01*
X200900000Y-116579642D01*
X200670116Y-116024654D01*
X200245346Y-115599884D01*
X199690358Y-115370000D01*
X199089642Y-115370000D01*
X198534654Y-115599884D01*
X198109884Y-116024654D01*
X197880000Y-116579642D01*
X197880000Y-117180358D01*
X198109884Y-117735346D01*
X198279034Y-117904496D01*
X198267235Y-117906843D01*
X198057191Y-118047191D01*
X197916843Y-118257235D01*
X197867560Y-118505000D01*
X169630000Y-118505000D01*
X169630000Y-104174848D01*
X169644888Y-104100000D01*
X169630000Y-104025152D01*
X169630000Y-104025148D01*
X169585904Y-103803463D01*
X169585904Y-103803462D01*
X169460329Y-103615527D01*
X169417929Y-103552071D01*
X169354473Y-103509671D01*
X168230331Y-102385530D01*
X168187929Y-102322071D01*
X167936537Y-102154096D01*
X167714852Y-102110000D01*
X167714847Y-102110000D01*
X167674202Y-102101915D01*
X167767000Y-101877881D01*
X167767000Y-101322119D01*
X167674202Y-101098085D01*
X167714846Y-101090000D01*
X182849147Y-101090000D01*
X182753000Y-101322119D01*
X182753000Y-101877881D01*
X182965680Y-102391337D01*
X183358663Y-102784320D01*
X183565513Y-102870000D01*
X183358663Y-102955680D01*
X182965680Y-103348663D01*
X182753000Y-103862119D01*
X182753000Y-104417881D01*
X182965680Y-104931337D01*
X183358663Y-105324320D01*
X183565513Y-105410000D01*
X183358663Y-105495680D01*
X182965680Y-105888663D01*
X182753000Y-106402119D01*
X182753000Y-106957881D01*
X182965680Y-107471337D01*
X183358663Y-107864320D01*
X183565513Y-107950000D01*
X183358663Y-108035680D01*
X182965680Y-108428663D01*
X182753000Y-108942119D01*
X182753000Y-109497881D01*
X182965680Y-110011337D01*
X183358663Y-110404320D01*
X183872119Y-110617000D01*
X184427881Y-110617000D01*
X184941337Y-110404320D01*
X185334320Y-110011337D01*
X185547000Y-109497881D01*
X185547000Y-108942119D01*
X185334320Y-108428663D01*
X184941337Y-108035680D01*
X184734487Y-107950000D01*
X184941337Y-107864320D01*
X185334320Y-107471337D01*
X185547000Y-106957881D01*
X185547000Y-106402119D01*
X185334320Y-105888663D01*
X184941337Y-105495680D01*
X184734487Y-105410000D01*
X184941337Y-105324320D01*
X185334320Y-104931337D01*
X185547000Y-104417881D01*
X185547000Y-103862119D01*
X185334320Y-103348663D01*
X184941337Y-102955680D01*
X184734487Y-102870000D01*
X184941337Y-102784320D01*
X185334320Y-102391337D01*
X185547000Y-101877881D01*
X185547000Y-101322119D01*
X185450853Y-101090000D01*
X186375199Y-101090000D01*
X190835000Y-105549802D01*
X190835000Y-105595983D01*
X190977345Y-105939635D01*
X191240365Y-106202655D01*
X191584017Y-106345000D01*
X191955983Y-106345000D01*
X192299635Y-106202655D01*
X192562655Y-105939635D01*
X192705000Y-105595983D01*
X192705000Y-105224017D01*
X194645000Y-105224017D01*
X194645000Y-105595983D01*
X194787345Y-105939635D01*
X194820001Y-105972291D01*
X194820000Y-109927710D01*
X194787345Y-109960365D01*
X194645000Y-110304017D01*
X194645000Y-110675983D01*
X194787345Y-111019635D01*
X195050365Y-111282655D01*
X195394017Y-111425000D01*
X195765983Y-111425000D01*
X196109635Y-111282655D01*
X196372655Y-111019635D01*
X196515000Y-110675983D01*
X196515000Y-110304017D01*
X196372655Y-109960365D01*
X196340000Y-109927710D01*
X196340000Y-109615000D01*
X197867560Y-109615000D01*
X197867560Y-111365000D01*
X197916843Y-111612765D01*
X198057191Y-111822809D01*
X198267235Y-111963157D01*
X198515000Y-112012440D01*
X200265000Y-112012440D01*
X200512765Y-111963157D01*
X200722809Y-111822809D01*
X200863157Y-111612765D01*
X200912440Y-111365000D01*
X200912440Y-109615000D01*
X200863157Y-109367235D01*
X200722809Y-109157191D01*
X200512765Y-109016843D01*
X200500966Y-109014496D01*
X200670116Y-108845346D01*
X200900000Y-108290358D01*
X200900000Y-107689642D01*
X200670116Y-107134654D01*
X200245346Y-106709884D01*
X200223606Y-106700879D01*
X200272455Y-106552060D01*
X199390000Y-105669605D01*
X198507545Y-106552060D01*
X198556394Y-106700879D01*
X198534654Y-106709884D01*
X198109884Y-107134654D01*
X197880000Y-107689642D01*
X197880000Y-108290358D01*
X198109884Y-108845346D01*
X198279034Y-109014496D01*
X198267235Y-109016843D01*
X198057191Y-109157191D01*
X197916843Y-109367235D01*
X197867560Y-109615000D01*
X196340000Y-109615000D01*
X196340000Y-105972290D01*
X196372655Y-105939635D01*
X196515000Y-105595983D01*
X196515000Y-105255306D01*
X197868410Y-105255306D01*
X197894421Y-105855458D01*
X198074047Y-106289116D01*
X198327940Y-106372455D01*
X199210395Y-105490000D01*
X199569605Y-105490000D01*
X200452060Y-106372455D01*
X200705953Y-106289116D01*
X200911590Y-105724694D01*
X200885579Y-105124542D01*
X200705953Y-104690884D01*
X200452060Y-104607545D01*
X199569605Y-105490000D01*
X199210395Y-105490000D01*
X198327940Y-104607545D01*
X198074047Y-104690884D01*
X197868410Y-105255306D01*
X196515000Y-105255306D01*
X196515000Y-105224017D01*
X196372655Y-104880365D01*
X196109635Y-104617345D01*
X195765983Y-104475000D01*
X195394017Y-104475000D01*
X195050365Y-104617345D01*
X194787345Y-104880365D01*
X194645000Y-105224017D01*
X192705000Y-105224017D01*
X192562655Y-104880365D01*
X192299635Y-104617345D01*
X191955983Y-104475000D01*
X191909802Y-104475000D01*
X191862742Y-104427940D01*
X198507545Y-104427940D01*
X199390000Y-105310395D01*
X200272455Y-104427940D01*
X200189116Y-104174047D01*
X199624694Y-103968410D01*
X199024542Y-103994421D01*
X198590884Y-104174047D01*
X198507545Y-104427940D01*
X191862742Y-104427940D01*
X187280331Y-99845530D01*
X187237929Y-99782071D01*
X186986537Y-99614096D01*
X186764852Y-99570000D01*
X186764847Y-99570000D01*
X186690000Y-99555112D01*
X186615153Y-99570000D01*
X185450853Y-99570000D01*
X185547000Y-99337881D01*
X185547000Y-98782119D01*
X185334320Y-98268663D01*
X185250657Y-98185000D01*
X197867560Y-98185000D01*
X197867560Y-99935000D01*
X197916843Y-100182765D01*
X198057191Y-100392809D01*
X198267235Y-100533157D01*
X198515000Y-100582440D01*
X200265000Y-100582440D01*
X200512765Y-100533157D01*
X200722809Y-100392809D01*
X200863157Y-100182765D01*
X200912440Y-99935000D01*
X200912440Y-98185000D01*
X200863157Y-97937235D01*
X200722809Y-97727191D01*
X200512765Y-97586843D01*
X200500966Y-97584496D01*
X200670116Y-97415346D01*
X200900000Y-96860358D01*
X200900000Y-96259642D01*
X200670116Y-95704654D01*
X200245346Y-95279884D01*
X200223606Y-95270879D01*
X200272455Y-95122060D01*
X199390000Y-94239605D01*
X198507545Y-95122060D01*
X198556394Y-95270879D01*
X198534654Y-95279884D01*
X198109884Y-95704654D01*
X197880000Y-96259642D01*
X197880000Y-96860358D01*
X198109884Y-97415346D01*
X198279034Y-97584496D01*
X198267235Y-97586843D01*
X198057191Y-97727191D01*
X197916843Y-97937235D01*
X197867560Y-98185000D01*
X185250657Y-98185000D01*
X184941337Y-97875680D01*
X184734487Y-97790000D01*
X184941337Y-97704320D01*
X185334320Y-97311337D01*
X185547000Y-96797881D01*
X185547000Y-96242119D01*
X185334320Y-95728663D01*
X184941337Y-95335680D01*
X184734487Y-95250000D01*
X184941337Y-95164320D01*
X185334320Y-94771337D01*
X185547000Y-94257881D01*
X185547000Y-93825306D01*
X197868410Y-93825306D01*
X197894421Y-94425458D01*
X198074047Y-94859116D01*
X198327940Y-94942455D01*
X199210395Y-94060000D01*
X199569605Y-94060000D01*
X200452060Y-94942455D01*
X200705953Y-94859116D01*
X200911590Y-94294694D01*
X200885579Y-93694542D01*
X200705953Y-93260884D01*
X200452060Y-93177545D01*
X199569605Y-94060000D01*
X199210395Y-94060000D01*
X198327940Y-93177545D01*
X198074047Y-93260884D01*
X197868410Y-93825306D01*
X185547000Y-93825306D01*
X185547000Y-93702119D01*
X185334320Y-93188663D01*
X185143597Y-92997940D01*
X198507545Y-92997940D01*
X199390000Y-93880395D01*
X200272455Y-92997940D01*
X200189116Y-92744047D01*
X199624694Y-92538410D01*
X199024542Y-92564421D01*
X198590884Y-92744047D01*
X198507545Y-92997940D01*
X185143597Y-92997940D01*
X184941337Y-92795680D01*
X184734487Y-92710000D01*
X184941337Y-92624320D01*
X185334320Y-92231337D01*
X185547000Y-91717881D01*
X185547000Y-91162119D01*
X185334320Y-90648663D01*
X184941337Y-90255680D01*
X184734487Y-90170000D01*
X184941337Y-90084320D01*
X185334320Y-89691337D01*
X185547000Y-89177881D01*
X185547000Y-88622119D01*
X185334320Y-88108663D01*
X184941337Y-87715680D01*
X184734487Y-87630000D01*
X184941337Y-87544320D01*
X185334320Y-87151337D01*
X185547000Y-86637881D01*
X185547000Y-86082119D01*
X185334320Y-85568663D01*
X184941337Y-85175680D01*
X184734487Y-85090000D01*
X184941337Y-85004320D01*
X185334320Y-84611337D01*
X185547000Y-84097881D01*
X185547000Y-83542119D01*
X185334320Y-83028663D01*
X184941337Y-82635680D01*
X184734487Y-82550000D01*
X184941337Y-82464320D01*
X185334320Y-82071337D01*
X185547000Y-81557881D01*
X185547000Y-81094017D01*
X195915000Y-81094017D01*
X195915000Y-81465983D01*
X196057345Y-81809635D01*
X196090000Y-81842290D01*
X196090001Y-86920148D01*
X196075112Y-86995000D01*
X196090001Y-87069852D01*
X196134097Y-87291537D01*
X196302072Y-87542929D01*
X196365528Y-87585329D01*
X196894671Y-88114473D01*
X196937071Y-88177929D01*
X197188463Y-88345904D01*
X197410148Y-88390000D01*
X197410152Y-88390000D01*
X197485000Y-88404888D01*
X197559848Y-88390000D01*
X197867560Y-88390000D01*
X197867560Y-88505000D01*
X197916843Y-88752765D01*
X198057191Y-88962809D01*
X198267235Y-89103157D01*
X198515000Y-89152440D01*
X200265000Y-89152440D01*
X200512765Y-89103157D01*
X200722809Y-88962809D01*
X200863157Y-88752765D01*
X200912440Y-88505000D01*
X200912440Y-86755000D01*
X200863157Y-86507235D01*
X200722809Y-86297191D01*
X200512765Y-86156843D01*
X200500966Y-86154496D01*
X200670116Y-85985346D01*
X200900000Y-85430358D01*
X200900000Y-84829642D01*
X200670116Y-84274654D01*
X200275462Y-83880000D01*
X200670116Y-83485346D01*
X200900000Y-82930358D01*
X200900000Y-82329642D01*
X200670116Y-81774654D01*
X200245346Y-81349884D01*
X200223606Y-81340879D01*
X200272455Y-81192060D01*
X199390000Y-80309605D01*
X198507545Y-81192060D01*
X198556394Y-81340879D01*
X198534654Y-81349884D01*
X198109884Y-81774654D01*
X197880000Y-82329642D01*
X197880000Y-82930358D01*
X198109884Y-83485346D01*
X198504538Y-83880000D01*
X198109884Y-84274654D01*
X197880000Y-84829642D01*
X197880000Y-85430358D01*
X198109884Y-85985346D01*
X198279034Y-86154496D01*
X198267235Y-86156843D01*
X198057191Y-86297191D01*
X197916843Y-86507235D01*
X197867560Y-86755000D01*
X197867560Y-86870000D01*
X197799802Y-86870000D01*
X197610000Y-86680199D01*
X197610000Y-81842290D01*
X197642655Y-81809635D01*
X197785000Y-81465983D01*
X197785000Y-81094017D01*
X197642655Y-80750365D01*
X197379635Y-80487345D01*
X197035983Y-80345000D01*
X196664017Y-80345000D01*
X196320365Y-80487345D01*
X196057345Y-80750365D01*
X195915000Y-81094017D01*
X185547000Y-81094017D01*
X185547000Y-81002119D01*
X185334320Y-80488663D01*
X184941337Y-80095680D01*
X184734487Y-80010000D01*
X184941337Y-79924320D01*
X184970351Y-79895306D01*
X197868410Y-79895306D01*
X197894421Y-80495458D01*
X198074047Y-80929116D01*
X198327940Y-81012455D01*
X199210395Y-80130000D01*
X199569605Y-80130000D01*
X200452060Y-81012455D01*
X200705953Y-80929116D01*
X200911590Y-80364694D01*
X200885579Y-79764542D01*
X200705953Y-79330884D01*
X200452060Y-79247545D01*
X199569605Y-80130000D01*
X199210395Y-80130000D01*
X198327940Y-79247545D01*
X198074047Y-79330884D01*
X197868410Y-79895306D01*
X184970351Y-79895306D01*
X185334320Y-79531337D01*
X185526264Y-79067940D01*
X198507545Y-79067940D01*
X199390000Y-79950395D01*
X200272455Y-79067940D01*
X200189116Y-78814047D01*
X199624694Y-78608410D01*
X199024542Y-78634421D01*
X198590884Y-78814047D01*
X198507545Y-79067940D01*
X185526264Y-79067940D01*
X185547000Y-79017881D01*
X185547000Y-78462119D01*
X185334320Y-77948663D01*
X184941337Y-77555680D01*
X184734487Y-77470000D01*
X184941337Y-77384320D01*
X185334320Y-76991337D01*
X185547000Y-76477881D01*
X185547000Y-75922119D01*
X185334320Y-75408663D01*
X184941337Y-75015680D01*
X184734487Y-74930000D01*
X184941337Y-74844320D01*
X185334320Y-74451337D01*
X185547000Y-73937881D01*
X185547000Y-73382119D01*
X185334320Y-72868663D01*
X185250657Y-72785000D01*
X197867560Y-72785000D01*
X197867560Y-74535000D01*
X197916843Y-74782765D01*
X198057191Y-74992809D01*
X198267235Y-75133157D01*
X198515000Y-75182440D01*
X200265000Y-75182440D01*
X200512765Y-75133157D01*
X200722809Y-74992809D01*
X200863157Y-74782765D01*
X200912440Y-74535000D01*
X200912440Y-72785000D01*
X200863157Y-72537235D01*
X200722809Y-72327191D01*
X200527255Y-72196525D01*
X200566694Y-72157086D01*
X200452062Y-72042454D01*
X200705953Y-71959116D01*
X200911590Y-71394694D01*
X200885579Y-70794542D01*
X200705953Y-70360884D01*
X200452060Y-70277545D01*
X199569605Y-71160000D01*
X199583748Y-71174143D01*
X199404143Y-71353748D01*
X199390000Y-71339605D01*
X199375858Y-71353748D01*
X199196253Y-71174143D01*
X199210395Y-71160000D01*
X198327940Y-70277545D01*
X198074047Y-70360884D01*
X197868410Y-70925306D01*
X197894421Y-71525458D01*
X198074047Y-71959116D01*
X198327938Y-72042454D01*
X198213306Y-72157086D01*
X198252745Y-72196525D01*
X198057191Y-72327191D01*
X197916843Y-72537235D01*
X197867560Y-72785000D01*
X185250657Y-72785000D01*
X184941337Y-72475680D01*
X184734487Y-72390000D01*
X184941337Y-72304320D01*
X185334320Y-71911337D01*
X185547000Y-71397881D01*
X185547000Y-70842119D01*
X185334320Y-70328663D01*
X185103597Y-70097940D01*
X198507545Y-70097940D01*
X199390000Y-70980395D01*
X200272455Y-70097940D01*
X200189116Y-69844047D01*
X199624694Y-69638410D01*
X199024542Y-69664421D01*
X198590884Y-69844047D01*
X198507545Y-70097940D01*
X185103597Y-70097940D01*
X184941337Y-69935680D01*
X184750353Y-69856572D01*
X184881143Y-69802397D01*
X184950608Y-69560213D01*
X184150000Y-68759605D01*
X183349392Y-69560213D01*
X183418857Y-69802397D01*
X183559393Y-69852535D01*
X183358663Y-69935680D01*
X182965680Y-70328663D01*
X182753000Y-70842119D01*
X182753000Y-71397881D01*
X182965680Y-71911337D01*
X183358663Y-72304320D01*
X183565513Y-72390000D01*
X183358663Y-72475680D01*
X182965680Y-72868663D01*
X182753000Y-73382119D01*
X182753000Y-73937881D01*
X182965680Y-74451337D01*
X183358663Y-74844320D01*
X183565513Y-74930000D01*
X183358663Y-75015680D01*
X182965680Y-75408663D01*
X182753000Y-75922119D01*
X182753000Y-76477881D01*
X182965680Y-76991337D01*
X183358663Y-77384320D01*
X183565513Y-77470000D01*
X183358663Y-77555680D01*
X182965680Y-77948663D01*
X182753000Y-78462119D01*
X182753000Y-79017881D01*
X182965680Y-79531337D01*
X183358663Y-79924320D01*
X183565513Y-80010000D01*
X183358663Y-80095680D01*
X182965680Y-80488663D01*
X182753000Y-81002119D01*
X182753000Y-81557881D01*
X182965680Y-82071337D01*
X183358663Y-82464320D01*
X183565513Y-82550000D01*
X183358663Y-82635680D01*
X182965680Y-83028663D01*
X182753000Y-83542119D01*
X182753000Y-84097881D01*
X182965680Y-84611337D01*
X183358663Y-85004320D01*
X183565513Y-85090000D01*
X183358663Y-85175680D01*
X182965680Y-85568663D01*
X182753000Y-86082119D01*
X182753000Y-86637881D01*
X182965680Y-87151337D01*
X183358663Y-87544320D01*
X183565513Y-87630000D01*
X183358663Y-87715680D01*
X182965680Y-88108663D01*
X182753000Y-88622119D01*
X182753000Y-89177881D01*
X182965680Y-89691337D01*
X183358663Y-90084320D01*
X183565513Y-90170000D01*
X183358663Y-90255680D01*
X182965680Y-90648663D01*
X182753000Y-91162119D01*
X182753000Y-91717881D01*
X182965680Y-92231337D01*
X183358663Y-92624320D01*
X183565513Y-92710000D01*
X183358663Y-92795680D01*
X182965680Y-93188663D01*
X182753000Y-93702119D01*
X182753000Y-94257881D01*
X182965680Y-94771337D01*
X183358663Y-95164320D01*
X183565513Y-95250000D01*
X183358663Y-95335680D01*
X182965680Y-95728663D01*
X182753000Y-96242119D01*
X182753000Y-96797881D01*
X182965680Y-97311337D01*
X183358663Y-97704320D01*
X183565513Y-97790000D01*
X183358663Y-97875680D01*
X182965680Y-98268663D01*
X182753000Y-98782119D01*
X182753000Y-99337881D01*
X182849147Y-99570000D01*
X167954802Y-99570000D01*
X167754020Y-99369218D01*
X167767000Y-99337881D01*
X167767000Y-98782119D01*
X167554320Y-98268663D01*
X167161337Y-97875680D01*
X166954487Y-97790000D01*
X167161337Y-97704320D01*
X167554320Y-97311337D01*
X167767000Y-96797881D01*
X167767000Y-96242119D01*
X167554320Y-95728663D01*
X167161337Y-95335680D01*
X166954487Y-95250000D01*
X167161337Y-95164320D01*
X167554320Y-94771337D01*
X167767000Y-94257881D01*
X167767000Y-93702119D01*
X167554320Y-93188663D01*
X167161337Y-92795680D01*
X166954487Y-92710000D01*
X167161337Y-92624320D01*
X167554320Y-92231337D01*
X167767000Y-91717881D01*
X167767000Y-91162119D01*
X167554320Y-90648663D01*
X167161337Y-90255680D01*
X166954487Y-90170000D01*
X167161337Y-90084320D01*
X167554320Y-89691337D01*
X167767000Y-89177881D01*
X167767000Y-88622119D01*
X167554320Y-88108663D01*
X167161337Y-87715680D01*
X166954487Y-87630000D01*
X167161337Y-87544320D01*
X167554320Y-87151337D01*
X167767000Y-86637881D01*
X167767000Y-86082119D01*
X167554320Y-85568663D01*
X167161337Y-85175680D01*
X166954487Y-85090000D01*
X167161337Y-85004320D01*
X167554320Y-84611337D01*
X167767000Y-84097881D01*
X167767000Y-83542119D01*
X167554320Y-83028663D01*
X167161337Y-82635680D01*
X166954487Y-82550000D01*
X167161337Y-82464320D01*
X167554320Y-82071337D01*
X167767000Y-81557881D01*
X167767000Y-81002119D01*
X167554320Y-80488663D01*
X167161337Y-80095680D01*
X166954487Y-80010000D01*
X167161337Y-79924320D01*
X167554320Y-79531337D01*
X167767000Y-79017881D01*
X167767000Y-78462119D01*
X167554320Y-77948663D01*
X167161337Y-77555680D01*
X166954487Y-77470000D01*
X167161337Y-77384320D01*
X167554320Y-76991337D01*
X167767000Y-76477881D01*
X167767000Y-75922119D01*
X167554320Y-75408663D01*
X167161337Y-75015680D01*
X166970353Y-74936572D01*
X167101143Y-74882397D01*
X167170608Y-74640213D01*
X166370000Y-73839605D01*
X165569392Y-74640213D01*
X165638857Y-74882397D01*
X165779393Y-74932535D01*
X165578663Y-75015680D01*
X165185680Y-75408663D01*
X164973000Y-75922119D01*
X164973000Y-76477881D01*
X165185680Y-76991337D01*
X165578663Y-77384320D01*
X165785513Y-77470000D01*
X165578663Y-77555680D01*
X165185680Y-77948663D01*
X164973000Y-78462119D01*
X164973000Y-79017881D01*
X165185680Y-79531337D01*
X165578663Y-79924320D01*
X165785513Y-80010000D01*
X165578663Y-80095680D01*
X165185680Y-80488663D01*
X164973000Y-81002119D01*
X164973000Y-81348198D01*
X160955000Y-77330199D01*
X160955000Y-77284017D01*
X160812655Y-76940365D01*
X160549635Y-76677345D01*
X160205983Y-76535000D01*
X159834017Y-76535000D01*
X159490365Y-76677345D01*
X159227345Y-76940365D01*
X159085000Y-77284017D01*
X159085000Y-77655983D01*
X159227345Y-77999635D01*
X159490365Y-78262655D01*
X159834017Y-78405000D01*
X159880199Y-78405000D01*
X164985980Y-83510782D01*
X164973000Y-83542119D01*
X164973000Y-84097881D01*
X165185680Y-84611337D01*
X165578663Y-85004320D01*
X165785513Y-85090000D01*
X165578663Y-85175680D01*
X165185680Y-85568663D01*
X164973000Y-86082119D01*
X164973000Y-86637881D01*
X165185680Y-87151337D01*
X165578663Y-87544320D01*
X165785513Y-87630000D01*
X165578663Y-87715680D01*
X165185680Y-88108663D01*
X165172700Y-88140000D01*
X162239802Y-88140000D01*
X158240000Y-84140199D01*
X158240000Y-78032290D01*
X158272655Y-77999635D01*
X158415000Y-77655983D01*
X158415000Y-77284017D01*
X158272655Y-76940365D01*
X158009635Y-76677345D01*
X157665983Y-76535000D01*
X157294017Y-76535000D01*
X156950365Y-76677345D01*
X156687345Y-76940365D01*
X156545000Y-77284017D01*
X156545000Y-77655983D01*
X156687345Y-77999635D01*
X156720000Y-78032290D01*
X156720001Y-84380148D01*
X156705112Y-84455000D01*
X156720001Y-84529852D01*
X156764097Y-84751537D01*
X156932072Y-85002929D01*
X156995528Y-85045329D01*
X161334671Y-89384473D01*
X161377071Y-89447929D01*
X161628463Y-89615904D01*
X161850148Y-89660000D01*
X161850152Y-89660000D01*
X161924999Y-89674888D01*
X161999846Y-89660000D01*
X165172700Y-89660000D01*
X165185680Y-89691337D01*
X165578663Y-90084320D01*
X165785513Y-90170000D01*
X165578663Y-90255680D01*
X165185680Y-90648663D01*
X164973000Y-91162119D01*
X164973000Y-91717881D01*
X165185680Y-92231337D01*
X165578663Y-92624320D01*
X165785513Y-92710000D01*
X165578663Y-92795680D01*
X165185680Y-93188663D01*
X164973000Y-93702119D01*
X164973000Y-94257881D01*
X165185680Y-94771337D01*
X165578663Y-95164320D01*
X165785513Y-95250000D01*
X165578663Y-95335680D01*
X165185680Y-95728663D01*
X164973000Y-96242119D01*
X164973000Y-96797881D01*
X165185680Y-97311337D01*
X165578663Y-97704320D01*
X165785513Y-97790000D01*
X165578663Y-97875680D01*
X165185680Y-98268663D01*
X164973000Y-98782119D01*
X164973000Y-99337881D01*
X165185680Y-99851337D01*
X165578663Y-100244320D01*
X165785513Y-100330000D01*
X165578663Y-100415680D01*
X165185680Y-100808663D01*
X164973000Y-101322119D01*
X164973000Y-101877881D01*
X165069147Y-102110000D01*
X164779802Y-102110000D01*
X156800331Y-94130530D01*
X156800329Y-94130527D01*
X156335000Y-93665199D01*
X156335000Y-76909848D01*
X156349888Y-76835000D01*
X156335000Y-76760152D01*
X156335000Y-76760148D01*
X156290904Y-76538463D01*
X156122929Y-76287071D01*
X156059473Y-76244671D01*
X155530331Y-75715530D01*
X155513272Y-75690000D01*
X155647710Y-75690000D01*
X155680365Y-75722655D01*
X156024017Y-75865000D01*
X156395983Y-75865000D01*
X156739635Y-75722655D01*
X157002655Y-75459635D01*
X157145000Y-75115983D01*
X157145000Y-74744017D01*
X157002655Y-74400365D01*
X156739635Y-74137345D01*
X156395983Y-73995000D01*
X156024017Y-73995000D01*
X155680365Y-74137345D01*
X155647710Y-74170000D01*
X155067000Y-74170000D01*
X155067000Y-73150000D01*
X156530199Y-73150000D01*
X157815000Y-74434802D01*
X157815000Y-74480983D01*
X157957345Y-74824635D01*
X158220365Y-75087655D01*
X158564017Y-75230000D01*
X158935983Y-75230000D01*
X159279635Y-75087655D01*
X159542655Y-74824635D01*
X159685000Y-74480983D01*
X159685000Y-74109017D01*
X159542655Y-73765365D01*
X159279635Y-73502345D01*
X159158821Y-73452302D01*
X164960856Y-73452302D01*
X164988638Y-74007368D01*
X165147603Y-74391143D01*
X165389787Y-74460608D01*
X166190395Y-73660000D01*
X166549605Y-73660000D01*
X167350213Y-74460608D01*
X167592397Y-74391143D01*
X167779144Y-73867698D01*
X167751362Y-73312632D01*
X167592397Y-72928857D01*
X167350213Y-72859392D01*
X166549605Y-73660000D01*
X166190395Y-73660000D01*
X165389787Y-72859392D01*
X165147603Y-72928857D01*
X164960856Y-73452302D01*
X159158821Y-73452302D01*
X158935983Y-73360000D01*
X158889802Y-73360000D01*
X157435331Y-71905530D01*
X157392929Y-71842071D01*
X157141537Y-71674096D01*
X156919852Y-71630000D01*
X156919847Y-71630000D01*
X156845000Y-71615112D01*
X156770153Y-71630000D01*
X155067000Y-71630000D01*
X155067000Y-70610000D01*
X159070199Y-70610000D01*
X160355000Y-71894802D01*
X160355000Y-71940983D01*
X160497345Y-72284635D01*
X160760365Y-72547655D01*
X161104017Y-72690000D01*
X161475983Y-72690000D01*
X161819635Y-72547655D01*
X162082655Y-72284635D01*
X162225000Y-71940983D01*
X162225000Y-71569017D01*
X162082655Y-71225365D01*
X161819635Y-70962345D01*
X161475983Y-70820000D01*
X161429802Y-70820000D01*
X159975331Y-69365530D01*
X159932929Y-69302071D01*
X159681537Y-69134096D01*
X159459852Y-69090000D01*
X159459847Y-69090000D01*
X159385000Y-69075112D01*
X159310153Y-69090000D01*
X155740788Y-69090000D01*
X155875000Y-68765983D01*
X155875000Y-68394017D01*
X155836935Y-68302119D01*
X164973000Y-68302119D01*
X164973000Y-68857881D01*
X165185680Y-69371337D01*
X165578663Y-69764320D01*
X165785513Y-69850000D01*
X165578663Y-69935680D01*
X165185680Y-70328663D01*
X164973000Y-70842119D01*
X164973000Y-71397881D01*
X165185680Y-71911337D01*
X165578663Y-72304320D01*
X165769647Y-72383428D01*
X165638857Y-72437603D01*
X165569392Y-72679787D01*
X166370000Y-73480395D01*
X167170608Y-72679787D01*
X167101143Y-72437603D01*
X166960607Y-72387465D01*
X167161337Y-72304320D01*
X167554320Y-71911337D01*
X167767000Y-71397881D01*
X167767000Y-70842119D01*
X167554320Y-70328663D01*
X167161337Y-69935680D01*
X166954487Y-69850000D01*
X167161337Y-69764320D01*
X167554320Y-69371337D01*
X167767000Y-68857881D01*
X167767000Y-68372302D01*
X182740856Y-68372302D01*
X182768638Y-68927368D01*
X182927603Y-69311143D01*
X183169787Y-69380608D01*
X183970395Y-68580000D01*
X184329605Y-68580000D01*
X185130213Y-69380608D01*
X185372397Y-69311143D01*
X185559144Y-68787698D01*
X185531362Y-68232632D01*
X185372397Y-67848857D01*
X185130213Y-67779392D01*
X184329605Y-68580000D01*
X183970395Y-68580000D01*
X183169787Y-67779392D01*
X182927603Y-67848857D01*
X182740856Y-68372302D01*
X167767000Y-68372302D01*
X167767000Y-68302119D01*
X167554320Y-67788663D01*
X167365444Y-67599787D01*
X183349392Y-67599787D01*
X184150000Y-68400395D01*
X184950608Y-67599787D01*
X184881143Y-67357603D01*
X184357698Y-67170856D01*
X183802632Y-67198638D01*
X183418857Y-67357603D01*
X183349392Y-67599787D01*
X167365444Y-67599787D01*
X167161337Y-67395680D01*
X166647881Y-67183000D01*
X166092119Y-67183000D01*
X165578663Y-67395680D01*
X165185680Y-67788663D01*
X164973000Y-68302119D01*
X155836935Y-68302119D01*
X155732655Y-68050365D01*
X155700000Y-68017710D01*
X155700000Y-67075306D01*
X187748410Y-67075306D01*
X187774421Y-67675458D01*
X187954047Y-68109116D01*
X188207940Y-68192455D01*
X189090395Y-67310000D01*
X188207940Y-66427545D01*
X187954047Y-66510884D01*
X187748410Y-67075306D01*
X155700000Y-67075306D01*
X155700000Y-66247940D01*
X188387545Y-66247940D01*
X189270000Y-67130395D01*
X189284143Y-67116253D01*
X189463748Y-67295858D01*
X189449605Y-67310000D01*
X189463748Y-67324143D01*
X189284143Y-67503748D01*
X189270000Y-67489605D01*
X188387545Y-68372060D01*
X188470884Y-68625953D01*
X189035306Y-68831590D01*
X189635458Y-68805579D01*
X190069116Y-68625953D01*
X190152454Y-68372062D01*
X190267086Y-68486694D01*
X190306525Y-68447255D01*
X190437191Y-68642809D01*
X190647235Y-68783157D01*
X190895000Y-68832440D01*
X192645000Y-68832440D01*
X192892765Y-68783157D01*
X193102809Y-68642809D01*
X193243157Y-68432765D01*
X193292440Y-68185000D01*
X193292440Y-66435000D01*
X193243157Y-66187235D01*
X193102809Y-65977191D01*
X192892765Y-65836843D01*
X192645000Y-65787560D01*
X190895000Y-65787560D01*
X190647235Y-65836843D01*
X190437191Y-65977191D01*
X190306525Y-66172745D01*
X190267086Y-66133306D01*
X190152454Y-66247938D01*
X190069116Y-65994047D01*
X189504694Y-65788410D01*
X188904542Y-65814421D01*
X188470884Y-65994047D01*
X188387545Y-66247940D01*
X155700000Y-66247940D01*
X155700000Y-65084801D01*
X155737361Y-65047440D01*
X157110000Y-65047440D01*
X157357765Y-64998157D01*
X157567809Y-64857809D01*
X157708157Y-64647765D01*
X157711275Y-64632092D01*
X157880493Y-64801310D01*
X158444670Y-65035000D01*
X159055330Y-65035000D01*
X159619507Y-64801310D01*
X160051310Y-64369507D01*
X160285000Y-63805330D01*
X160285000Y-63194670D01*
X160051310Y-62630493D01*
X159936567Y-62515750D01*
X195315000Y-62515750D01*
X195315000Y-63256310D01*
X195411673Y-63489699D01*
X195590302Y-63668327D01*
X195823691Y-63765000D01*
X196564250Y-63765000D01*
X196723000Y-63606250D01*
X196723000Y-62357000D01*
X195473750Y-62357000D01*
X195315000Y-62515750D01*
X159936567Y-62515750D01*
X159619507Y-62198690D01*
X159055330Y-61965000D01*
X158444670Y-61965000D01*
X157880493Y-62198690D01*
X157711275Y-62367908D01*
X157708157Y-62352235D01*
X157567809Y-62142191D01*
X157357765Y-62001843D01*
X157110000Y-61952560D01*
X155310000Y-61952560D01*
X155067000Y-62000895D01*
X155067000Y-61203690D01*
X195315000Y-61203690D01*
X195315000Y-61944250D01*
X195473750Y-62103000D01*
X196723000Y-62103000D01*
X196723000Y-60853750D01*
X196977000Y-60853750D01*
X196977000Y-62103000D01*
X196997000Y-62103000D01*
X196997000Y-62357000D01*
X196977000Y-62357000D01*
X196977000Y-63606250D01*
X197135750Y-63765000D01*
X197876309Y-63765000D01*
X198109698Y-63668327D01*
X198288327Y-63489699D01*
X198344139Y-63354956D01*
X198520493Y-63531310D01*
X199084670Y-63765000D01*
X199695330Y-63765000D01*
X200259507Y-63531310D01*
X200691310Y-63099507D01*
X200925000Y-62535330D01*
X200925000Y-61924670D01*
X200691310Y-61360493D01*
X200259507Y-60928690D01*
X199695330Y-60695000D01*
X199084670Y-60695000D01*
X198520493Y-60928690D01*
X198344139Y-61105044D01*
X198288327Y-60970301D01*
X198109698Y-60791673D01*
X197876309Y-60695000D01*
X197135750Y-60695000D01*
X196977000Y-60853750D01*
X196723000Y-60853750D01*
X196564250Y-60695000D01*
X195823691Y-60695000D01*
X195590302Y-60791673D01*
X195411673Y-60970301D01*
X195315000Y-61203690D01*
X155067000Y-61203690D01*
X155067000Y-60515431D01*
X203505000Y-60515431D01*
X203505000Y-61404569D01*
X203845259Y-62226026D01*
X204473974Y-62854741D01*
X205295431Y-63195000D01*
X206184569Y-63195000D01*
X207006026Y-62854741D01*
X207634741Y-62226026D01*
X207975000Y-61404569D01*
X207975000Y-60515431D01*
X207634741Y-59693974D01*
X207006026Y-59065259D01*
X206184569Y-58725000D01*
X205295431Y-58725000D01*
X204473974Y-59065259D01*
X203845259Y-59693974D01*
X203505000Y-60515431D01*
X155067000Y-60515431D01*
X155067000Y-57912000D01*
X208788000Y-57912000D01*
X208788000Y-130048000D01*
X208788000Y-130048000D01*
G37*
X208788000Y-130048000D02*
X155067000Y-130048000D01*
X155067000Y-128555750D01*
X177635000Y-128555750D01*
X177635000Y-129196309D01*
X177731673Y-129429698D01*
X177910301Y-129608327D01*
X178143690Y-129705000D01*
X178784250Y-129705000D01*
X178943000Y-129546250D01*
X178943000Y-128397000D01*
X179197000Y-128397000D01*
X179197000Y-129546250D01*
X179355750Y-129705000D01*
X179996310Y-129705000D01*
X180229699Y-129608327D01*
X180408327Y-129429698D01*
X180505000Y-129196309D01*
X180505000Y-129168062D01*
X180872577Y-129501041D01*
X181260961Y-129661904D01*
X181483000Y-129539915D01*
X181483000Y-128397000D01*
X181737000Y-128397000D01*
X181737000Y-129539915D01*
X181959039Y-129661904D01*
X182347423Y-129501041D01*
X182762389Y-129125134D01*
X182880000Y-128876633D01*
X182997611Y-129125134D01*
X183412577Y-129501041D01*
X183800961Y-129661904D01*
X184023000Y-129539915D01*
X184023000Y-128397000D01*
X184277000Y-128397000D01*
X184277000Y-129539915D01*
X184499039Y-129661904D01*
X184887423Y-129501041D01*
X185302389Y-129125134D01*
X185420000Y-128876633D01*
X185537611Y-129125134D01*
X185952577Y-129501041D01*
X186340961Y-129661904D01*
X186563000Y-129539915D01*
X186563000Y-128397000D01*
X186817000Y-128397000D01*
X186817000Y-129539915D01*
X187039039Y-129661904D01*
X187427423Y-129501041D01*
X187842389Y-129125134D01*
X188081914Y-128619041D01*
X187960629Y-128397000D01*
X186817000Y-128397000D01*
X186563000Y-128397000D01*
X184277000Y-128397000D01*
X184023000Y-128397000D01*
X181737000Y-128397000D01*
X181483000Y-128397000D01*
X179197000Y-128397000D01*
X178943000Y-128397000D01*
X177793750Y-128397000D01*
X177635000Y-128555750D01*
X155067000Y-128555750D01*
X155067000Y-127343691D01*
X177635000Y-127343691D01*
X177635000Y-127984250D01*
X177793750Y-128143000D01*
X178943000Y-128143000D01*
X178943000Y-126993750D01*
X179197000Y-126993750D01*
X179197000Y-128143000D01*
X181483000Y-128143000D01*
X181483000Y-127000085D01*
X181737000Y-127000085D01*
X181737000Y-128143000D01*
X184023000Y-128143000D01*
X184023000Y-127000085D01*
X184277000Y-127000085D01*
X184277000Y-128143000D01*
X186563000Y-128143000D01*
X186563000Y-127000085D01*
X186817000Y-127000085D01*
X186817000Y-128143000D01*
X187960629Y-128143000D01*
X188081914Y-127920959D01*
X187842389Y-127414866D01*
X187427423Y-127038959D01*
X187039039Y-126878096D01*
X186817000Y-127000085D01*
X186563000Y-127000085D01*
X186340961Y-126878096D01*
X185952577Y-127038959D01*
X185537611Y-127414866D01*
X185420000Y-127663367D01*
X185302389Y-127414866D01*
X184887423Y-127038959D01*
X184499039Y-126878096D01*
X184277000Y-127000085D01*
X184023000Y-127000085D01*
X183800961Y-126878096D01*
X183412577Y-127038959D01*
X182997611Y-127414866D01*
X182880000Y-127663367D01*
X182762389Y-127414866D01*
X182347423Y-127038959D01*
X181959039Y-126878096D01*
X181737000Y-127000085D01*
X181483000Y-127000085D01*
X181260961Y-126878096D01*
X180872577Y-127038959D01*
X180505000Y-127371938D01*
X180505000Y-127343691D01*
X180408327Y-127110302D01*
X180229699Y-126931673D01*
X179996310Y-126835000D01*
X179355750Y-126835000D01*
X179197000Y-126993750D01*
X178943000Y-126993750D01*
X178784250Y-126835000D01*
X178143690Y-126835000D01*
X177910301Y-126931673D01*
X177731673Y-127110302D01*
X177635000Y-127343691D01*
X155067000Y-127343691D01*
X155067000Y-127125000D01*
X160580153Y-127125000D01*
X160655000Y-127139888D01*
X160729847Y-127125000D01*
X160729852Y-127125000D01*
X160951537Y-127080904D01*
X161202929Y-126912929D01*
X161245331Y-126849470D01*
X161539370Y-126555431D01*
X203505000Y-126555431D01*
X203505000Y-127444569D01*
X203845259Y-128266026D01*
X204473974Y-128894741D01*
X205295431Y-129235000D01*
X206184569Y-129235000D01*
X207006026Y-128894741D01*
X207634741Y-128266026D01*
X207975000Y-127444569D01*
X207975000Y-126555431D01*
X207634741Y-125733974D01*
X207006026Y-125105259D01*
X206184569Y-124765000D01*
X205295431Y-124765000D01*
X204473974Y-125105259D01*
X203845259Y-125733974D01*
X203505000Y-126555431D01*
X161539370Y-126555431D01*
X163679476Y-124415327D01*
X163742929Y-124372929D01*
X163785327Y-124309476D01*
X163785329Y-124309474D01*
X163910903Y-124121538D01*
X163910904Y-124121537D01*
X163955000Y-123899852D01*
X163955000Y-123899848D01*
X163969888Y-123825001D01*
X163955000Y-123750154D01*
X163955000Y-112957290D01*
X163987655Y-112924635D01*
X164130000Y-112580983D01*
X164130000Y-112534801D01*
X166060782Y-110604020D01*
X166092119Y-110617000D01*
X166647881Y-110617000D01*
X167161337Y-110404320D01*
X167554320Y-110011337D01*
X167767000Y-109497881D01*
X167767000Y-108942119D01*
X167554320Y-108428663D01*
X167161337Y-108035680D01*
X166954487Y-107950000D01*
X167161337Y-107864320D01*
X167554320Y-107471337D01*
X167767000Y-106957881D01*
X167767000Y-106402119D01*
X167554320Y-105888663D01*
X167161337Y-105495680D01*
X166954487Y-105410000D01*
X167161337Y-105324320D01*
X167554320Y-104931337D01*
X167767000Y-104417881D01*
X167767000Y-104071802D01*
X168110001Y-104414803D01*
X168110000Y-119330390D01*
X168014654Y-119369884D01*
X167845504Y-119539034D01*
X167843157Y-119527235D01*
X167702809Y-119317191D01*
X167492765Y-119176843D01*
X167245000Y-119127560D01*
X165495000Y-119127560D01*
X165247235Y-119176843D01*
X165037191Y-119317191D01*
X164896843Y-119527235D01*
X164847560Y-119775000D01*
X164847560Y-121525000D01*
X164896843Y-121772765D01*
X165037191Y-121982809D01*
X165247235Y-122123157D01*
X165495000Y-122172440D01*
X167245000Y-122172440D01*
X167492765Y-122123157D01*
X167702809Y-121982809D01*
X167843157Y-121772765D01*
X167845504Y-121760966D01*
X168014654Y-121930116D01*
X168569642Y-122160000D01*
X169170358Y-122160000D01*
X169725346Y-121930116D01*
X170120000Y-121535462D01*
X170514654Y-121930116D01*
X171069642Y-122160000D01*
X171670358Y-122160000D01*
X172225346Y-121930116D01*
X172650116Y-121505346D01*
X172880000Y-120950358D01*
X172880000Y-120650000D01*
X177606887Y-120650000D01*
X177718260Y-121209909D01*
X178035423Y-121684577D01*
X178510091Y-122001740D01*
X178928667Y-122085000D01*
X179211333Y-122085000D01*
X179629909Y-122001740D01*
X180104577Y-121684577D01*
X180340000Y-121332242D01*
X180575423Y-121684577D01*
X181050091Y-122001740D01*
X181468667Y-122085000D01*
X181751333Y-122085000D01*
X182169909Y-122001740D01*
X182644577Y-121684577D01*
X182880000Y-121332242D01*
X183115423Y-121684577D01*
X183590091Y-122001740D01*
X184008667Y-122085000D01*
X184291333Y-122085000D01*
X184709909Y-122001740D01*
X185184577Y-121684577D01*
X185420000Y-121332242D01*
X185655423Y-121684577D01*
X186130091Y-122001740D01*
X186548667Y-122085000D01*
X186831333Y-122085000D01*
X187249909Y-122001740D01*
X187724577Y-121684577D01*
X188041740Y-121209909D01*
X188153113Y-120650000D01*
X188041740Y-120090091D01*
X187724577Y-119615423D01*
X187249909Y-119298260D01*
X186831333Y-119215000D01*
X186548667Y-119215000D01*
X186130091Y-119298260D01*
X185655423Y-119615423D01*
X185420000Y-119967758D01*
X185184577Y-119615423D01*
X184709909Y-119298260D01*
X184291333Y-119215000D01*
X184008667Y-119215000D01*
X183590091Y-119298260D01*
X183115423Y-119615423D01*
X182880000Y-119967758D01*
X182644577Y-119615423D01*
X182169909Y-119298260D01*
X181751333Y-119215000D01*
X181468667Y-119215000D01*
X181050091Y-119298260D01*
X180575423Y-119615423D01*
X180340000Y-119967758D01*
X180104577Y-119615423D01*
X179629909Y-119298260D01*
X179211333Y-119215000D01*
X178928667Y-119215000D01*
X178510091Y-119298260D01*
X178035423Y-119615423D01*
X177718260Y-120090091D01*
X177606887Y-120650000D01*
X172880000Y-120650000D01*
X172880000Y-120349642D01*
X172650116Y-119794654D01*
X172225346Y-119369884D01*
X171670358Y-119140000D01*
X171069642Y-119140000D01*
X170514654Y-119369884D01*
X170120000Y-119764538D01*
X169725346Y-119369884D01*
X169630000Y-119330390D01*
X169630000Y-118505000D01*
X197867560Y-118505000D01*
X197867560Y-120255000D01*
X197916843Y-120502765D01*
X198057191Y-120712809D01*
X198267235Y-120853157D01*
X198515000Y-120902440D01*
X200265000Y-120902440D01*
X200512765Y-120853157D01*
X200722809Y-120712809D01*
X200863157Y-120502765D01*
X200912440Y-120255000D01*
X200912440Y-118505000D01*
X200863157Y-118257235D01*
X200722809Y-118047191D01*
X200512765Y-117906843D01*
X200500966Y-117904496D01*
X200670116Y-117735346D01*
X200900000Y-117180358D01*
X200900000Y-116579642D01*
X200670116Y-116024654D01*
X200245346Y-115599884D01*
X199690358Y-115370000D01*
X199089642Y-115370000D01*
X198534654Y-115599884D01*
X198109884Y-116024654D01*
X197880000Y-116579642D01*
X197880000Y-117180358D01*
X198109884Y-117735346D01*
X198279034Y-117904496D01*
X198267235Y-117906843D01*
X198057191Y-118047191D01*
X197916843Y-118257235D01*
X197867560Y-118505000D01*
X169630000Y-118505000D01*
X169630000Y-104174848D01*
X169644888Y-104100000D01*
X169630000Y-104025152D01*
X169630000Y-104025148D01*
X169585904Y-103803463D01*
X169585904Y-103803462D01*
X169460329Y-103615527D01*
X169417929Y-103552071D01*
X169354473Y-103509671D01*
X168230331Y-102385530D01*
X168187929Y-102322071D01*
X167936537Y-102154096D01*
X167714852Y-102110000D01*
X167714847Y-102110000D01*
X167674202Y-102101915D01*
X167767000Y-101877881D01*
X167767000Y-101322119D01*
X167674202Y-101098085D01*
X167714846Y-101090000D01*
X182849147Y-101090000D01*
X182753000Y-101322119D01*
X182753000Y-101877881D01*
X182965680Y-102391337D01*
X183358663Y-102784320D01*
X183565513Y-102870000D01*
X183358663Y-102955680D01*
X182965680Y-103348663D01*
X182753000Y-103862119D01*
X182753000Y-104417881D01*
X182965680Y-104931337D01*
X183358663Y-105324320D01*
X183565513Y-105410000D01*
X183358663Y-105495680D01*
X182965680Y-105888663D01*
X182753000Y-106402119D01*
X182753000Y-106957881D01*
X182965680Y-107471337D01*
X183358663Y-107864320D01*
X183565513Y-107950000D01*
X183358663Y-108035680D01*
X182965680Y-108428663D01*
X182753000Y-108942119D01*
X182753000Y-109497881D01*
X182965680Y-110011337D01*
X183358663Y-110404320D01*
X183872119Y-110617000D01*
X184427881Y-110617000D01*
X184941337Y-110404320D01*
X185334320Y-110011337D01*
X185547000Y-109497881D01*
X185547000Y-108942119D01*
X185334320Y-108428663D01*
X184941337Y-108035680D01*
X184734487Y-107950000D01*
X184941337Y-107864320D01*
X185334320Y-107471337D01*
X185547000Y-106957881D01*
X185547000Y-106402119D01*
X185334320Y-105888663D01*
X184941337Y-105495680D01*
X184734487Y-105410000D01*
X184941337Y-105324320D01*
X185334320Y-104931337D01*
X185547000Y-104417881D01*
X185547000Y-103862119D01*
X185334320Y-103348663D01*
X184941337Y-102955680D01*
X184734487Y-102870000D01*
X184941337Y-102784320D01*
X185334320Y-102391337D01*
X185547000Y-101877881D01*
X185547000Y-101322119D01*
X185450853Y-101090000D01*
X186375199Y-101090000D01*
X190835000Y-105549802D01*
X190835000Y-105595983D01*
X190977345Y-105939635D01*
X191240365Y-106202655D01*
X191584017Y-106345000D01*
X191955983Y-106345000D01*
X192299635Y-106202655D01*
X192562655Y-105939635D01*
X192705000Y-105595983D01*
X192705000Y-105224017D01*
X194645000Y-105224017D01*
X194645000Y-105595983D01*
X194787345Y-105939635D01*
X194820001Y-105972291D01*
X194820000Y-109927710D01*
X194787345Y-109960365D01*
X194645000Y-110304017D01*
X194645000Y-110675983D01*
X194787345Y-111019635D01*
X195050365Y-111282655D01*
X195394017Y-111425000D01*
X195765983Y-111425000D01*
X196109635Y-111282655D01*
X196372655Y-111019635D01*
X196515000Y-110675983D01*
X196515000Y-110304017D01*
X196372655Y-109960365D01*
X196340000Y-109927710D01*
X196340000Y-109615000D01*
X197867560Y-109615000D01*
X197867560Y-111365000D01*
X197916843Y-111612765D01*
X198057191Y-111822809D01*
X198267235Y-111963157D01*
X198515000Y-112012440D01*
X200265000Y-112012440D01*
X200512765Y-111963157D01*
X200722809Y-111822809D01*
X200863157Y-111612765D01*
X200912440Y-111365000D01*
X200912440Y-109615000D01*
X200863157Y-109367235D01*
X200722809Y-109157191D01*
X200512765Y-109016843D01*
X200500966Y-109014496D01*
X200670116Y-108845346D01*
X200900000Y-108290358D01*
X200900000Y-107689642D01*
X200670116Y-107134654D01*
X200245346Y-106709884D01*
X200223606Y-106700879D01*
X200272455Y-106552060D01*
X199390000Y-105669605D01*
X198507545Y-106552060D01*
X198556394Y-106700879D01*
X198534654Y-106709884D01*
X198109884Y-107134654D01*
X197880000Y-107689642D01*
X197880000Y-108290358D01*
X198109884Y-108845346D01*
X198279034Y-109014496D01*
X198267235Y-109016843D01*
X198057191Y-109157191D01*
X197916843Y-109367235D01*
X197867560Y-109615000D01*
X196340000Y-109615000D01*
X196340000Y-105972290D01*
X196372655Y-105939635D01*
X196515000Y-105595983D01*
X196515000Y-105255306D01*
X197868410Y-105255306D01*
X197894421Y-105855458D01*
X198074047Y-106289116D01*
X198327940Y-106372455D01*
X199210395Y-105490000D01*
X199569605Y-105490000D01*
X200452060Y-106372455D01*
X200705953Y-106289116D01*
X200911590Y-105724694D01*
X200885579Y-105124542D01*
X200705953Y-104690884D01*
X200452060Y-104607545D01*
X199569605Y-105490000D01*
X199210395Y-105490000D01*
X198327940Y-104607545D01*
X198074047Y-104690884D01*
X197868410Y-105255306D01*
X196515000Y-105255306D01*
X196515000Y-105224017D01*
X196372655Y-104880365D01*
X196109635Y-104617345D01*
X195765983Y-104475000D01*
X195394017Y-104475000D01*
X195050365Y-104617345D01*
X194787345Y-104880365D01*
X194645000Y-105224017D01*
X192705000Y-105224017D01*
X192562655Y-104880365D01*
X192299635Y-104617345D01*
X191955983Y-104475000D01*
X191909802Y-104475000D01*
X191862742Y-104427940D01*
X198507545Y-104427940D01*
X199390000Y-105310395D01*
X200272455Y-104427940D01*
X200189116Y-104174047D01*
X199624694Y-103968410D01*
X199024542Y-103994421D01*
X198590884Y-104174047D01*
X198507545Y-104427940D01*
X191862742Y-104427940D01*
X187280331Y-99845530D01*
X187237929Y-99782071D01*
X186986537Y-99614096D01*
X186764852Y-99570000D01*
X186764847Y-99570000D01*
X186690000Y-99555112D01*
X186615153Y-99570000D01*
X185450853Y-99570000D01*
X185547000Y-99337881D01*
X185547000Y-98782119D01*
X185334320Y-98268663D01*
X185250657Y-98185000D01*
X197867560Y-98185000D01*
X197867560Y-99935000D01*
X197916843Y-100182765D01*
X198057191Y-100392809D01*
X198267235Y-100533157D01*
X198515000Y-100582440D01*
X200265000Y-100582440D01*
X200512765Y-100533157D01*
X200722809Y-100392809D01*
X200863157Y-100182765D01*
X200912440Y-99935000D01*
X200912440Y-98185000D01*
X200863157Y-97937235D01*
X200722809Y-97727191D01*
X200512765Y-97586843D01*
X200500966Y-97584496D01*
X200670116Y-97415346D01*
X200900000Y-96860358D01*
X200900000Y-96259642D01*
X200670116Y-95704654D01*
X200245346Y-95279884D01*
X200223606Y-95270879D01*
X200272455Y-95122060D01*
X199390000Y-94239605D01*
X198507545Y-95122060D01*
X198556394Y-95270879D01*
X198534654Y-95279884D01*
X198109884Y-95704654D01*
X197880000Y-96259642D01*
X197880000Y-96860358D01*
X198109884Y-97415346D01*
X198279034Y-97584496D01*
X198267235Y-97586843D01*
X198057191Y-97727191D01*
X197916843Y-97937235D01*
X197867560Y-98185000D01*
X185250657Y-98185000D01*
X184941337Y-97875680D01*
X184734487Y-97790000D01*
X184941337Y-97704320D01*
X185334320Y-97311337D01*
X185547000Y-96797881D01*
X185547000Y-96242119D01*
X185334320Y-95728663D01*
X184941337Y-95335680D01*
X184734487Y-95250000D01*
X184941337Y-95164320D01*
X185334320Y-94771337D01*
X185547000Y-94257881D01*
X185547000Y-93825306D01*
X197868410Y-93825306D01*
X197894421Y-94425458D01*
X198074047Y-94859116D01*
X198327940Y-94942455D01*
X199210395Y-94060000D01*
X199569605Y-94060000D01*
X200452060Y-94942455D01*
X200705953Y-94859116D01*
X200911590Y-94294694D01*
X200885579Y-93694542D01*
X200705953Y-93260884D01*
X200452060Y-93177545D01*
X199569605Y-94060000D01*
X199210395Y-94060000D01*
X198327940Y-93177545D01*
X198074047Y-93260884D01*
X197868410Y-93825306D01*
X185547000Y-93825306D01*
X185547000Y-93702119D01*
X185334320Y-93188663D01*
X185143597Y-92997940D01*
X198507545Y-92997940D01*
X199390000Y-93880395D01*
X200272455Y-92997940D01*
X200189116Y-92744047D01*
X199624694Y-92538410D01*
X199024542Y-92564421D01*
X198590884Y-92744047D01*
X198507545Y-92997940D01*
X185143597Y-92997940D01*
X184941337Y-92795680D01*
X184734487Y-92710000D01*
X184941337Y-92624320D01*
X185334320Y-92231337D01*
X185547000Y-91717881D01*
X185547000Y-91162119D01*
X185334320Y-90648663D01*
X184941337Y-90255680D01*
X184734487Y-90170000D01*
X184941337Y-90084320D01*
X185334320Y-89691337D01*
X185547000Y-89177881D01*
X185547000Y-88622119D01*
X185334320Y-88108663D01*
X184941337Y-87715680D01*
X184734487Y-87630000D01*
X184941337Y-87544320D01*
X185334320Y-87151337D01*
X185547000Y-86637881D01*
X185547000Y-86082119D01*
X185334320Y-85568663D01*
X184941337Y-85175680D01*
X184734487Y-85090000D01*
X184941337Y-85004320D01*
X185334320Y-84611337D01*
X185547000Y-84097881D01*
X185547000Y-83542119D01*
X185334320Y-83028663D01*
X184941337Y-82635680D01*
X184734487Y-82550000D01*
X184941337Y-82464320D01*
X185334320Y-82071337D01*
X185547000Y-81557881D01*
X185547000Y-81094017D01*
X195915000Y-81094017D01*
X195915000Y-81465983D01*
X196057345Y-81809635D01*
X196090000Y-81842290D01*
X196090001Y-86920148D01*
X196075112Y-86995000D01*
X196090001Y-87069852D01*
X196134097Y-87291537D01*
X196302072Y-87542929D01*
X196365528Y-87585329D01*
X196894671Y-88114473D01*
X196937071Y-88177929D01*
X197188463Y-88345904D01*
X197410148Y-88390000D01*
X197410152Y-88390000D01*
X197485000Y-88404888D01*
X197559848Y-88390000D01*
X197867560Y-88390000D01*
X197867560Y-88505000D01*
X197916843Y-88752765D01*
X198057191Y-88962809D01*
X198267235Y-89103157D01*
X198515000Y-89152440D01*
X200265000Y-89152440D01*
X200512765Y-89103157D01*
X200722809Y-88962809D01*
X200863157Y-88752765D01*
X200912440Y-88505000D01*
X200912440Y-86755000D01*
X200863157Y-86507235D01*
X200722809Y-86297191D01*
X200512765Y-86156843D01*
X200500966Y-86154496D01*
X200670116Y-85985346D01*
X200900000Y-85430358D01*
X200900000Y-84829642D01*
X200670116Y-84274654D01*
X200275462Y-83880000D01*
X200670116Y-83485346D01*
X200900000Y-82930358D01*
X200900000Y-82329642D01*
X200670116Y-81774654D01*
X200245346Y-81349884D01*
X200223606Y-81340879D01*
X200272455Y-81192060D01*
X199390000Y-80309605D01*
X198507545Y-81192060D01*
X198556394Y-81340879D01*
X198534654Y-81349884D01*
X198109884Y-81774654D01*
X197880000Y-82329642D01*
X197880000Y-82930358D01*
X198109884Y-83485346D01*
X198504538Y-83880000D01*
X198109884Y-84274654D01*
X197880000Y-84829642D01*
X197880000Y-85430358D01*
X198109884Y-85985346D01*
X198279034Y-86154496D01*
X198267235Y-86156843D01*
X198057191Y-86297191D01*
X197916843Y-86507235D01*
X197867560Y-86755000D01*
X197867560Y-86870000D01*
X197799802Y-86870000D01*
X197610000Y-86680199D01*
X197610000Y-81842290D01*
X197642655Y-81809635D01*
X197785000Y-81465983D01*
X197785000Y-81094017D01*
X197642655Y-80750365D01*
X197379635Y-80487345D01*
X197035983Y-80345000D01*
X196664017Y-80345000D01*
X196320365Y-80487345D01*
X196057345Y-80750365D01*
X195915000Y-81094017D01*
X185547000Y-81094017D01*
X185547000Y-81002119D01*
X185334320Y-80488663D01*
X184941337Y-80095680D01*
X184734487Y-80010000D01*
X184941337Y-79924320D01*
X184970351Y-79895306D01*
X197868410Y-79895306D01*
X197894421Y-80495458D01*
X198074047Y-80929116D01*
X198327940Y-81012455D01*
X199210395Y-80130000D01*
X199569605Y-80130000D01*
X200452060Y-81012455D01*
X200705953Y-80929116D01*
X200911590Y-80364694D01*
X200885579Y-79764542D01*
X200705953Y-79330884D01*
X200452060Y-79247545D01*
X199569605Y-80130000D01*
X199210395Y-80130000D01*
X198327940Y-79247545D01*
X198074047Y-79330884D01*
X197868410Y-79895306D01*
X184970351Y-79895306D01*
X185334320Y-79531337D01*
X185526264Y-79067940D01*
X198507545Y-79067940D01*
X199390000Y-79950395D01*
X200272455Y-79067940D01*
X200189116Y-78814047D01*
X199624694Y-78608410D01*
X199024542Y-78634421D01*
X198590884Y-78814047D01*
X198507545Y-79067940D01*
X185526264Y-79067940D01*
X185547000Y-79017881D01*
X185547000Y-78462119D01*
X185334320Y-77948663D01*
X184941337Y-77555680D01*
X184734487Y-77470000D01*
X184941337Y-77384320D01*
X185334320Y-76991337D01*
X185547000Y-76477881D01*
X185547000Y-75922119D01*
X185334320Y-75408663D01*
X184941337Y-75015680D01*
X184734487Y-74930000D01*
X184941337Y-74844320D01*
X185334320Y-74451337D01*
X185547000Y-73937881D01*
X185547000Y-73382119D01*
X185334320Y-72868663D01*
X185250657Y-72785000D01*
X197867560Y-72785000D01*
X197867560Y-74535000D01*
X197916843Y-74782765D01*
X198057191Y-74992809D01*
X198267235Y-75133157D01*
X198515000Y-75182440D01*
X200265000Y-75182440D01*
X200512765Y-75133157D01*
X200722809Y-74992809D01*
X200863157Y-74782765D01*
X200912440Y-74535000D01*
X200912440Y-72785000D01*
X200863157Y-72537235D01*
X200722809Y-72327191D01*
X200527255Y-72196525D01*
X200566694Y-72157086D01*
X200452062Y-72042454D01*
X200705953Y-71959116D01*
X200911590Y-71394694D01*
X200885579Y-70794542D01*
X200705953Y-70360884D01*
X200452060Y-70277545D01*
X199569605Y-71160000D01*
X199583748Y-71174143D01*
X199404143Y-71353748D01*
X199390000Y-71339605D01*
X199375858Y-71353748D01*
X199196253Y-71174143D01*
X199210395Y-71160000D01*
X198327940Y-70277545D01*
X198074047Y-70360884D01*
X197868410Y-70925306D01*
X197894421Y-71525458D01*
X198074047Y-71959116D01*
X198327938Y-72042454D01*
X198213306Y-72157086D01*
X198252745Y-72196525D01*
X198057191Y-72327191D01*
X197916843Y-72537235D01*
X197867560Y-72785000D01*
X185250657Y-72785000D01*
X184941337Y-72475680D01*
X184734487Y-72390000D01*
X184941337Y-72304320D01*
X185334320Y-71911337D01*
X185547000Y-71397881D01*
X185547000Y-70842119D01*
X185334320Y-70328663D01*
X185103597Y-70097940D01*
X198507545Y-70097940D01*
X199390000Y-70980395D01*
X200272455Y-70097940D01*
X200189116Y-69844047D01*
X199624694Y-69638410D01*
X199024542Y-69664421D01*
X198590884Y-69844047D01*
X198507545Y-70097940D01*
X185103597Y-70097940D01*
X184941337Y-69935680D01*
X184750353Y-69856572D01*
X184881143Y-69802397D01*
X184950608Y-69560213D01*
X184150000Y-68759605D01*
X183349392Y-69560213D01*
X183418857Y-69802397D01*
X183559393Y-69852535D01*
X183358663Y-69935680D01*
X182965680Y-70328663D01*
X182753000Y-70842119D01*
X182753000Y-71397881D01*
X182965680Y-71911337D01*
X183358663Y-72304320D01*
X183565513Y-72390000D01*
X183358663Y-72475680D01*
X182965680Y-72868663D01*
X182753000Y-73382119D01*
X182753000Y-73937881D01*
X182965680Y-74451337D01*
X183358663Y-74844320D01*
X183565513Y-74930000D01*
X183358663Y-75015680D01*
X182965680Y-75408663D01*
X182753000Y-75922119D01*
X182753000Y-76477881D01*
X182965680Y-76991337D01*
X183358663Y-77384320D01*
X183565513Y-77470000D01*
X183358663Y-77555680D01*
X182965680Y-77948663D01*
X182753000Y-78462119D01*
X182753000Y-79017881D01*
X182965680Y-79531337D01*
X183358663Y-79924320D01*
X183565513Y-80010000D01*
X183358663Y-80095680D01*
X182965680Y-80488663D01*
X182753000Y-81002119D01*
X182753000Y-81557881D01*
X182965680Y-82071337D01*
X183358663Y-82464320D01*
X183565513Y-82550000D01*
X183358663Y-82635680D01*
X182965680Y-83028663D01*
X182753000Y-83542119D01*
X182753000Y-84097881D01*
X182965680Y-84611337D01*
X183358663Y-85004320D01*
X183565513Y-85090000D01*
X183358663Y-85175680D01*
X182965680Y-85568663D01*
X182753000Y-86082119D01*
X182753000Y-86637881D01*
X182965680Y-87151337D01*
X183358663Y-87544320D01*
X183565513Y-87630000D01*
X183358663Y-87715680D01*
X182965680Y-88108663D01*
X182753000Y-88622119D01*
X182753000Y-89177881D01*
X182965680Y-89691337D01*
X183358663Y-90084320D01*
X183565513Y-90170000D01*
X183358663Y-90255680D01*
X182965680Y-90648663D01*
X182753000Y-91162119D01*
X182753000Y-91717881D01*
X182965680Y-92231337D01*
X183358663Y-92624320D01*
X183565513Y-92710000D01*
X183358663Y-92795680D01*
X182965680Y-93188663D01*
X182753000Y-93702119D01*
X182753000Y-94257881D01*
X182965680Y-94771337D01*
X183358663Y-95164320D01*
X183565513Y-95250000D01*
X183358663Y-95335680D01*
X182965680Y-95728663D01*
X182753000Y-96242119D01*
X182753000Y-96797881D01*
X182965680Y-97311337D01*
X183358663Y-97704320D01*
X183565513Y-97790000D01*
X183358663Y-97875680D01*
X182965680Y-98268663D01*
X182753000Y-98782119D01*
X182753000Y-99337881D01*
X182849147Y-99570000D01*
X167954802Y-99570000D01*
X167754020Y-99369218D01*
X167767000Y-99337881D01*
X167767000Y-98782119D01*
X167554320Y-98268663D01*
X167161337Y-97875680D01*
X166954487Y-97790000D01*
X167161337Y-97704320D01*
X167554320Y-97311337D01*
X167767000Y-96797881D01*
X167767000Y-96242119D01*
X167554320Y-95728663D01*
X167161337Y-95335680D01*
X166954487Y-95250000D01*
X167161337Y-95164320D01*
X167554320Y-94771337D01*
X167767000Y-94257881D01*
X167767000Y-93702119D01*
X167554320Y-93188663D01*
X167161337Y-92795680D01*
X166954487Y-92710000D01*
X167161337Y-92624320D01*
X167554320Y-92231337D01*
X167767000Y-91717881D01*
X167767000Y-91162119D01*
X167554320Y-90648663D01*
X167161337Y-90255680D01*
X166954487Y-90170000D01*
X167161337Y-90084320D01*
X167554320Y-89691337D01*
X167767000Y-89177881D01*
X167767000Y-88622119D01*
X167554320Y-88108663D01*
X167161337Y-87715680D01*
X166954487Y-87630000D01*
X167161337Y-87544320D01*
X167554320Y-87151337D01*
X167767000Y-86637881D01*
X167767000Y-86082119D01*
X167554320Y-85568663D01*
X167161337Y-85175680D01*
X166954487Y-85090000D01*
X167161337Y-85004320D01*
X167554320Y-84611337D01*
X167767000Y-84097881D01*
X167767000Y-83542119D01*
X167554320Y-83028663D01*
X167161337Y-82635680D01*
X166954487Y-82550000D01*
X167161337Y-82464320D01*
X167554320Y-82071337D01*
X167767000Y-81557881D01*
X167767000Y-81002119D01*
X167554320Y-80488663D01*
X167161337Y-80095680D01*
X166954487Y-80010000D01*
X167161337Y-79924320D01*
X167554320Y-79531337D01*
X167767000Y-79017881D01*
X167767000Y-78462119D01*
X167554320Y-77948663D01*
X167161337Y-77555680D01*
X166954487Y-77470000D01*
X167161337Y-77384320D01*
X167554320Y-76991337D01*
X167767000Y-76477881D01*
X167767000Y-75922119D01*
X167554320Y-75408663D01*
X167161337Y-75015680D01*
X166970353Y-74936572D01*
X167101143Y-74882397D01*
X167170608Y-74640213D01*
X166370000Y-73839605D01*
X165569392Y-74640213D01*
X165638857Y-74882397D01*
X165779393Y-74932535D01*
X165578663Y-75015680D01*
X165185680Y-75408663D01*
X164973000Y-75922119D01*
X164973000Y-76477881D01*
X165185680Y-76991337D01*
X165578663Y-77384320D01*
X165785513Y-77470000D01*
X165578663Y-77555680D01*
X165185680Y-77948663D01*
X164973000Y-78462119D01*
X164973000Y-79017881D01*
X165185680Y-79531337D01*
X165578663Y-79924320D01*
X165785513Y-80010000D01*
X165578663Y-80095680D01*
X165185680Y-80488663D01*
X164973000Y-81002119D01*
X164973000Y-81348198D01*
X160955000Y-77330199D01*
X160955000Y-77284017D01*
X160812655Y-76940365D01*
X160549635Y-76677345D01*
X160205983Y-76535000D01*
X159834017Y-76535000D01*
X159490365Y-76677345D01*
X159227345Y-76940365D01*
X159085000Y-77284017D01*
X159085000Y-77655983D01*
X159227345Y-77999635D01*
X159490365Y-78262655D01*
X159834017Y-78405000D01*
X159880199Y-78405000D01*
X164985980Y-83510782D01*
X164973000Y-83542119D01*
X164973000Y-84097881D01*
X165185680Y-84611337D01*
X165578663Y-85004320D01*
X165785513Y-85090000D01*
X165578663Y-85175680D01*
X165185680Y-85568663D01*
X164973000Y-86082119D01*
X164973000Y-86637881D01*
X165185680Y-87151337D01*
X165578663Y-87544320D01*
X165785513Y-87630000D01*
X165578663Y-87715680D01*
X165185680Y-88108663D01*
X165172700Y-88140000D01*
X162239802Y-88140000D01*
X158240000Y-84140199D01*
X158240000Y-78032290D01*
X158272655Y-77999635D01*
X158415000Y-77655983D01*
X158415000Y-77284017D01*
X158272655Y-76940365D01*
X158009635Y-76677345D01*
X157665983Y-76535000D01*
X157294017Y-76535000D01*
X156950365Y-76677345D01*
X156687345Y-76940365D01*
X156545000Y-77284017D01*
X156545000Y-77655983D01*
X156687345Y-77999635D01*
X156720000Y-78032290D01*
X156720001Y-84380148D01*
X156705112Y-84455000D01*
X156720001Y-84529852D01*
X156764097Y-84751537D01*
X156932072Y-85002929D01*
X156995528Y-85045329D01*
X161334671Y-89384473D01*
X161377071Y-89447929D01*
X161628463Y-89615904D01*
X161850148Y-89660000D01*
X161850152Y-89660000D01*
X161924999Y-89674888D01*
X161999846Y-89660000D01*
X165172700Y-89660000D01*
X165185680Y-89691337D01*
X165578663Y-90084320D01*
X165785513Y-90170000D01*
X165578663Y-90255680D01*
X165185680Y-90648663D01*
X164973000Y-91162119D01*
X164973000Y-91717881D01*
X165185680Y-92231337D01*
X165578663Y-92624320D01*
X165785513Y-92710000D01*
X165578663Y-92795680D01*
X165185680Y-93188663D01*
X164973000Y-93702119D01*
X164973000Y-94257881D01*
X165185680Y-94771337D01*
X165578663Y-95164320D01*
X165785513Y-95250000D01*
X165578663Y-95335680D01*
X165185680Y-95728663D01*
X164973000Y-96242119D01*
X164973000Y-96797881D01*
X165185680Y-97311337D01*
X165578663Y-97704320D01*
X165785513Y-97790000D01*
X165578663Y-97875680D01*
X165185680Y-98268663D01*
X164973000Y-98782119D01*
X164973000Y-99337881D01*
X165185680Y-99851337D01*
X165578663Y-100244320D01*
X165785513Y-100330000D01*
X165578663Y-100415680D01*
X165185680Y-100808663D01*
X164973000Y-101322119D01*
X164973000Y-101877881D01*
X165069147Y-102110000D01*
X164779802Y-102110000D01*
X156800331Y-94130530D01*
X156800329Y-94130527D01*
X156335000Y-93665199D01*
X156335000Y-76909848D01*
X156349888Y-76835000D01*
X156335000Y-76760152D01*
X156335000Y-76760148D01*
X156290904Y-76538463D01*
X156122929Y-76287071D01*
X156059473Y-76244671D01*
X155530331Y-75715530D01*
X155513272Y-75690000D01*
X155647710Y-75690000D01*
X155680365Y-75722655D01*
X156024017Y-75865000D01*
X156395983Y-75865000D01*
X156739635Y-75722655D01*
X157002655Y-75459635D01*
X157145000Y-75115983D01*
X157145000Y-74744017D01*
X157002655Y-74400365D01*
X156739635Y-74137345D01*
X156395983Y-73995000D01*
X156024017Y-73995000D01*
X155680365Y-74137345D01*
X155647710Y-74170000D01*
X155067000Y-74170000D01*
X155067000Y-73150000D01*
X156530199Y-73150000D01*
X157815000Y-74434802D01*
X157815000Y-74480983D01*
X157957345Y-74824635D01*
X158220365Y-75087655D01*
X158564017Y-75230000D01*
X158935983Y-75230000D01*
X159279635Y-75087655D01*
X159542655Y-74824635D01*
X159685000Y-74480983D01*
X159685000Y-74109017D01*
X159542655Y-73765365D01*
X159279635Y-73502345D01*
X159158821Y-73452302D01*
X164960856Y-73452302D01*
X164988638Y-74007368D01*
X165147603Y-74391143D01*
X165389787Y-74460608D01*
X166190395Y-73660000D01*
X166549605Y-73660000D01*
X167350213Y-74460608D01*
X167592397Y-74391143D01*
X167779144Y-73867698D01*
X167751362Y-73312632D01*
X167592397Y-72928857D01*
X167350213Y-72859392D01*
X166549605Y-73660000D01*
X166190395Y-73660000D01*
X165389787Y-72859392D01*
X165147603Y-72928857D01*
X164960856Y-73452302D01*
X159158821Y-73452302D01*
X158935983Y-73360000D01*
X158889802Y-73360000D01*
X157435331Y-71905530D01*
X157392929Y-71842071D01*
X157141537Y-71674096D01*
X156919852Y-71630000D01*
X156919847Y-71630000D01*
X156845000Y-71615112D01*
X156770153Y-71630000D01*
X155067000Y-71630000D01*
X155067000Y-70610000D01*
X159070199Y-70610000D01*
X160355000Y-71894802D01*
X160355000Y-71940983D01*
X160497345Y-72284635D01*
X160760365Y-72547655D01*
X161104017Y-72690000D01*
X161475983Y-72690000D01*
X161819635Y-72547655D01*
X162082655Y-72284635D01*
X162225000Y-71940983D01*
X162225000Y-71569017D01*
X162082655Y-71225365D01*
X161819635Y-70962345D01*
X161475983Y-70820000D01*
X161429802Y-70820000D01*
X159975331Y-69365530D01*
X159932929Y-69302071D01*
X159681537Y-69134096D01*
X159459852Y-69090000D01*
X159459847Y-69090000D01*
X159385000Y-69075112D01*
X159310153Y-69090000D01*
X155740788Y-69090000D01*
X155875000Y-68765983D01*
X155875000Y-68394017D01*
X155836935Y-68302119D01*
X164973000Y-68302119D01*
X164973000Y-68857881D01*
X165185680Y-69371337D01*
X165578663Y-69764320D01*
X165785513Y-69850000D01*
X165578663Y-69935680D01*
X165185680Y-70328663D01*
X164973000Y-70842119D01*
X164973000Y-71397881D01*
X165185680Y-71911337D01*
X165578663Y-72304320D01*
X165769647Y-72383428D01*
X165638857Y-72437603D01*
X165569392Y-72679787D01*
X166370000Y-73480395D01*
X167170608Y-72679787D01*
X167101143Y-72437603D01*
X166960607Y-72387465D01*
X167161337Y-72304320D01*
X167554320Y-71911337D01*
X167767000Y-71397881D01*
X167767000Y-70842119D01*
X167554320Y-70328663D01*
X167161337Y-69935680D01*
X166954487Y-69850000D01*
X167161337Y-69764320D01*
X167554320Y-69371337D01*
X167767000Y-68857881D01*
X167767000Y-68372302D01*
X182740856Y-68372302D01*
X182768638Y-68927368D01*
X182927603Y-69311143D01*
X183169787Y-69380608D01*
X183970395Y-68580000D01*
X184329605Y-68580000D01*
X185130213Y-69380608D01*
X185372397Y-69311143D01*
X185559144Y-68787698D01*
X185531362Y-68232632D01*
X185372397Y-67848857D01*
X185130213Y-67779392D01*
X184329605Y-68580000D01*
X183970395Y-68580000D01*
X183169787Y-67779392D01*
X182927603Y-67848857D01*
X182740856Y-68372302D01*
X167767000Y-68372302D01*
X167767000Y-68302119D01*
X167554320Y-67788663D01*
X167365444Y-67599787D01*
X183349392Y-67599787D01*
X184150000Y-68400395D01*
X184950608Y-67599787D01*
X184881143Y-67357603D01*
X184357698Y-67170856D01*
X183802632Y-67198638D01*
X183418857Y-67357603D01*
X183349392Y-67599787D01*
X167365444Y-67599787D01*
X167161337Y-67395680D01*
X166647881Y-67183000D01*
X166092119Y-67183000D01*
X165578663Y-67395680D01*
X165185680Y-67788663D01*
X164973000Y-68302119D01*
X155836935Y-68302119D01*
X155732655Y-68050365D01*
X155700000Y-68017710D01*
X155700000Y-67075306D01*
X187748410Y-67075306D01*
X187774421Y-67675458D01*
X187954047Y-68109116D01*
X188207940Y-68192455D01*
X189090395Y-67310000D01*
X188207940Y-66427545D01*
X187954047Y-66510884D01*
X187748410Y-67075306D01*
X155700000Y-67075306D01*
X155700000Y-66247940D01*
X188387545Y-66247940D01*
X189270000Y-67130395D01*
X189284143Y-67116253D01*
X189463748Y-67295858D01*
X189449605Y-67310000D01*
X189463748Y-67324143D01*
X189284143Y-67503748D01*
X189270000Y-67489605D01*
X188387545Y-68372060D01*
X188470884Y-68625953D01*
X189035306Y-68831590D01*
X189635458Y-68805579D01*
X190069116Y-68625953D01*
X190152454Y-68372062D01*
X190267086Y-68486694D01*
X190306525Y-68447255D01*
X190437191Y-68642809D01*
X190647235Y-68783157D01*
X190895000Y-68832440D01*
X192645000Y-68832440D01*
X192892765Y-68783157D01*
X193102809Y-68642809D01*
X193243157Y-68432765D01*
X193292440Y-68185000D01*
X193292440Y-66435000D01*
X193243157Y-66187235D01*
X193102809Y-65977191D01*
X192892765Y-65836843D01*
X192645000Y-65787560D01*
X190895000Y-65787560D01*
X190647235Y-65836843D01*
X190437191Y-65977191D01*
X190306525Y-66172745D01*
X190267086Y-66133306D01*
X190152454Y-66247938D01*
X190069116Y-65994047D01*
X189504694Y-65788410D01*
X188904542Y-65814421D01*
X188470884Y-65994047D01*
X188387545Y-66247940D01*
X155700000Y-66247940D01*
X155700000Y-65084801D01*
X155737361Y-65047440D01*
X157110000Y-65047440D01*
X157357765Y-64998157D01*
X157567809Y-64857809D01*
X157708157Y-64647765D01*
X157711275Y-64632092D01*
X157880493Y-64801310D01*
X158444670Y-65035000D01*
X159055330Y-65035000D01*
X159619507Y-64801310D01*
X160051310Y-64369507D01*
X160285000Y-63805330D01*
X160285000Y-63194670D01*
X160051310Y-62630493D01*
X159936567Y-62515750D01*
X195315000Y-62515750D01*
X195315000Y-63256310D01*
X195411673Y-63489699D01*
X195590302Y-63668327D01*
X195823691Y-63765000D01*
X196564250Y-63765000D01*
X196723000Y-63606250D01*
X196723000Y-62357000D01*
X195473750Y-62357000D01*
X195315000Y-62515750D01*
X159936567Y-62515750D01*
X159619507Y-62198690D01*
X159055330Y-61965000D01*
X158444670Y-61965000D01*
X157880493Y-62198690D01*
X157711275Y-62367908D01*
X157708157Y-62352235D01*
X157567809Y-62142191D01*
X157357765Y-62001843D01*
X157110000Y-61952560D01*
X155310000Y-61952560D01*
X155067000Y-62000895D01*
X155067000Y-61203690D01*
X195315000Y-61203690D01*
X195315000Y-61944250D01*
X195473750Y-62103000D01*
X196723000Y-62103000D01*
X196723000Y-60853750D01*
X196977000Y-60853750D01*
X196977000Y-62103000D01*
X196997000Y-62103000D01*
X196997000Y-62357000D01*
X196977000Y-62357000D01*
X196977000Y-63606250D01*
X197135750Y-63765000D01*
X197876309Y-63765000D01*
X198109698Y-63668327D01*
X198288327Y-63489699D01*
X198344139Y-63354956D01*
X198520493Y-63531310D01*
X199084670Y-63765000D01*
X199695330Y-63765000D01*
X200259507Y-63531310D01*
X200691310Y-63099507D01*
X200925000Y-62535330D01*
X200925000Y-61924670D01*
X200691310Y-61360493D01*
X200259507Y-60928690D01*
X199695330Y-60695000D01*
X199084670Y-60695000D01*
X198520493Y-60928690D01*
X198344139Y-61105044D01*
X198288327Y-60970301D01*
X198109698Y-60791673D01*
X197876309Y-60695000D01*
X197135750Y-60695000D01*
X196977000Y-60853750D01*
X196723000Y-60853750D01*
X196564250Y-60695000D01*
X195823691Y-60695000D01*
X195590302Y-60791673D01*
X195411673Y-60970301D01*
X195315000Y-61203690D01*
X155067000Y-61203690D01*
X155067000Y-60515431D01*
X203505000Y-60515431D01*
X203505000Y-61404569D01*
X203845259Y-62226026D01*
X204473974Y-62854741D01*
X205295431Y-63195000D01*
X206184569Y-63195000D01*
X207006026Y-62854741D01*
X207634741Y-62226026D01*
X207975000Y-61404569D01*
X207975000Y-60515431D01*
X207634741Y-59693974D01*
X207006026Y-59065259D01*
X206184569Y-58725000D01*
X205295431Y-58725000D01*
X204473974Y-59065259D01*
X203845259Y-59693974D01*
X203505000Y-60515431D01*
X155067000Y-60515431D01*
X155067000Y-57912000D01*
X208788000Y-57912000D01*
X208788000Y-130048000D01*
G04 #@! TD*
M02*
